<svg id="Capa_1" data-name="Capa 1" xmlns="http://www.w3.org/2000/svg" xmlns:xlink="http://www.w3.org/1999/xlink" viewBox="0 0 32 32"><defs><linearGradient id="Degradado_sin_nombre_14" x1="519.03" y1="2718" x2="521.04" y2="2716" gradientTransform="translate(-551.2 2730.27) rotate(-157.05)" gradientUnits="userSpaceOnUse"><stop offset="0" stop-color="#52429e"></stop><stop offset="1" stop-color="#343778"></stop></linearGradient><linearGradient id="Degradado_sin_nombre_14-2" x1="-3851.48" y1="3439.42" x2="-3849.47" y2="3437.41" gradientTransform="translate(-4855.78 1689.71) rotate(-157.05)" xlink:href="#Degradado_sin_nombre_14"></linearGradient><linearGradient id="Degradado_sin_nombre_14-3" x1="3.32" y1="8.19" x2="5.33" y2="6.19" gradientTransform="translate(5.5 15.54) rotate(-157.05)" xlink:href="#Degradado_sin_nombre_14"></linearGradient><clipPath id="clip-path"><path class="cls-1" d="M22.54,6.88,17.66,18.49a4.35,4.35,0,0,1-4,2.62H9.78a1.48,1.48,0,1,1-.5-1.1L19,11l1.79-4.11h-16l-1.79,4h8.75v-.11a1.48,1.48,0,1,1,1.47,1.48,1.44,1.44,0,0,1-1-.42L3.87,19.53A7.58,7.58,0,0,0,.73,24.31l-.23.81H13.72A8.37,8.37,0,0,0,21.43,20L27,6.88Z"></path></clipPath><clipPath id="clip-path-2"><path class="cls-1" d="M4.33,5.31h0A1.11,1.11,0,0,1,5.43,6.42V8.1a1,1,0,0,1-1,1h-.2a1,1,0,0,1-1-1V6.42A1.11,1.11,0,0,1,4.33,5.31Z" transform="translate(11.12 12.16) rotate(157.05)"></path></clipPath><clipPath id="clip-path-3"><path class="cls-1" d="M17.9,25.12H29.81l1.69-4H21.9A9.15,9.15,0,0,1,17.9,25.12Z"></path></clipPath><clipPath id="clip-path-4"><rect class="cls-1" x="14.21" y="17.32" width="26.47" height="18.24"></rect></clipPath><clipPath id="clip-path-5"><path class="cls-1" d="M29.29,24h1.48a0,0,0,0,1,0,0v2.11a0,0,0,0,1,0,0H27.18a0,0,0,0,1,0,0v0A2.11,2.11,0,0,1,29.29,24Z"></path></clipPath><clipPath id="clip-path-6"><path class="cls-1" d="M31.13,20.9h0A1.11,1.11,0,0,1,32.24,22V24.7a0,0,0,0,1,0,0H30a0,0,0,0,1,0,0V22A1.11,1.11,0,0,1,31.13,20.9Z" transform="translate(-4.42 7.79) rotate(-13.33)"></path></clipPath><clipPath id="clip-path-7"><path class="cls-1" d="M29.19,23.6h0a1.11,1.11,0,0,1,1.11,1.11V26.4a1,1,0,0,1-1,1h-.2a1,1,0,0,1-1-1V24.71A1.11,1.11,0,0,1,29.19,23.6Z" transform="matrix(-0.06, 1, -1, -0.06, 56.54, -1.98)"></path></clipPath><clipPath id="clip-path-8"><path class="cls-1" d="M30.55,22.64h0a1.11,1.11,0,0,1,1.11,1.11v1.68a1,1,0,0,1-1,1h-.2a1,1,0,0,1-1-1V23.74A1.11,1.11,0,0,1,30.55,22.64Z" transform="translate(-7.62 15.68) rotate(-25.71)"></path></clipPath><linearGradient id="Degradado_sin_nombre_4" x1="2.56" y1="27.17" x2="24.91" y2="4.82" gradientUnits="userSpaceOnUse"><stop offset="0" stop-color="#1c222d"></stop><stop offset="1" stop-color="#343778"></stop></linearGradient><clipPath id="clip-path-10"><path class="cls-4" d="M4.33,5.31h0A1.11,1.11,0,0,1,5.43,6.42V8.1a1,1,0,0,1-1,1h-.2a1,1,0,0,1-1-1V6.42A1.11,1.11,0,0,1,4.33,5.31Z" transform="translate(11.12 12.16) rotate(157.05)"></path></clipPath><linearGradient id="Degradado_sin_nombre_14-5" x1="5.06" y1="5.48" x2="5.7" y2="4.84" gradientTransform="matrix(1, 0, 0, 1, 0, 0)" xlink:href="#Degradado_sin_nombre_14"></linearGradient><linearGradient id="Degradado_sin_nombre_14-6" x1="4.89" y1="5.57" x2="5.4" y2="5.06" gradientTransform="matrix(1, 0, 0, 1, 0, 0)" xlink:href="#Degradado_sin_nombre_14"></linearGradient><linearGradient id="Degradado_sin_nombre_14-7" x1="4.73" y1="5.66" x2="5.32" y2="5.08" gradientTransform="matrix(1, 0, 0, 1, 0, 0)" xlink:href="#Degradado_sin_nombre_14"></linearGradient><linearGradient id="Degradado_sin_nombre_14-8" x1="4.57" y1="5.75" x2="5.23" y2="5.09" gradientTransform="matrix(1, 0, 0, 1, 0, 0)" xlink:href="#Degradado_sin_nombre_14"></linearGradient><linearGradient id="Degradado_sin_nombre_14-9" x1="4.4" y1="5.84" x2="5.14" y2="5.1" gradientTransform="matrix(1, 0, 0, 1, 0, 0)" xlink:href="#Degradado_sin_nombre_14"></linearGradient><linearGradient id="Degradado_sin_nombre_14-10" x1="4.24" y1="5.93" x2="5.05" y2="5.12" gradientTransform="matrix(1, 0, 0, 1, 0, 0)" xlink:href="#Degradado_sin_nombre_14"></linearGradient><linearGradient id="Degradado_sin_nombre_14-11" x1="4.08" y1="6.02" x2="4.96" y2="5.13" gradientTransform="matrix(1, 0, 0, 1, 0, 0)" xlink:href="#Degradado_sin_nombre_14"></linearGradient><linearGradient id="Degradado_sin_nombre_14-12" x1="3.91" y1="6.11" x2="4.87" y2="5.15" gradientTransform="matrix(1, 0, 0, 1, 0, 0)" xlink:href="#Degradado_sin_nombre_14"></linearGradient><linearGradient id="Degradado_sin_nombre_14-13" x1="3.8" y1="6.19" x2="4.81" y2="5.18" gradientTransform="matrix(1, 0, 0, 1, 0, 0)" xlink:href="#Degradado_sin_nombre_14"></linearGradient><linearGradient id="Degradado_sin_nombre_14-14" x1="3.77" y1="6.29" x2="4.79" y2="5.27" gradientTransform="matrix(1, 0, 0, 1, 0, 0)" xlink:href="#Degradado_sin_nombre_14"></linearGradient><linearGradient id="Degradado_sin_nombre_14-15" x1="3.75" y1="6.39" x2="4.78" y2="5.36" gradientTransform="matrix(1, 0, 0, 1, 0, 0)" xlink:href="#Degradado_sin_nombre_14"></linearGradient><linearGradient id="Degradado_sin_nombre_14-16" x1="3.72" y1="6.49" x2="4.76" y2="5.45" gradientTransform="matrix(1, 0, 0, 1, 0, 0)" xlink:href="#Degradado_sin_nombre_14"></linearGradient><linearGradient id="Degradado_sin_nombre_14-17" x1="3.71" y1="6.58" x2="4.75" y2="5.54" gradientTransform="matrix(1, 0, 0, 1, 0, 0)" xlink:href="#Degradado_sin_nombre_14"></linearGradient><linearGradient id="Degradado_sin_nombre_14-18" x1="3.71" y1="6.68" x2="4.75" y2="5.64" gradientTransform="matrix(1, 0, 0, 1, 0, 0)" xlink:href="#Degradado_sin_nombre_14"></linearGradient><linearGradient id="Degradado_sin_nombre_14-19" x1="3.71" y1="6.78" x2="4.75" y2="5.74" gradientTransform="matrix(1, 0, 0, 1, 0, 0)" xlink:href="#Degradado_sin_nombre_14"></linearGradient><linearGradient id="Degradado_sin_nombre_14-20" x1="3.71" y1="6.88" x2="4.75" y2="5.84" gradientTransform="matrix(1, 0, 0, 1, 0, 0)" xlink:href="#Degradado_sin_nombre_14"></linearGradient><linearGradient id="Degradado_sin_nombre_14-21" x1="3.71" y1="6.99" x2="4.75" y2="5.95" gradientTransform="matrix(1, 0, 0, 1, 0, 0)" xlink:href="#Degradado_sin_nombre_14"></linearGradient><linearGradient id="Degradado_sin_nombre_14-22" x1="3.71" y1="7.09" x2="4.75" y2="6.05" gradientTransform="matrix(1, 0, 0, 1, 0, 0)" xlink:href="#Degradado_sin_nombre_14"></linearGradient><linearGradient id="Degradado_sin_nombre_14-23" x1="3.71" y1="7.19" x2="4.75" y2="6.15" gradientTransform="matrix(1, 0, 0, 1, 0, 0)" xlink:href="#Degradado_sin_nombre_14"></linearGradient><linearGradient id="Degradado_sin_nombre_14-24" x1="3.71" y1="7.29" x2="4.75" y2="6.25" gradientTransform="matrix(1, 0, 0, 1, 0, 0)" xlink:href="#Degradado_sin_nombre_14"></linearGradient><linearGradient id="Degradado_sin_nombre_14-25" x1="3.71" y1="7.4" x2="4.75" y2="6.36" gradientTransform="matrix(1, 0, 0, 1, 0, 0)" xlink:href="#Degradado_sin_nombre_14"></linearGradient><linearGradient id="Degradado_sin_nombre_14-26" x1="3.71" y1="7.5" x2="4.75" y2="6.46" gradientTransform="matrix(1, 0, 0, 1, 0, 0)" xlink:href="#Degradado_sin_nombre_14"></linearGradient><linearGradient id="Degradado_sin_nombre_14-27" x1="3.71" y1="7.6" x2="4.75" y2="6.56" gradientTransform="matrix(1, 0, 0, 1, 0, 0)" xlink:href="#Degradado_sin_nombre_14"></linearGradient><linearGradient id="Degradado_sin_nombre_14-28" x1="3.71" y1="7.7" x2="4.75" y2="6.66" gradientTransform="matrix(1, 0, 0, 1, 0, 0)" xlink:href="#Degradado_sin_nombre_14"></linearGradient><linearGradient id="Degradado_sin_nombre_14-29" x1="3.71" y1="7.81" x2="4.75" y2="6.77" gradientTransform="matrix(1, 0, 0, 1, 0, 0)" xlink:href="#Degradado_sin_nombre_14"></linearGradient><linearGradient id="Degradado_sin_nombre_14-30" x1="3.71" y1="7.91" x2="4.75" y2="6.87" gradientTransform="matrix(1, 0, 0, 1, 0, 0)" xlink:href="#Degradado_sin_nombre_14"></linearGradient><linearGradient id="Degradado_sin_nombre_14-31" x1="3.71" y1="8.01" x2="4.75" y2="6.97" gradientTransform="matrix(1, 0, 0, 1, 0, 0)" xlink:href="#Degradado_sin_nombre_14"></linearGradient><linearGradient id="Degradado_sin_nombre_14-32" x1="3.71" y1="8.11" x2="4.75" y2="7.07" gradientTransform="matrix(1, 0, 0, 1, 0, 0)" xlink:href="#Degradado_sin_nombre_14"></linearGradient><linearGradient id="Degradado_sin_nombre_14-33" x1="3.71" y1="8.22" x2="4.75" y2="7.17" gradientTransform="matrix(1, 0, 0, 1, 0, 0)" xlink:href="#Degradado_sin_nombre_14"></linearGradient><linearGradient id="Degradado_sin_nombre_14-34" x1="3.71" y1="8.32" x2="4.75" y2="7.28" gradientTransform="matrix(1, 0, 0, 1, 0, 0)" xlink:href="#Degradado_sin_nombre_14"></linearGradient><linearGradient id="Degradado_sin_nombre_14-35" x1="3.71" y1="8.42" x2="4.75" y2="7.38" gradientTransform="matrix(1, 0, 0, 1, 0, 0)" xlink:href="#Degradado_sin_nombre_14"></linearGradient><linearGradient id="Degradado_sin_nombre_14-36" x1="3.7" y1="8.51" x2="4.74" y2="7.47" gradientTransform="matrix(1, 0, 0, 1, 0, 0)" xlink:href="#Degradado_sin_nombre_14"></linearGradient><linearGradient id="Degradado_sin_nombre_14-37" x1="3.69" y1="8.6" x2="4.72" y2="7.57" gradientTransform="matrix(1, 0, 0, 1, 0, 0)" xlink:href="#Degradado_sin_nombre_14"></linearGradient><linearGradient id="Degradado_sin_nombre_14-38" x1="3.67" y1="8.69" x2="4.7" y2="7.67" gradientTransform="matrix(1, 0, 0, 1, 0, 0)" xlink:href="#Degradado_sin_nombre_14"></linearGradient><linearGradient id="Degradado_sin_nombre_14-39" x1="3.66" y1="8.78" x2="4.67" y2="7.77" gradientTransform="matrix(1, 0, 0, 1, 0, 0)" xlink:href="#Degradado_sin_nombre_14"></linearGradient><linearGradient id="Degradado_sin_nombre_14-40" x1="3.65" y1="8.87" x2="4.65" y2="7.87" gradientTransform="matrix(1, 0, 0, 1, 0, 0)" xlink:href="#Degradado_sin_nombre_14"></linearGradient><linearGradient id="Degradado_sin_nombre_14-41" x1="3.64" y1="8.96" x2="4.63" y2="7.97" gradientTransform="matrix(1, 0, 0, 1, 0, 0)" xlink:href="#Degradado_sin_nombre_14"></linearGradient><linearGradient id="Degradado_sin_nombre_14-42" x1="3.62" y1="9.04" x2="4.6" y2="8.07" gradientTransform="matrix(1, 0, 0, 1, 0, 0)" xlink:href="#Degradado_sin_nombre_14"></linearGradient><linearGradient id="Degradado_sin_nombre_14-43" x1="3.56" y1="9.09" x2="4.5" y2="8.15" gradientTransform="matrix(1, 0, 0, 1, 0, 0)" xlink:href="#Degradado_sin_nombre_14"></linearGradient><linearGradient id="Degradado_sin_nombre_14-44" x1="3.47" y1="9.1" x2="4.33" y2="8.24" gradientTransform="matrix(1, 0, 0, 1, 0, 0)" xlink:href="#Degradado_sin_nombre_14"></linearGradient><linearGradient id="Degradado_sin_nombre_14-45" x1="3.38" y1="9.12" x2="4.17" y2="8.33" gradientTransform="matrix(1, 0, 0, 1, 0, 0)" xlink:href="#Degradado_sin_nombre_14"></linearGradient><linearGradient id="Degradado_sin_nombre_14-46" x1="2.9" y1="9.53" x2="4.01" y2="8.42" gradientTransform="matrix(1, 0, 0, 1, 0, 0)" xlink:href="#Degradado_sin_nombre_14"></linearGradient><linearGradient id="Degradado_sin_nombre_4-2" x1="10.91" y1="32.27" x2="33.26" y2="9.92" xlink:href="#Degradado_sin_nombre_4"></linearGradient><clipPath id="clip-path-15"><path class="cls-2" d="M29.19,23.6h0a1.11,1.11,0,0,1,1.11,1.11V26.4a1,1,0,0,1-1,1h-.2a1,1,0,0,1-1-1V24.71A1.11,1.11,0,0,1,29.19,23.6Z" transform="matrix(-0.06, 1, -1, -0.06, 56.54, -1.98)"></path></clipPath><linearGradient id="Degradado_sin_nombre_14-48" x1="520.77" y1="2715.3" x2="521.41" y2="2714.65" gradientTransform="translate(-2632.26 -729.04) rotate(-63.34)" xlink:href="#Degradado_sin_nombre_14"></linearGradient><linearGradient id="Degradado_sin_nombre_14-49" x1="520.6" y1="2715.38" x2="521.11" y2="2714.87" gradientTransform="translate(-2632.26 -729.04) rotate(-63.34)" xlink:href="#Degradado_sin_nombre_14"></linearGradient><linearGradient id="Degradado_sin_nombre_14-50" x1="520.44" y1="2715.47" x2="521.02" y2="2714.89" gradientTransform="translate(-2632.26 -729.04) rotate(-63.34)" xlink:href="#Degradado_sin_nombre_14"></linearGradient><linearGradient id="Degradado_sin_nombre_14-51" x1="520.27" y1="2715.56" x2="520.93" y2="2714.9" gradientTransform="translate(-2632.26 -729.04) rotate(-63.34)" xlink:href="#Degradado_sin_nombre_14"></linearGradient><linearGradient id="Degradado_sin_nombre_14-52" x1="520.11" y1="2715.65" x2="520.85" y2="2714.92" gradientTransform="translate(-2632.26 -729.04) rotate(-63.34)" xlink:href="#Degradado_sin_nombre_14"></linearGradient><linearGradient id="Degradado_sin_nombre_14-53" x1="519.95" y1="2715.74" x2="520.76" y2="2714.93" gradientTransform="translate(-2632.26 -729.04) rotate(-63.34)" xlink:href="#Degradado_sin_nombre_14"></linearGradient><linearGradient id="Degradado_sin_nombre_14-54" x1="519.78" y1="2715.83" x2="520.67" y2="2714.94" gradientTransform="translate(-2632.26 -729.04) rotate(-63.34)" xlink:href="#Degradado_sin_nombre_14"></linearGradient><linearGradient id="Degradado_sin_nombre_14-55" x1="519.62" y1="2715.92" x2="520.58" y2="2714.96" gradientTransform="translate(-2632.26 -729.04) rotate(-63.34)" xlink:href="#Degradado_sin_nombre_14"></linearGradient><linearGradient id="Degradado_sin_nombre_14-56" x1="519.51" y1="2716.01" x2="520.52" y2="2715" gradientTransform="translate(-2632.26 -729.04) rotate(-63.34)" xlink:href="#Degradado_sin_nombre_14"></linearGradient><linearGradient id="Degradado_sin_nombre_14-57" x1="519.48" y1="2716.1" x2="520.5" y2="2715.08" gradientTransform="translate(-2632.26 -729.04) rotate(-63.34)" xlink:href="#Degradado_sin_nombre_14"></linearGradient><linearGradient id="Degradado_sin_nombre_14-58" x1="519.45" y1="2716.2" x2="520.48" y2="2715.17" gradientTransform="translate(-2632.26 -729.04) rotate(-63.34)" xlink:href="#Degradado_sin_nombre_14"></linearGradient><linearGradient id="Degradado_sin_nombre_14-59" x1="519.43" y1="2716.3" x2="520.47" y2="2715.26" gradientTransform="translate(-2632.26 -729.04) rotate(-63.34)" xlink:href="#Degradado_sin_nombre_14"></linearGradient><linearGradient id="Degradado_sin_nombre_14-60" x1="519.42" y1="2716.39" x2="520.46" y2="2715.35" gradientTransform="translate(-2632.26 -729.04) rotate(-63.34)" xlink:href="#Degradado_sin_nombre_14"></linearGradient><linearGradient id="Degradado_sin_nombre_14-61" x1="519.42" y1="2716.49" x2="520.46" y2="2715.45" gradientTransform="translate(-2632.26 -729.04) rotate(-63.34)" xlink:href="#Degradado_sin_nombre_14"></linearGradient><linearGradient id="Degradado_sin_nombre_14-62" x1="519.42" y1="2716.59" x2="520.46" y2="2715.55" gradientTransform="translate(-2632.26 -729.04) rotate(-63.34)" xlink:href="#Degradado_sin_nombre_14"></linearGradient><linearGradient id="Degradado_sin_nombre_14-63" x1="519.42" y1="2716.7" x2="520.46" y2="2715.66" gradientTransform="translate(-2632.26 -729.04) rotate(-63.34)" xlink:href="#Degradado_sin_nombre_14"></linearGradient><linearGradient id="Degradado_sin_nombre_14-64" x1="519.42" y1="2716.8" x2="520.46" y2="2715.76" gradientTransform="translate(-2632.26 -729.04) rotate(-63.34)" xlink:href="#Degradado_sin_nombre_14"></linearGradient><linearGradient id="Degradado_sin_nombre_14-65" x1="519.42" y1="2716.9" x2="520.46" y2="2715.86" gradientTransform="translate(-2632.26 -729.04) rotate(-63.34)" xlink:href="#Degradado_sin_nombre_14"></linearGradient><linearGradient id="Degradado_sin_nombre_14-66" x1="519.42" y1="2717" x2="520.46" y2="2715.96" gradientTransform="translate(-2632.26 -729.04) rotate(-63.34)" xlink:href="#Degradado_sin_nombre_14"></linearGradient><linearGradient id="Degradado_sin_nombre_14-67" x1="519.42" y1="2717.11" x2="520.46" y2="2716.06" gradientTransform="translate(-2632.26 -729.04) rotate(-63.34)" xlink:href="#Degradado_sin_nombre_14"></linearGradient><linearGradient id="Degradado_sin_nombre_14-68" x1="519.42" y1="2717.21" x2="520.46" y2="2716.17" gradientTransform="translate(-2632.26 -729.04) rotate(-63.34)" xlink:href="#Degradado_sin_nombre_14"></linearGradient><linearGradient id="Degradado_sin_nombre_14-69" x1="519.42" y1="2717.31" x2="520.46" y2="2716.27" gradientTransform="translate(-2632.26 -729.04) rotate(-63.34)" xlink:href="#Degradado_sin_nombre_14"></linearGradient><linearGradient id="Degradado_sin_nombre_14-70" x1="519.42" y1="2717.41" x2="520.46" y2="2716.37" gradientTransform="translate(-2632.26 -729.04) rotate(-63.34)" xlink:href="#Degradado_sin_nombre_14"></linearGradient><linearGradient id="Degradado_sin_nombre_14-71" x1="519.42" y1="2717.52" x2="520.46" y2="2716.47" gradientTransform="translate(-2632.26 -729.04) rotate(-63.34)" xlink:href="#Degradado_sin_nombre_14"></linearGradient><linearGradient id="Degradado_sin_nombre_14-72" x1="519.42" y1="2717.62" x2="520.46" y2="2716.58" gradientTransform="translate(-2632.26 -729.04) rotate(-63.34)" xlink:href="#Degradado_sin_nombre_14"></linearGradient><linearGradient id="Degradado_sin_nombre_14-73" x1="519.42" y1="2717.72" x2="520.46" y2="2716.68" gradientTransform="translate(-2632.26 -729.04) rotate(-63.34)" xlink:href="#Degradado_sin_nombre_14"></linearGradient><linearGradient id="Degradado_sin_nombre_14-74" x1="519.42" y1="2717.82" x2="520.46" y2="2716.78" gradientTransform="translate(-2632.26 -729.04) rotate(-63.34)" xlink:href="#Degradado_sin_nombre_14"></linearGradient><linearGradient id="Degradado_sin_nombre_14-75" x1="519.42" y1="2717.92" x2="520.46" y2="2716.88" gradientTransform="translate(-2632.26 -729.04) rotate(-63.34)" xlink:href="#Degradado_sin_nombre_14"></linearGradient><linearGradient id="Degradado_sin_nombre_14-76" x1="519.42" y1="2718.03" x2="520.46" y2="2716.99" gradientTransform="translate(-2632.26 -729.04) rotate(-63.34)" xlink:href="#Degradado_sin_nombre_14"></linearGradient><linearGradient id="Degradado_sin_nombre_14-77" x1="519.42" y1="2718.13" x2="520.46" y2="2717.09" gradientTransform="translate(-2632.26 -729.04) rotate(-63.34)" xlink:href="#Degradado_sin_nombre_14"></linearGradient><linearGradient id="Degradado_sin_nombre_14-78" x1="519.42" y1="2718.23" x2="520.46" y2="2717.19" gradientTransform="translate(-2632.26 -729.04) rotate(-63.34)" xlink:href="#Degradado_sin_nombre_14"></linearGradient><linearGradient id="Degradado_sin_nombre_14-79" x1="519.41" y1="2718.32" x2="520.45" y2="2717.28" gradientTransform="translate(-2632.26 -729.04) rotate(-63.34)" xlink:href="#Degradado_sin_nombre_14"></linearGradient><linearGradient id="Degradado_sin_nombre_14-80" x1="519.39" y1="2718.41" x2="520.43" y2="2717.38" gradientTransform="translate(-2632.26 -729.04) rotate(-63.34)" xlink:href="#Degradado_sin_nombre_14"></linearGradient><linearGradient id="Degradado_sin_nombre_14-81" x1="519.38" y1="2718.5" x2="520.4" y2="2717.48" gradientTransform="translate(-2632.26 -729.04) rotate(-63.34)" xlink:href="#Degradado_sin_nombre_14"></linearGradient><linearGradient id="Degradado_sin_nombre_14-82" x1="519.37" y1="2718.59" x2="520.38" y2="2717.58" gradientTransform="translate(-2632.26 -729.04) rotate(-63.34)" xlink:href="#Degradado_sin_nombre_14"></linearGradient><linearGradient id="Degradado_sin_nombre_14-83" x1="519.36" y1="2718.68" x2="520.36" y2="2717.68" gradientTransform="translate(-2632.26 -729.04) rotate(-63.34)" xlink:href="#Degradado_sin_nombre_14"></linearGradient><linearGradient id="Degradado_sin_nombre_14-84" x1="519.34" y1="2718.77" x2="520.33" y2="2717.78" gradientTransform="translate(-2632.26 -729.04) rotate(-63.34)" xlink:href="#Degradado_sin_nombre_14"></linearGradient><linearGradient id="Degradado_sin_nombre_14-85" x1="519.33" y1="2718.86" x2="520.3" y2="2717.88" gradientTransform="translate(-2632.26 -729.04) rotate(-63.34)" xlink:href="#Degradado_sin_nombre_14"></linearGradient><linearGradient id="Degradado_sin_nombre_14-86" x1="519.27" y1="2718.9" x2="520.2" y2="2717.97" gradientTransform="translate(-2632.26 -729.04) rotate(-63.34)" xlink:href="#Degradado_sin_nombre_14"></linearGradient><linearGradient id="Degradado_sin_nombre_14-87" x1="519.18" y1="2718.92" x2="520.04" y2="2718.05" gradientTransform="translate(-2632.26 -729.04) rotate(-63.34)" xlink:href="#Degradado_sin_nombre_14"></linearGradient><linearGradient id="Degradado_sin_nombre_14-88" x1="519.09" y1="2718.93" x2="519.88" y2="2718.14" gradientTransform="translate(-2632.26 -729.04) rotate(-63.34)" xlink:href="#Degradado_sin_nombre_14"></linearGradient><linearGradient id="Degradado_sin_nombre_14-89" x1="518.6" y1="2719.34" x2="519.71" y2="2718.23" gradientTransform="translate(-2632.26 -729.04) rotate(-63.34)" xlink:href="#Degradado_sin_nombre_14"></linearGradient><clipPath id="clip-path-16"><path class="cls-3" d="M30.55,22.64h0a1.11,1.11,0,0,1,1.11,1.11v1.68a1,1,0,0,1-1,1h-.2a1,1,0,0,1-1-1V23.74A1.11,1.11,0,0,1,30.55,22.64Z" transform="translate(-7.62 15.68) rotate(-25.71)"></path></clipPath><linearGradient id="Degradado_sin_nombre_14-91" x1="-3849.74" y1="3436.71" x2="-3849.1" y2="3436.07" gradientTransform="translate(-3649.47 3644.82) rotate(177.23)" xlink:href="#Degradado_sin_nombre_14"></linearGradient><linearGradient id="Degradado_sin_nombre_14-92" x1="-3849.91" y1="3436.8" x2="-3849.4" y2="3436.29" gradientTransform="translate(-3649.47 3644.82) rotate(177.23)" xlink:href="#Degradado_sin_nombre_14"></linearGradient><linearGradient id="Degradado_sin_nombre_14-93" x1="-3850.07" y1="3436.89" x2="-3849.49" y2="3436.3" gradientTransform="translate(-3649.47 3644.82) rotate(177.23)" xlink:href="#Degradado_sin_nombre_14"></linearGradient><linearGradient id="Degradado_sin_nombre_14-94" x1="-3850.24" y1="3436.98" x2="-3849.58" y2="3436.32" gradientTransform="translate(-3649.47 3644.82) rotate(177.23)" xlink:href="#Degradado_sin_nombre_14"></linearGradient><linearGradient id="Degradado_sin_nombre_14-95" x1="-3850.4" y1="3437.07" x2="-3849.67" y2="3436.33" gradientTransform="translate(-3649.47 3644.82) rotate(177.23)" xlink:href="#Degradado_sin_nombre_14"></linearGradient><linearGradient id="Degradado_sin_nombre_14-96" x1="-3850.56" y1="3437.15" x2="-3849.75" y2="3436.34" gradientTransform="translate(-3649.47 3644.82) rotate(177.23)" xlink:href="#Degradado_sin_nombre_14"></linearGradient><linearGradient id="Degradado_sin_nombre_14-97" x1="-3850.73" y1="3437.24" x2="-3849.84" y2="3436.36" gradientTransform="translate(-3649.47 3644.82) rotate(177.23)" xlink:href="#Degradado_sin_nombre_14"></linearGradient><linearGradient id="Degradado_sin_nombre_14-98" x1="-3850.89" y1="3437.33" x2="-3849.93" y2="3436.37" gradientTransform="translate(-3649.47 3644.82) rotate(177.23)" xlink:href="#Degradado_sin_nombre_14"></linearGradient><linearGradient id="Degradado_sin_nombre_14-99" x1="-3851" y1="3437.42" x2="-3849.99" y2="3436.41" gradientTransform="translate(-3649.47 3644.82) rotate(177.23)" xlink:href="#Degradado_sin_nombre_14"></linearGradient><linearGradient id="Degradado_sin_nombre_14-100" x1="-3851.03" y1="3437.51" x2="-3850.01" y2="3436.49" gradientTransform="translate(-3649.47 3644.82) rotate(177.23)" xlink:href="#Degradado_sin_nombre_14"></linearGradient><linearGradient id="Degradado_sin_nombre_14-101" x1="-3851.06" y1="3437.61" x2="-3850.03" y2="3436.58" gradientTransform="translate(-3649.47 3644.82) rotate(177.23)" xlink:href="#Degradado_sin_nombre_14"></linearGradient><linearGradient id="Degradado_sin_nombre_14-102" x1="-3851.08" y1="3437.71" x2="-3850.04" y2="3436.67" gradientTransform="translate(-3649.47 3644.82) rotate(177.23)" xlink:href="#Degradado_sin_nombre_14"></linearGradient><linearGradient id="Degradado_sin_nombre_14-103" x1="-3851.09" y1="3437.8" x2="-3850.05" y2="3436.76" gradientTransform="translate(-3649.47 3644.82) rotate(177.23)" xlink:href="#Degradado_sin_nombre_14"></linearGradient><linearGradient id="Degradado_sin_nombre_14-104" x1="-3851.09" y1="3437.91" x2="-3850.05" y2="3436.86" gradientTransform="translate(-3649.47 3644.82) rotate(177.23)" xlink:href="#Degradado_sin_nombre_14"></linearGradient><linearGradient id="Degradado_sin_nombre_14-105" x1="-3851.09" y1="3438.01" x2="-3850.05" y2="3436.97" gradientTransform="translate(-3649.47 3644.82) rotate(177.23)" xlink:href="#Degradado_sin_nombre_14"></linearGradient><linearGradient id="Degradado_sin_nombre_14-106" x1="-3851.09" y1="3438.11" x2="-3850.05" y2="3437.07" gradientTransform="translate(-3649.47 3644.82) rotate(177.23)" xlink:href="#Degradado_sin_nombre_14"></linearGradient><linearGradient id="Degradado_sin_nombre_14-107" x1="-3851.09" y1="3438.21" x2="-3850.05" y2="3437.17" gradientTransform="translate(-3649.47 3644.82) rotate(177.23)" xlink:href="#Degradado_sin_nombre_14"></linearGradient><linearGradient id="Degradado_sin_nombre_14-108" x1="-3851.09" y1="3438.32" x2="-3850.05" y2="3437.27" gradientTransform="translate(-3649.47 3644.82) rotate(177.23)" xlink:href="#Degradado_sin_nombre_14"></linearGradient><linearGradient id="Degradado_sin_nombre_14-109" x1="-3851.09" y1="3438.42" x2="-3850.05" y2="3437.38" gradientTransform="translate(-3649.47 3644.82) rotate(177.23)" xlink:href="#Degradado_sin_nombre_14"></linearGradient><linearGradient id="Degradado_sin_nombre_14-110" x1="-3851.09" y1="3438.52" x2="-3850.05" y2="3437.48" gradientTransform="translate(-3649.47 3644.82) rotate(177.23)" xlink:href="#Degradado_sin_nombre_14"></linearGradient><linearGradient id="Degradado_sin_nombre_14-111" x1="-3851.09" y1="3438.62" x2="-3850.05" y2="3437.58" gradientTransform="translate(-3649.47 3644.82) rotate(177.23)" xlink:href="#Degradado_sin_nombre_14"></linearGradient><linearGradient id="Degradado_sin_nombre_14-112" x1="-3851.09" y1="3438.73" x2="-3850.05" y2="3437.68" gradientTransform="translate(-3649.47 3644.82) rotate(177.23)" xlink:href="#Degradado_sin_nombre_14"></linearGradient><linearGradient id="Degradado_sin_nombre_14-113" x1="-3851.09" y1="3438.83" x2="-3850.05" y2="3437.79" gradientTransform="translate(-3649.47 3644.82) rotate(177.23)" xlink:href="#Degradado_sin_nombre_14"></linearGradient><linearGradient id="Degradado_sin_nombre_14-114" x1="-3851.09" y1="3438.93" x2="-3850.05" y2="3437.89" gradientTransform="translate(-3649.47 3644.82) rotate(177.23)" xlink:href="#Degradado_sin_nombre_14"></linearGradient><linearGradient id="Degradado_sin_nombre_14-115" x1="-3851.09" y1="3439.03" x2="-3850.05" y2="3437.99" gradientTransform="translate(-3649.47 3644.82) rotate(177.23)" xlink:href="#Degradado_sin_nombre_14"></linearGradient><linearGradient id="Degradado_sin_nombre_14-116" x1="-3851.09" y1="3439.13" x2="-3850.05" y2="3438.09" gradientTransform="translate(-3649.47 3644.82) rotate(177.23)" xlink:href="#Degradado_sin_nombre_14"></linearGradient><linearGradient id="Degradado_sin_nombre_14-117" x1="-3851.09" y1="3439.24" x2="-3850.05" y2="3438.2" gradientTransform="translate(-3649.47 3644.82) rotate(177.23)" xlink:href="#Degradado_sin_nombre_14"></linearGradient><linearGradient id="Degradado_sin_nombre_14-118" x1="-3851.09" y1="3439.34" x2="-3850.05" y2="3438.3" gradientTransform="translate(-3649.47 3644.82) rotate(177.23)" xlink:href="#Degradado_sin_nombre_14"></linearGradient><linearGradient id="Degradado_sin_nombre_14-119" x1="-3851.09" y1="3439.44" x2="-3850.05" y2="3438.4" gradientTransform="translate(-3649.47 3644.82) rotate(177.23)" xlink:href="#Degradado_sin_nombre_14"></linearGradient><linearGradient id="Degradado_sin_nombre_14-120" x1="-3851.09" y1="3439.54" x2="-3850.05" y2="3438.5" gradientTransform="translate(-3649.47 3644.82) rotate(177.23)" xlink:href="#Degradado_sin_nombre_14"></linearGradient><linearGradient id="Degradado_sin_nombre_14-121" x1="-3851.09" y1="3439.65" x2="-3850.05" y2="3438.61" gradientTransform="translate(-3649.47 3644.82) rotate(177.23)" xlink:href="#Degradado_sin_nombre_14"></linearGradient><linearGradient id="Degradado_sin_nombre_14-122" x1="-3851.1" y1="3439.74" x2="-3850.06" y2="3438.7" gradientTransform="translate(-3649.47 3644.82) rotate(177.23)" xlink:href="#Degradado_sin_nombre_14"></linearGradient><linearGradient id="Degradado_sin_nombre_14-123" x1="-3851.12" y1="3439.83" x2="-3850.09" y2="3438.8" gradientTransform="translate(-3649.47 3644.82) rotate(177.23)" xlink:href="#Degradado_sin_nombre_14"></linearGradient><linearGradient id="Degradado_sin_nombre_14-124" x1="-3851.13" y1="3439.92" x2="-3850.11" y2="3438.9" gradientTransform="translate(-3649.47 3644.82) rotate(177.23)" xlink:href="#Degradado_sin_nombre_14"></linearGradient><linearGradient id="Degradado_sin_nombre_14-125" x1="-3851.14" y1="3440.01" x2="-3850.13" y2="3439" gradientTransform="translate(-3649.47 3644.82) rotate(177.23)" xlink:href="#Degradado_sin_nombre_14"></linearGradient><linearGradient id="Degradado_sin_nombre_14-126" x1="-3851.15" y1="3440.1" x2="-3850.15" y2="3439.1" gradientTransform="translate(-3649.47 3644.82) rotate(177.23)" xlink:href="#Degradado_sin_nombre_14"></linearGradient><linearGradient id="Degradado_sin_nombre_14-127" x1="-3851.17" y1="3440.19" x2="-3850.18" y2="3439.2" gradientTransform="translate(-3649.47 3644.82) rotate(177.23)" xlink:href="#Degradado_sin_nombre_14"></linearGradient><linearGradient id="Degradado_sin_nombre_14-128" x1="-3851.19" y1="3440.27" x2="-3850.21" y2="3439.29" gradientTransform="translate(-3649.47 3644.82) rotate(177.23)" xlink:href="#Degradado_sin_nombre_14"></linearGradient><linearGradient id="Degradado_sin_nombre_14-129" x1="-3851.24" y1="3440.32" x2="-3850.31" y2="3439.38" gradientTransform="translate(-3649.47 3644.82) rotate(177.23)" xlink:href="#Degradado_sin_nombre_14"></linearGradient><linearGradient id="Degradado_sin_nombre_14-130" x1="-3851.33" y1="3440.33" x2="-3850.47" y2="3439.47" gradientTransform="translate(-3649.47 3644.82) rotate(177.23)" xlink:href="#Degradado_sin_nombre_14"></linearGradient><linearGradient id="Degradado_sin_nombre_14-131" x1="-3851.42" y1="3440.34" x2="-3850.63" y2="3439.56" gradientTransform="translate(-3649.47 3644.82) rotate(177.23)" xlink:href="#Degradado_sin_nombre_14"></linearGradient><linearGradient id="Degradado_sin_nombre_14-132" x1="-3851.91" y1="3440.75" x2="-3850.8" y2="3439.65" gradientTransform="translate(-3649.47 3644.82) rotate(177.23)" xlink:href="#Degradado_sin_nombre_14"></linearGradient><linearGradient id="Degradado_sin_nombre_12" x1="11.51" y1="24.59" x2="21.27" y2="14.82" gradientUnits="userSpaceOnUse"><stop offset="0" stop-color="#4f54b7" stop-opacity="0"></stop><stop offset="0.02" stop-color="#4f54b7" stop-opacity="0.02"></stop><stop offset="0.37" stop-color="#4f54b7" stop-opacity="0.44"></stop><stop offset="0.67" stop-color="#4f54b7" stop-opacity="0.74"></stop><stop offset="0.88" stop-color="#4f54b7" stop-opacity="0.93"></stop><stop offset="1" stop-color="#4f54b7"></stop></linearGradient></defs><path class="cls-1" d="M22.54,6.88,17.66,18.49a4.35,4.35,0,0,1-4,2.62H9.78a1.48,1.48,0,1,1-.5-1.1L19,11l1.79-4.11h-16l-1.79,4h8.75v-.11a1.48,1.48,0,1,1,1.47,1.48,1.44,1.44,0,0,1-1-.42L3.87,19.53A7.58,7.58,0,0,0,.73,24.31l-.23.81H13.72A8.37,8.37,0,0,0,21.43,20L27,6.88Z"></path><g class="cls-5"><rect class="cls-1" x="0.52" y="6.86" width="26.43" height="18.27"></rect><path class="cls-1" d="M4.33,5.31h0A1.11,1.11,0,0,1,5.43,6.42V8.1a1,1,0,0,1-1,1h-.2a1,1,0,0,1-1-1V6.42A1.11,1.11,0,0,1,4.33,5.31Z" transform="translate(11.12 12.16) rotate(157.05)"></path><g class="cls-6"><polygon class="cls-1" points="5.89 5.55 4.61 5.03 5.89 5.03 5.89 5.55"></polygon><polygon class="cls-1" points="5.89 5.66 4.35 5.03 4.61 5.03 5.89 5.55 5.89 5.66"></polygon><polygon class="cls-1" points="5.89 5.76 4.1 5.03 4.35 5.03 5.89 5.66 5.89 5.76"></polygon><polygon class="cls-1" points="5.89 5.86 3.85 5.03 4.1 5.03 5.89 5.76 5.89 5.86"></polygon><polygon class="cls-1" points="5.89 5.96 3.6 5.03 3.85 5.03 5.89 5.86 5.89 5.96"></polygon><polygon class="cls-1" points="5.89 6.07 3.34 5.03 3.6 5.03 5.89 5.96 5.89 6.07"></polygon><polygon class="cls-1" points="5.89 6.17 3.09 5.03 3.34 5.03 5.89 6.07 5.89 6.17"></polygon><polygon class="cls-1" points="5.89 6.27 2.84 5.03 3.09 5.03 5.89 6.17 5.89 6.27"></polygon><polygon class="cls-1" points="5.89 6.37 2.67 5.07 2.69 5.03 2.84 5.03 5.89 6.27 5.89 6.37"></polygon><polygon class="cls-1" points="5.89 6.47 2.64 5.16 2.67 5.07 5.89 6.37 5.89 6.47"></polygon><polygon class="cls-1" points="5.89 6.58 2.6 5.24 2.64 5.16 5.89 6.47 5.89 6.58"></polygon><polygon class="cls-1" points="5.89 6.68 2.57 5.33 2.6 5.24 5.89 6.58 5.89 6.68"></polygon><polygon class="cls-1" points="5.89 6.78 2.57 5.43 2.57 5.33 2.57 5.33 5.89 6.68 5.89 6.78"></polygon><polygon class="cls-1" points="5.89 6.88 2.57 5.54 2.57 5.43 5.89 6.78 5.89 6.88"></polygon><polygon class="cls-1" points="5.89 6.99 2.57 5.64 2.57 5.54 5.89 6.88 5.89 6.99"></polygon><polygon class="cls-1" points="5.89 7.09 2.57 5.74 2.57 5.64 5.89 6.99 5.89 7.09"></polygon><polygon class="cls-1" points="5.89 7.19 2.57 5.84 2.57 5.74 5.89 7.09 5.89 7.19"></polygon><polygon class="cls-1" points="5.89 7.29 2.57 5.95 2.57 5.84 5.89 7.19 5.89 7.29"></polygon><polygon class="cls-1" points="5.89 7.4 2.57 6.05 2.57 5.95 5.89 7.29 5.89 7.4"></polygon><polygon class="cls-1" points="5.89 7.5 2.57 6.15 2.57 6.05 5.89 7.4 5.89 7.5"></polygon><polygon class="cls-1" points="5.89 7.6 2.57 6.25 2.57 6.15 5.89 7.5 5.89 7.6"></polygon><polygon class="cls-1" points="5.89 7.7 2.57 6.36 2.57 6.25 5.89 7.6 5.89 7.7"></polygon><polygon class="cls-1" points="5.89 7.81 2.57 6.46 2.57 6.36 5.89 7.7 5.89 7.81"></polygon><polygon class="cls-1" points="5.89 7.91 2.57 6.56 2.57 6.46 5.89 7.81 5.89 7.91"></polygon><polygon class="cls-1" points="5.89 8.01 2.57 6.66 2.57 6.56 5.89 7.91 5.89 8.01"></polygon><polygon class="cls-1" points="5.89 8.11 2.57 6.76 2.57 6.66 5.89 8.01 5.89 8.11"></polygon><polygon class="cls-1" points="5.89 8.22 2.57 6.87 2.57 6.76 5.89 8.11 5.89 8.22"></polygon><polygon class="cls-1" points="5.89 8.32 2.57 6.97 2.57 6.87 5.89 8.22 5.89 8.32"></polygon><polygon class="cls-1" points="5.89 8.42 2.57 7.07 2.57 6.97 5.89 8.32 5.89 8.42"></polygon><polygon class="cls-1" points="5.89 8.52 2.57 7.17 2.57 7.07 5.89 8.42 5.89 8.52"></polygon><polygon class="cls-1" points="5.89 8.63 2.57 7.28 2.57 7.17 5.89 8.52 5.89 8.63"></polygon><polygon class="cls-1" points="5.89 8.64 5.86 8.71 2.57 7.38 2.57 7.28 5.89 8.63 5.89 8.64"></polygon><polygon class="cls-1" points="5.86 8.71 5.83 8.8 2.57 7.48 2.57 7.38 5.86 8.71"></polygon><polygon class="cls-1" points="5.83 8.8 5.79 8.89 2.57 7.58 2.57 7.48 5.83 8.8"></polygon><polygon class="cls-1" points="5.79 8.89 5.76 8.98 2.57 7.69 2.57 7.58 5.79 8.89"></polygon><polygon class="cls-1" points="5.76 8.98 5.72 9.07 2.57 7.79 2.57 7.69 5.76 8.98"></polygon><polygon class="cls-1" points="5.72 9.07 5.68 9.15 2.57 7.89 2.57 7.79 5.72 9.07"></polygon><polygon class="cls-1" points="5.68 9.15 5.67 9.2 5.54 9.2 2.57 7.99 2.57 7.89 5.68 9.15"></polygon><polygon class="cls-1" points="5.29 9.2 2.57 8.1 2.57 7.99 5.54 9.2 5.29 9.2"></polygon><polygon class="cls-1" points="5.04 9.2 2.57 8.2 2.57 8.1 5.29 9.2 5.04 9.2"></polygon><polygon class="cls-1" points="4.78 9.2 2.57 8.3 2.57 8.2 5.04 9.2 4.78 9.2"></polygon><polygon class="cls-1" points="2.57 8.3 4.78 9.2 2.57 9.2 2.57 8.3"></polygon></g></g><path class="cls-1" d="M17.9,25.12H29.81l1.69-4H21.9A9.15,9.15,0,0,1,17.9,25.12Z"></path><g class="cls-7"><rect class="cls-1" x="14.21" y="17.32" width="26.47" height="18.24"></rect><g class="cls-8"><polygon class="cls-1" points="14.21 31.74 18.02 35.56 17.48 35.56 14.21 32.29 14.21 31.74"></polygon><polygon class="cls-1" points="14.21 31.2 18.57 35.56 18.02 35.56 14.21 31.74 14.21 31.2"></polygon><polygon class="cls-1" points="14.21 30.65 19.11 35.56 18.57 35.56 14.21 31.2 14.21 30.65"></polygon><polygon class="cls-1" points="14.21 30.11 19.66 35.56 19.11 35.56 14.21 30.65 14.21 30.11"></polygon><polygon class="cls-1" points="14.21 29.56 20.2 35.56 19.66 35.56 14.21 30.11 14.21 29.56"></polygon><polygon class="cls-1" points="14.21 29.02 20.75 35.56 20.2 35.56 14.21 29.56 14.21 29.02"></polygon><polygon class="cls-1" points="14.21 28.47 21.3 35.56 20.75 35.56 14.21 29.02 14.21 28.47"></polygon><polygon class="cls-1" points="14.21 27.93 21.84 35.56 21.3 35.56 14.21 28.47 14.21 27.93"></polygon><polygon class="cls-1" points="14.21 27.38 22.39 35.56 21.84 35.56 14.21 27.93 14.21 27.38"></polygon><polygon class="cls-1" points="14.21 26.84 22.93 35.56 22.39 35.56 14.21 27.38 14.21 26.84"></polygon><polygon class="cls-1" points="14.21 26.29 23.48 35.56 22.93 35.56 14.21 26.84 14.21 26.29"></polygon><polygon class="cls-1" points="14.21 25.75 24.02 35.56 23.48 35.56 14.21 26.29 14.21 25.75"></polygon><polygon class="cls-1" points="14.21 25.2 24.57 35.56 24.02 35.56 14.21 25.75 14.21 25.2"></polygon><polygon class="cls-1" points="14.21 24.66 25.11 35.56 24.57 35.56 14.21 25.2 14.21 24.66"></polygon><polygon class="cls-1" points="14.21 24.11 25.66 35.56 25.11 35.56 14.21 24.66 14.21 24.11"></polygon><polygon class="cls-1" points="14.21 23.57 26.2 35.56 25.66 35.56 14.21 24.11 14.21 23.57"></polygon><polygon class="cls-1" points="14.21 23.02 26.75 35.56 26.2 35.56 14.21 23.57 14.21 23.02"></polygon><polygon class="cls-1" points="14.21 22.47 27.29 35.56 26.75 35.56 14.21 23.02 14.21 22.47"></polygon><polygon class="cls-1" points="14.21 21.93 27.84 35.56 27.29 35.56 14.21 22.47 14.21 21.93"></polygon><polygon class="cls-1" points="14.21 21.38 28.38 35.56 27.84 35.56 14.21 21.93 14.21 21.38"></polygon><polygon class="cls-1" points="14.21 20.84 28.93 35.56 28.38 35.56 14.21 21.38 14.21 20.84"></polygon><polygon class="cls-1" points="14.21 20.29 29.47 35.56 28.93 35.56 14.21 20.84 14.21 20.29"></polygon><polygon class="cls-1" points="14.21 19.75 30.02 35.56 29.47 35.56 14.21 20.29 14.21 19.75"></polygon><polygon class="cls-1" points="14.21 19.2 30.56 35.56 30.02 35.56 14.21 19.75 14.21 19.2"></polygon><polygon class="cls-1" points="14.21 18.66 31.11 35.56 30.56 35.56 14.21 19.2 14.21 18.66"></polygon><polygon class="cls-1" points="14.21 18.11 31.65 35.56 31.11 35.56 14.21 18.66 14.21 18.11"></polygon><polygon class="cls-1" points="14.21 17.57 32.2 35.56 31.65 35.56 14.21 18.11 14.21 17.57"></polygon><polygon class="cls-1" points="14.5 17.32 32.74 35.56 32.2 35.56 14.21 17.57 14.21 17.32 14.5 17.32"></polygon><polygon class="cls-1" points="15.05 17.32 33.29 35.56 32.74 35.56 14.5 17.32 15.05 17.32"></polygon><polygon class="cls-1" points="15.59 17.32 33.84 35.56 33.29 35.56 15.05 17.32 15.59 17.32"></polygon><polygon class="cls-1" points="16.14 17.32 34.38 35.56 33.84 35.56 15.59 17.32 16.14 17.32"></polygon><polygon class="cls-1" points="16.68 17.32 34.93 35.56 34.38 35.56 16.14 17.32 16.68 17.32"></polygon><polygon class="cls-1" points="17.23 17.32 35.47 35.56 34.93 35.56 16.68 17.32 17.23 17.32"></polygon><polygon class="cls-1" points="17.77 17.32 36.02 35.56 35.47 35.56 17.23 17.32 17.77 17.32"></polygon><polygon class="cls-1" points="18.32 17.32 36.56 35.56 36.02 35.56 17.77 17.32 18.32 17.32"></polygon><polygon class="cls-1" points="18.86 17.32 37.11 35.56 36.56 35.56 18.32 17.32 18.86 17.32"></polygon><polygon class="cls-1" points="19.41 17.32 37.65 35.56 37.11 35.56 18.86 17.32 19.41 17.32"></polygon><polygon class="cls-1" points="19.95 17.32 38.2 35.56 37.65 35.56 19.41 17.32 19.95 17.32"></polygon><polygon class="cls-1" points="20.5 17.32 38.74 35.56 38.2 35.56 19.95 17.32 20.5 17.32"></polygon><polygon class="cls-1" points="21.05 17.32 39.29 35.56 38.74 35.56 20.5 17.32 21.05 17.32"></polygon><polygon class="cls-1" points="21.59 17.32 39.83 35.56 39.29 35.56 21.05 17.32 21.59 17.32"></polygon><polygon class="cls-1" points="22.14 17.32 40.38 35.56 39.83 35.56 21.59 17.32 22.14 17.32"></polygon><polygon class="cls-1" points="22.68 17.32 40.67 35.31 40.67 35.56 40.38 35.56 22.14 17.32 22.68 17.32"></polygon><polygon class="cls-1" points="23.23 17.32 40.67 34.77 40.67 35.31 22.68 17.32 23.23 17.32"></polygon><polygon class="cls-1" points="23.77 17.32 40.67 34.22 40.67 34.77 23.23 17.32 23.77 17.32"></polygon><polygon class="cls-1" points="24.32 17.32 40.67 33.67 40.67 34.22 23.77 17.32 24.32 17.32"></polygon><polygon class="cls-1" points="24.86 17.32 40.67 33.13 40.67 33.67 24.32 17.32 24.86 17.32"></polygon><polygon class="cls-1" points="25.41 17.32 40.67 32.58 40.67 33.13 24.86 17.32 25.41 17.32"></polygon><polygon class="cls-1" points="25.95 17.32 40.67 32.04 40.67 32.58 25.41 17.32 25.95 17.32"></polygon><polygon class="cls-1" points="26.5 17.32 40.67 31.49 40.67 32.04 25.95 17.32 26.5 17.32"></polygon><polygon class="cls-1" points="27.04 17.32 40.67 30.95 40.67 31.49 26.5 17.32 27.04 17.32"></polygon><polygon class="cls-1" points="27.59 17.32 40.67 30.4 40.67 30.95 27.04 17.32 27.59 17.32"></polygon><polygon class="cls-1" points="28.13 17.32 40.67 29.86 40.67 30.4 27.59 17.32 28.13 17.32"></polygon><polygon class="cls-1" points="28.68 17.32 40.67 29.31 40.67 29.86 28.13 17.32 28.68 17.32"></polygon><polygon class="cls-1" points="29.22 17.32 40.67 28.77 40.67 29.31 28.68 17.32 29.22 17.32"></polygon><polygon class="cls-1" points="29.77 17.32 40.67 28.22 40.67 28.77 29.22 17.32 29.77 17.32"></polygon><polygon class="cls-1" points="30.31 17.32 40.67 27.68 40.67 28.22 29.77 17.32 30.31 17.32"></polygon><polygon class="cls-1" points="30.86 17.32 40.67 27.13 40.67 27.68 30.31 17.32 30.86 17.32"></polygon><polygon class="cls-1" points="31.41 17.32 40.67 26.59 40.67 27.13 30.86 17.32 31.41 17.32"></polygon><polygon class="cls-1" points="31.95 17.32 40.67 26.04 40.67 26.59 31.41 17.32 31.95 17.32"></polygon><polygon class="cls-1" points="32.49 17.32 40.67 25.5 40.67 26.04 31.95 17.32 32.49 17.32"></polygon></g><path class="cls-1" d="M29.29,24h1.48a0,0,0,0,1,0,0v2.11a0,0,0,0,1,0,0H27.18a0,0,0,0,1,0,0v0A2.11,2.11,0,0,1,29.29,24Z"></path><g class="cls-9"><polygon class="cls-1" points="27.18 26.07 27.18 26.07 27.18 23.96 30.76 23.96 30.76 26.07 27.18 26.07"></polygon><path class="cls-1" d="M27.18,25.93l.14.14Z"></path><polygon class="cls-1" points="27.18 25.79 27.46 26.07 27.32 26.07 27.18 25.93 27.18 25.79"></polygon><polygon class="cls-1" points="27.18 25.64 27.6 26.07 27.46 26.07 27.18 25.79 27.18 25.64"></polygon><polygon class="cls-1" points="27.18 25.5 27.75 26.07 27.6 26.07 27.18 25.64 27.18 25.5"></polygon><polygon class="cls-1" points="27.18 25.36 27.89 26.07 27.75 26.07 27.18 25.5 27.18 25.36"></polygon><polygon class="cls-1" points="27.18 25.22 28.03 26.07 27.89 26.07 27.18 25.36 27.18 25.22"></polygon><polygon class="cls-1" points="27.18 25.07 28.17 26.07 28.03 26.07 27.18 25.22 27.18 25.07"></polygon><polygon class="cls-1" points="27.18 24.93 28.32 26.07 28.17 26.07 27.18 25.07 27.18 24.93"></polygon><polygon class="cls-1" points="27.18 24.79 28.46 26.07 28.32 26.07 27.18 24.93 27.18 24.79"></polygon><polygon class="cls-1" points="27.18 24.65 28.6 26.07 28.46 26.07 27.18 24.79 27.18 24.65"></polygon><polygon class="cls-1" points="27.18 24.5 28.74 26.07 28.6 26.07 27.18 24.65 27.18 24.5"></polygon><polygon class="cls-1" points="27.18 24.36 28.89 26.07 28.74 26.07 27.18 24.5 27.18 24.36"></polygon><polygon class="cls-1" points="27.18 24.34 27.24 24.28 29.03 26.07 28.89 26.07 27.18 24.36 27.18 24.34"></polygon><polygon class="cls-1" points="27.24 24.28 27.31 24.21 29.17 26.07 29.03 26.07 27.24 24.28"></polygon><polygon class="cls-1" points="27.31 24.21 27.38 24.14 29.31 26.07 29.17 26.07 27.31 24.21"></polygon><polygon class="cls-1" points="27.38 24.14 27.45 24.07 29.45 26.07 29.31 26.07 27.38 24.14"></polygon><polygon class="cls-1" points="27.45 24.07 27.52 24 29.6 26.07 29.45 26.07 27.45 24.07"></polygon><polygon class="cls-1" points="27.52 24 27.56 23.96 27.63 23.96 29.74 26.07 29.6 26.07 27.52 24"></polygon><polygon class="cls-1" points="27.77 23.96 29.88 26.07 29.74 26.07 27.63 23.96 27.77 23.96"></polygon><polygon class="cls-1" points="27.91 23.96 30.02 26.07 29.88 26.07 27.77 23.96 27.91 23.96"></polygon><polygon class="cls-1" points="28.06 23.96 30.17 26.07 30.02 26.07 27.91 23.96 28.06 23.96"></polygon><polygon class="cls-1" points="28.2 23.96 30.31 26.07 30.17 26.07 28.06 23.96 28.2 23.96"></polygon><polygon class="cls-1" points="28.34 23.96 30.45 26.07 30.31 26.07 28.2 23.96 28.34 23.96"></polygon><polygon class="cls-1" points="28.48 23.96 30.59 26.07 30.45 26.07 28.34 23.96 28.48 23.96"></polygon><polygon class="cls-1" points="28.63 23.96 30.74 26.07 30.59 26.07 28.48 23.96 28.63 23.96"></polygon><polygon class="cls-1" points="28.77 23.96 30.76 25.95 30.76 26.07 30.74 26.07 28.63 23.96 28.77 23.96"></polygon><polygon class="cls-1" points="28.91 23.96 30.76 25.81 30.76 25.95 28.77 23.96 28.91 23.96"></polygon><polygon class="cls-1" points="29.05 23.96 30.76 25.67 30.76 25.81 28.91 23.96 29.05 23.96"></polygon><polygon class="cls-1" points="29.2 23.96 30.76 25.53 30.76 25.67 29.05 23.96 29.2 23.96"></polygon><polygon class="cls-1" points="29.34 23.96 30.76 25.38 30.76 25.53 29.2 23.96 29.34 23.96"></polygon><polygon class="cls-1" points="29.48 23.96 30.76 25.24 30.76 25.38 29.34 23.96 29.48 23.96"></polygon><polygon class="cls-1" points="29.62 23.96 30.76 25.1 30.76 25.24 29.48 23.96 29.62 23.96"></polygon><polygon class="cls-1" points="29.77 23.96 30.76 24.96 30.76 25.1 29.62 23.96 29.77 23.96"></polygon><polygon class="cls-1" points="29.91 23.96 30.76 24.82 30.76 24.96 29.77 23.96 29.91 23.96"></polygon><polygon class="cls-1" points="30.05 23.96 30.76 24.67 30.76 24.82 29.91 23.96 30.05 23.96"></polygon><polygon class="cls-1" points="30.19 23.96 30.76 24.53 30.76 24.67 30.05 23.96 30.19 23.96"></polygon><polygon class="cls-1" points="30.34 23.96 30.76 24.39 30.76 24.53 30.19 23.96 30.34 23.96"></polygon><polygon class="cls-1" points="30.48 23.96 30.76 24.25 30.76 24.39 30.34 23.96 30.48 23.96"></polygon><polygon class="cls-1" points="30.62 23.96 30.76 24.1 30.76 24.25 30.48 23.96 30.62 23.96"></polygon><polygon class="cls-1" points="30.76 23.96 30.76 23.96 30.76 24.1 30.62 23.96 30.76 23.96"></polygon></g><path class="cls-1" d="M31.13,20.9h0A1.11,1.11,0,0,1,32.24,22V24.7a0,0,0,0,1,0,0H30a0,0,0,0,1,0,0V22A1.11,1.11,0,0,1,31.13,20.9Z" transform="translate(-4.42 7.79) rotate(-13.33)"></path><g class="cls-10"><polygon class="cls-1" points="29.73 24.43 30.49 24.9 29.73 24.9 29.73 24.43"></polygon><polygon class="cls-1" points="29.73 24.32 30.67 24.9 30.49 24.9 29.73 24.43 29.73 24.32"></polygon><polygon class="cls-1" points="29.73 24.21 30.85 24.9 30.67 24.9 29.73 24.32 29.73 24.21"></polygon><polygon class="cls-1" points="29.73 24.1 31.03 24.9 30.85 24.9 29.73 24.21 29.73 24.1"></polygon><polygon class="cls-1" points="29.73 23.99 31.21 24.9 31.03 24.9 29.73 24.1 29.73 23.99"></polygon><polygon class="cls-1" points="29.73 23.88 31.39 24.9 31.21 24.9 29.73 23.99 29.73 23.88"></polygon><polygon class="cls-1" points="29.73 23.76 31.58 24.9 31.39 24.9 29.73 23.88 29.73 23.76"></polygon><polygon class="cls-1" points="29.73 23.65 31.76 24.9 31.58 24.9 29.73 23.76 29.73 23.65"></polygon><polygon class="cls-1" points="29.73 23.54 31.94 24.9 31.76 24.9 29.73 23.65 29.73 23.54"></polygon><polygon class="cls-1" points="29.73 23.43 32.12 24.9 31.94 24.9 29.73 23.54 29.73 23.43"></polygon><polygon class="cls-1" points="29.73 23.32 32.3 24.9 32.12 24.9 29.73 23.43 29.73 23.32"></polygon><polygon class="cls-1" points="29.73 23.21 32.48 24.9 32.3 24.9 29.73 23.32 29.73 23.21"></polygon><polygon class="cls-1" points="29.73 23.09 32.6 24.87 32.58 24.9 32.48 24.9 29.73 23.21 29.73 23.09"></polygon><polygon class="cls-1" points="29.73 22.98 32.65 24.78 32.65 24.79 32.6 24.87 29.73 23.09 29.73 22.98"></polygon><polygon class="cls-1" points="29.73 22.87 32.65 24.67 32.65 24.78 29.73 22.98 29.73 22.87"></polygon><polygon class="cls-1" points="29.73 22.76 32.65 24.56 32.65 24.67 29.73 22.87 29.73 22.76"></polygon><polygon class="cls-1" points="29.73 22.65 32.65 24.45 32.65 24.56 29.73 22.76 29.73 22.65"></polygon><polygon class="cls-1" points="29.73 22.54 32.65 24.34 32.65 24.45 29.73 22.65 29.73 22.54"></polygon><polygon class="cls-1" points="29.73 22.43 32.65 24.23 32.65 24.34 29.73 22.54 29.73 22.43"></polygon><polygon class="cls-1" points="29.73 22.31 32.65 24.11 32.65 24.23 29.73 22.43 29.73 22.31"></polygon><polygon class="cls-1" points="29.73 22.2 32.65 24 32.65 24.11 29.73 22.31 29.73 22.2"></polygon><polygon class="cls-1" points="29.73 22.09 32.65 23.89 32.65 24 29.73 22.2 29.73 22.09"></polygon><polygon class="cls-1" points="29.73 21.98 32.65 23.78 32.65 23.89 29.73 22.09 29.73 21.98"></polygon><polygon class="cls-1" points="29.73 21.87 32.65 23.67 32.65 23.78 29.73 21.98 29.73 21.87"></polygon><polygon class="cls-1" points="29.73 21.76 32.65 23.56 32.65 23.67 29.73 21.87 29.73 21.76"></polygon><polygon class="cls-1" points="29.73 21.64 32.65 23.45 32.65 23.56 29.73 21.76 29.73 21.64"></polygon><polygon class="cls-1" points="29.73 21.53 32.65 23.33 32.65 23.45 29.73 21.64 29.73 21.53"></polygon><polygon class="cls-1" points="29.73 21.42 32.65 23.22 32.65 23.33 29.73 21.53 29.73 21.42"></polygon><polygon class="cls-1" points="29.73 21.31 32.65 23.11 32.65 23.22 29.73 21.42 29.73 21.31"></polygon><polygon class="cls-1" points="29.73 21.29 29.77 21.22 32.65 23 32.65 23.11 29.73 21.31 29.73 21.29"></polygon><polygon class="cls-1" points="29.77 21.22 29.82 21.14 32.65 22.89 32.65 23 29.77 21.22"></polygon><polygon class="cls-1" points="29.82 21.14 29.87 21.06 32.65 22.78 32.65 22.89 29.82 21.14"></polygon><polygon class="cls-1" points="29.87 21.06 29.92 20.98 32.65 22.66 32.65 22.78 29.87 21.06"></polygon><polygon class="cls-1" points="29.92 20.98 29.97 20.9 32.65 22.55 32.65 22.66 29.92 20.98"></polygon><polygon class="cls-1" points="29.97 20.9 30.02 20.82 32.65 22.44 32.65 22.55 29.97 20.9"></polygon><polygon class="cls-1" points="30.02 20.82 30.02 20.81 30.19 20.81 32.65 22.33 32.65 22.44 30.02 20.82"></polygon><polygon class="cls-1" points="30.37 20.81 32.65 22.22 32.65 22.33 30.19 20.81 30.37 20.81"></polygon><polygon class="cls-1" points="30.55 20.81 32.65 22.11 32.65 22.22 30.37 20.81 30.55 20.81"></polygon><polygon class="cls-1" points="30.73 20.81 32.65 22 32.65 22.11 30.55 20.81 30.73 20.81"></polygon><polygon class="cls-1" points="30.91 20.81 32.65 21.88 32.65 22 30.73 20.81 30.91 20.81"></polygon><polygon class="cls-1" points="31.09 20.81 32.65 21.77 32.65 21.88 30.91 20.81 31.09 20.81"></polygon><polygon class="cls-1" points="32.65 21.77 31.09 20.81 32.65 20.81 32.65 21.77"></polygon></g><rect class="cls-1" x="8.86" y="11.96" width="26.43" height="18.27"></rect><path class="cls-1" d="M29.19,23.6h0a1.11,1.11,0,0,1,1.11,1.11V26.4a1,1,0,0,1-1,1h-.2a1,1,0,0,1-1-1V24.71A1.11,1.11,0,0,1,29.19,23.6Z" transform="matrix(-0.06, 1, -1, -0.06, 56.54, -1.98)"></path><g class="cls-11"><polygon class="cls-1" points="28.42 23.36 27.37 24.27 27.95 23.12 28.42 23.36"></polygon><polygon class="cls-1" points="28.51 23.4 27.26 24.5 27.37 24.27 28.42 23.36 28.51 23.4"></polygon><polygon class="cls-1" points="28.6 23.45 27.14 24.73 27.26 24.5 28.51 23.4 28.6 23.45"></polygon><polygon class="cls-1" points="28.69 23.5 27.03 24.95 27.14 24.73 28.6 23.45 28.69 23.5"></polygon><polygon class="cls-1" points="28.78 23.54 26.92 25.18 27.03 24.95 28.69 23.5 28.78 23.54"></polygon><polygon class="cls-1" points="28.87 23.59 26.8 25.4 26.92 25.18 28.78 23.54 28.87 23.59"></polygon><polygon class="cls-1" points="28.97 23.63 26.69 25.63 26.8 25.4 28.87 23.59 28.97 23.63"></polygon><polygon class="cls-1" points="29.06 23.68 26.58 25.86 26.69 25.63 28.97 23.63 29.06 23.68"></polygon><polygon class="cls-1" points="29.15 23.73 26.54 26.02 26.51 25.99 26.58 25.86 29.06 23.68 29.15 23.73"></polygon><polygon class="cls-1" points="29.24 23.77 26.6 26.09 26.54 26.02 29.15 23.73 29.24 23.77"></polygon><polygon class="cls-1" points="29.33 23.82 26.66 26.16 26.6 26.09 29.24 23.77 29.33 23.82"></polygon><polygon class="cls-1" points="29.42 23.86 26.73 26.23 26.66 26.16 29.33 23.82 29.42 23.86"></polygon><polygon class="cls-1" points="29.52 23.91 26.82 26.28 26.73 26.23 26.73 26.23 29.42 23.86 29.52 23.91"></polygon><polygon class="cls-1" points="29.61 23.95 26.91 26.32 26.82 26.28 29.52 23.91 29.61 23.95"></polygon><polygon class="cls-1" points="29.7 24 27 26.37 26.91 26.32 29.61 23.95 29.7 24"></polygon><polygon class="cls-1" points="29.79 24.05 27.09 26.41 27 26.37 29.7 24 29.79 24.05"></polygon><polygon class="cls-1" points="29.88 24.09 27.18 26.46 27.09 26.41 29.79 24.05 29.88 24.09"></polygon><polygon class="cls-1" points="29.97 24.14 27.27 26.51 27.18 26.46 29.88 24.09 29.97 24.14"></polygon><polygon class="cls-1" points="30.06 24.18 27.37 26.55 27.27 26.51 29.97 24.14 30.06 24.18"></polygon><polygon class="cls-1" points="30.16 24.23 27.46 26.6 27.37 26.55 30.06 24.18 30.16 24.23"></polygon><polygon class="cls-1" points="30.25 24.28 27.55 26.64 27.46 26.6 30.16 24.23 30.25 24.28"></polygon><polygon class="cls-1" points="30.34 24.32 27.64 26.69 27.55 26.64 30.25 24.28 30.34 24.32"></polygon><polygon class="cls-1" points="30.43 24.37 27.73 26.74 27.64 26.69 30.34 24.32 30.43 24.37"></polygon><polygon class="cls-1" points="30.52 24.41 27.82 26.78 27.73 26.74 30.43 24.37 30.52 24.41"></polygon><polygon class="cls-1" points="30.61 24.46 27.91 26.83 27.82 26.78 30.52 24.41 30.61 24.46"></polygon><polygon class="cls-1" points="30.7 24.51 28.01 26.88 27.91 26.83 30.61 24.46 30.7 24.51"></polygon><polygon class="cls-1" points="30.8 24.55 28.1 26.92 28.01 26.88 30.7 24.51 30.8 24.55"></polygon><polygon class="cls-1" points="30.89 24.6 28.19 26.97 28.1 26.92 30.8 24.55 30.89 24.6"></polygon><polygon class="cls-1" points="30.98 24.64 28.28 27.01 28.19 26.97 30.89 24.6 30.98 24.64"></polygon><polygon class="cls-1" points="31.07 24.69 28.37 27.06 28.28 27.01 30.98 24.64 31.07 24.69"></polygon><polygon class="cls-1" points="31.16 24.74 28.46 27.11 28.37 27.06 31.07 24.69 31.16 24.74"></polygon><polygon class="cls-1" points="31.17 24.74 31.23 24.8 28.55 27.15 28.46 27.11 31.16 24.74 31.17 24.74"></polygon><polygon class="cls-1" points="31.23 24.8 31.29 24.88 28.65 27.2 28.55 27.15 31.23 24.8"></polygon><polygon class="cls-1" points="31.29 24.88 31.35 24.95 28.74 27.24 28.65 27.2 31.29 24.88"></polygon><polygon class="cls-1" points="31.35 24.95 31.42 25.02 28.83 27.29 28.74 27.24 31.35 24.95"></polygon><polygon class="cls-1" points="31.42 25.02 31.48 25.09 28.92 27.33 28.83 27.29 31.42 25.02"></polygon><polygon class="cls-1" points="31.48 25.09 31.54 25.16 29.01 27.38 28.92 27.33 31.48 25.09"></polygon><polygon class="cls-1" points="31.54 25.16 31.57 25.2 31.52 25.31 29.1 27.43 29.01 27.38 31.54 25.16"></polygon><polygon class="cls-1" points="31.4 25.54 29.2 27.47 29.1 27.43 31.52 25.31 31.4 25.54"></polygon><polygon class="cls-1" points="31.29 25.76 29.29 27.52 29.2 27.47 31.4 25.54 31.29 25.76"></polygon><polygon class="cls-1" points="31.18 25.99 29.38 27.56 29.29 27.52 31.29 25.76 31.18 25.99"></polygon><polygon class="cls-1" points="29.38 27.56 31.18 25.99 30.18 27.97 29.38 27.56"></polygon></g><path class="cls-1" d="M30.55,22.64h0a1.11,1.11,0,0,1,1.11,1.11v1.68a1,1,0,0,1-1,1h-.2a1,1,0,0,1-1-1V23.74A1.11,1.11,0,0,1,30.55,22.64Z" transform="translate(-7.62 15.68) rotate(-25.71)"></path><g class="cls-12"><polygon class="cls-1" points="29.06 26.27 30.37 26.72 29.09 26.79 29.06 26.27"></polygon><polygon class="cls-1" points="29.06 26.16 30.63 26.71 30.37 26.72 29.06 26.27 29.06 26.16"></polygon><polygon class="cls-1" points="29.05 26.06 30.88 26.7 30.63 26.71 29.06 26.16 29.05 26.06"></polygon><polygon class="cls-1" points="29.05 25.96 31.13 26.69 30.88 26.7 29.05 26.06 29.05 25.96"></polygon><polygon class="cls-1" points="29.04 25.86 31.38 26.68 31.13 26.69 29.05 25.96 29.04 25.86"></polygon><polygon class="cls-1" points="29.04 25.75 31.64 26.66 31.38 26.68 29.04 25.86 29.04 25.75"></polygon><polygon class="cls-1" points="29.03 25.65 31.89 26.65 31.64 26.66 29.04 25.75 29.03 25.65"></polygon><polygon class="cls-1" points="29.03 25.55 32.14 26.64 31.89 26.65 29.03 25.65 29.03 25.55"></polygon><polygon class="cls-1" points="29.02 25.45 32.3 26.59 32.29 26.63 32.14 26.64 29.03 25.55 29.02 25.45"></polygon><polygon class="cls-1" points="29.02 25.34 32.33 26.5 32.3 26.59 29.02 25.45 29.02 25.34"></polygon><polygon class="cls-1" points="29.01 25.24 32.37 26.41 32.33 26.5 29.02 25.34 29.01 25.24"></polygon><polygon class="cls-1" points="29.01 25.14 32.4 26.33 32.37 26.41 29.01 25.24 29.01 25.14"></polygon><polygon class="cls-1" points="29 25.04 32.39 26.22 32.4 26.32 32.4 26.33 29.01 25.14 29 25.04"></polygon><polygon class="cls-1" points="29 24.93 32.39 26.12 32.39 26.22 29 25.04 29 24.93"></polygon><polygon class="cls-1" points="28.99 24.83 32.38 26.02 32.39 26.12 29 24.93 28.99 24.83"></polygon><polygon class="cls-1" points="28.99 24.73 32.38 25.92 32.38 26.02 28.99 24.83 28.99 24.73"></polygon><polygon class="cls-1" points="28.98 24.63 32.37 25.82 32.38 25.92 28.99 24.73 28.98 24.63"></polygon><polygon class="cls-1" points="28.98 24.53 32.37 25.71 32.37 25.82 28.98 24.63 28.98 24.53"></polygon><polygon class="cls-1" points="28.97 24.42 32.36 25.61 32.37 25.71 28.98 24.53 28.97 24.42"></polygon><polygon class="cls-1" points="28.97 24.32 32.36 25.51 32.36 25.61 28.97 24.42 28.97 24.32"></polygon><polygon class="cls-1" points="28.96 24.22 32.35 25.41 32.36 25.51 28.97 24.32 28.96 24.22"></polygon><polygon class="cls-1" points="28.96 24.12 32.35 25.3 32.35 25.41 28.96 24.22 28.96 24.12"></polygon><polygon class="cls-1" points="28.95 24.02 32.34 25.2 32.35 25.3 28.96 24.12 28.95 24.02"></polygon><polygon class="cls-1" points="28.95 23.91 32.34 25.1 32.34 25.2 28.95 24.02 28.95 23.91"></polygon><polygon class="cls-1" points="28.94 23.81 32.33 25 32.34 25.1 28.95 23.91 28.94 23.81"></polygon><polygon class="cls-1" points="28.94 23.71 32.33 24.89 32.33 25 28.94 23.81 28.94 23.71"></polygon><polygon class="cls-1" points="28.93 23.61 32.32 24.79 32.33 24.89 28.94 23.71 28.93 23.61"></polygon><polygon class="cls-1" points="28.93 23.5 32.32 24.69 32.32 24.79 28.93 23.61 28.93 23.5"></polygon><polygon class="cls-1" points="28.92 23.4 32.31 24.59 32.32 24.69 28.93 23.5 28.92 23.4"></polygon><polygon class="cls-1" points="28.92 23.3 32.31 24.48 32.31 24.59 28.92 23.4 28.92 23.3"></polygon><polygon class="cls-1" points="28.91 23.2 32.3 24.38 32.31 24.48 28.92 23.3 28.91 23.2"></polygon><polygon class="cls-1" points="28.91 23.18 28.94 23.11 32.3 24.28 32.3 24.38 28.91 23.2 28.91 23.18"></polygon><polygon class="cls-1" points="28.94 23.11 28.97 23.02 32.29 24.18 32.3 24.28 28.94 23.11"></polygon><polygon class="cls-1" points="28.97 23.02 29 22.93 32.29 24.08 32.29 24.18 28.97 23.02"></polygon><polygon class="cls-1" points="29 22.93 29.04 22.84 32.28 23.97 32.29 24.08 29 22.93"></polygon><polygon class="cls-1" points="29.04 22.84 29.07 22.75 32.28 23.87 32.28 23.97 29.04 22.84"></polygon><polygon class="cls-1" points="29.07 22.75 29.1 22.66 32.27 23.77 32.28 23.87 29.07 22.75"></polygon><polygon class="cls-1" points="29.1 22.66 29.11 22.61 29.24 22.61 32.27 23.67 32.27 23.77 29.1 22.66"></polygon><polygon class="cls-1" points="29.49 22.59 32.26 23.57 32.27 23.67 29.24 22.61 29.49 22.59"></polygon><polygon class="cls-1" points="29.74 22.58 32.26 23.46 32.26 23.57 29.49 22.59 29.74 22.58"></polygon><polygon class="cls-1" points="30 22.57 32.25 23.36 32.26 23.46 29.74 22.58 30 22.57"></polygon><polygon class="cls-1" points="32.25 23.36 30 22.57 32.21 22.46 32.25 23.36"></polygon></g></g><path class="cls-1" d="M14.39,23.28H10.2v-.74h4.18c3-.23,4.89-3.75,5.91-6.66a.37.37,0,0,1,.35-.25h1.44v.74H20.9c-1.57,4.33-3.81,6.71-6.48,6.9Z"></path><path class="cls-1" d="M22.54,6.88,17.66,18.49a4.35,4.35,0,0,1-4,2.62H9.78a1.48,1.48,0,1,1-.5-1.1L19,11l1.79-4.11h-16l-1.79,4h8.75v-.11a1.48,1.48,0,1,1,1.47,1.48,1.44,1.44,0,0,1-1-.42L3.87,19.53A7.58,7.58,0,0,0,.73,24.31l-.23.81H13.72A8.37,8.37,0,0,0,21.43,20L27,6.88Z"></path><g class="cls-5"><rect class="cls-13" x="0.52" y="6.86" width="26.43" height="18.27"></rect><path class="cls-4" d="M4.33,5.31h0A1.11,1.11,0,0,1,5.43,6.42V8.1a1,1,0,0,1-1,1h-.2a1,1,0,0,1-1-1V6.42A1.11,1.11,0,0,1,4.33,5.31Z" transform="translate(11.12 12.16) rotate(157.05)"></path><g class="cls-14"><polygon class="cls-15" points="5.89 5.55 4.61 5.03 5.89 5.03 5.89 5.55"></polygon><polygon class="cls-16" points="5.89 5.66 4.35 5.03 4.61 5.03 5.89 5.55 5.89 5.66"></polygon><polygon class="cls-17" points="5.89 5.76 4.1 5.03 4.35 5.03 5.89 5.66 5.89 5.76"></polygon><polygon class="cls-18" points="5.89 5.86 3.85 5.03 4.1 5.03 5.89 5.76 5.89 5.86"></polygon><polygon class="cls-19" points="5.89 5.96 3.6 5.03 3.85 5.03 5.89 5.86 5.89 5.96"></polygon><polygon class="cls-20" points="5.89 6.07 3.34 5.03 3.6 5.03 5.89 5.96 5.89 6.07"></polygon><polygon class="cls-21" points="5.89 6.17 3.09 5.03 3.34 5.03 5.89 6.07 5.89 6.17"></polygon><polygon class="cls-22" points="5.89 6.27 2.84 5.03 3.09 5.03 5.89 6.17 5.89 6.27"></polygon><polygon class="cls-23" points="5.89 6.37 2.67 5.07 2.69 5.03 2.84 5.03 5.89 6.27 5.89 6.37"></polygon><polygon class="cls-24" points="5.89 6.47 2.64 5.16 2.67 5.07 5.89 6.37 5.89 6.47"></polygon><polygon class="cls-25" points="5.89 6.58 2.6 5.24 2.64 5.16 5.89 6.47 5.89 6.58"></polygon><polygon class="cls-26" points="5.89 6.68 2.57 5.33 2.6 5.24 5.89 6.58 5.89 6.68"></polygon><polygon class="cls-27" points="5.89 6.78 2.57 5.43 2.57 5.33 2.57 5.33 5.89 6.68 5.89 6.78"></polygon><polygon class="cls-28" points="5.89 6.88 2.57 5.54 2.57 5.43 5.89 6.78 5.89 6.88"></polygon><polygon class="cls-29" points="5.89 6.99 2.57 5.64 2.57 5.54 5.89 6.88 5.89 6.99"></polygon><polygon class="cls-30" points="5.89 7.09 2.57 5.74 2.57 5.64 5.89 6.99 5.89 7.09"></polygon><polygon class="cls-31" points="5.89 7.19 2.57 5.84 2.57 5.74 5.89 7.09 5.89 7.19"></polygon><polygon class="cls-32" points="5.89 7.29 2.57 5.95 2.57 5.84 5.89 7.19 5.89 7.29"></polygon><polygon class="cls-33" points="5.89 7.4 2.57 6.05 2.57 5.95 5.89 7.29 5.89 7.4"></polygon><polygon class="cls-34" points="5.89 7.5 2.57 6.15 2.57 6.05 5.89 7.4 5.89 7.5"></polygon><polygon class="cls-35" points="5.89 7.6 2.57 6.25 2.57 6.15 5.89 7.5 5.89 7.6"></polygon><polygon class="cls-36" points="5.89 7.7 2.57 6.36 2.57 6.25 5.89 7.6 5.89 7.7"></polygon><polygon class="cls-37" points="5.89 7.81 2.57 6.46 2.57 6.36 5.89 7.7 5.89 7.81"></polygon><polygon class="cls-38" points="5.89 7.91 2.57 6.56 2.57 6.46 5.89 7.81 5.89 7.91"></polygon><polygon class="cls-39" points="5.89 8.01 2.57 6.66 2.57 6.56 5.89 7.91 5.89 8.01"></polygon><polygon class="cls-40" points="5.89 8.11 2.57 6.76 2.57 6.66 5.89 8.01 5.89 8.11"></polygon><polygon class="cls-41" points="5.89 8.22 2.57 6.87 2.57 6.76 5.89 8.11 5.89 8.22"></polygon><polygon class="cls-42" points="5.89 8.32 2.57 6.97 2.57 6.87 5.89 8.22 5.89 8.32"></polygon><polygon class="cls-43" points="5.89 8.42 2.57 7.07 2.57 6.97 5.89 8.32 5.89 8.42"></polygon><polygon class="cls-44" points="5.89 8.52 2.57 7.17 2.57 7.07 5.89 8.42 5.89 8.52"></polygon><polygon class="cls-45" points="5.89 8.63 2.57 7.28 2.57 7.17 5.89 8.52 5.89 8.63"></polygon><polygon class="cls-46" points="5.89 8.64 5.86 8.71 2.57 7.38 2.57 7.28 5.89 8.63 5.89 8.64"></polygon><polygon class="cls-47" points="5.86 8.71 5.83 8.8 2.57 7.48 2.57 7.38 5.86 8.71"></polygon><polygon class="cls-48" points="5.83 8.8 5.79 8.89 2.57 7.58 2.57 7.48 5.83 8.8"></polygon><polygon class="cls-49" points="5.79 8.89 5.76 8.98 2.57 7.69 2.57 7.58 5.79 8.89"></polygon><polygon class="cls-50" points="5.76 8.98 5.72 9.07 2.57 7.79 2.57 7.69 5.76 8.98"></polygon><polygon class="cls-51" points="5.72 9.07 5.68 9.15 2.57 7.89 2.57 7.79 5.72 9.07"></polygon><polygon class="cls-52" points="5.68 9.15 5.67 9.2 5.54 9.2 2.57 7.99 2.57 7.89 5.68 9.15"></polygon><polygon class="cls-53" points="5.29 9.2 2.57 8.1 2.57 7.99 5.54 9.2 5.29 9.2"></polygon><polygon class="cls-54" points="5.04 9.2 2.57 8.2 2.57 8.1 5.29 9.2 5.04 9.2"></polygon><polygon class="cls-55" points="4.78 9.2 2.57 8.3 2.57 8.2 5.04 9.2 4.78 9.2"></polygon><polygon class="cls-56" points="2.57 8.3 4.78 9.2 2.57 9.2 2.57 8.3"></polygon></g></g><path class="cls-1" d="M17.9,25.12H29.81l1.69-4H21.9A9.15,9.15,0,0,1,17.9,25.12Z"></path><g class="cls-7"><rect class="cls-1" x="14.21" y="17.32" width="26.47" height="18.24"></rect><g class="cls-8"><polygon class="cls-1" points="14.21 31.74 18.02 35.56 17.48 35.56 14.21 32.29 14.21 31.74"></polygon><polygon class="cls-1" points="14.21 31.2 18.57 35.56 18.02 35.56 14.21 31.74 14.21 31.2"></polygon><polygon class="cls-1" points="14.21 30.65 19.11 35.56 18.57 35.56 14.21 31.2 14.21 30.65"></polygon><polygon class="cls-1" points="14.21 30.11 19.66 35.56 19.11 35.56 14.21 30.65 14.21 30.11"></polygon><polygon class="cls-1" points="14.21 29.56 20.2 35.56 19.66 35.56 14.21 30.11 14.21 29.56"></polygon><polygon class="cls-1" points="14.21 29.02 20.75 35.56 20.2 35.56 14.21 29.56 14.21 29.02"></polygon><polygon class="cls-1" points="14.21 28.47 21.3 35.56 20.75 35.56 14.21 29.02 14.21 28.47"></polygon><polygon class="cls-1" points="14.21 27.93 21.84 35.56 21.3 35.56 14.21 28.47 14.21 27.93"></polygon><polygon class="cls-1" points="14.21 27.38 22.39 35.56 21.84 35.56 14.21 27.93 14.21 27.38"></polygon><polygon class="cls-1" points="14.21 26.84 22.93 35.56 22.39 35.56 14.21 27.38 14.21 26.84"></polygon><polygon class="cls-1" points="14.21 26.29 23.48 35.56 22.93 35.56 14.21 26.84 14.21 26.29"></polygon><polygon class="cls-1" points="14.21 25.75 24.02 35.56 23.48 35.56 14.21 26.29 14.21 25.75"></polygon><polygon class="cls-1" points="14.21 25.2 24.57 35.56 24.02 35.56 14.21 25.75 14.21 25.2"></polygon><polygon class="cls-1" points="14.21 24.66 25.11 35.56 24.57 35.56 14.21 25.2 14.21 24.66"></polygon><polygon class="cls-1" points="14.21 24.11 25.66 35.56 25.11 35.56 14.21 24.66 14.21 24.11"></polygon><polygon class="cls-1" points="14.21 23.57 26.2 35.56 25.66 35.56 14.21 24.11 14.21 23.57"></polygon><polygon class="cls-1" points="14.21 23.02 26.75 35.56 26.2 35.56 14.21 23.57 14.21 23.02"></polygon><polygon class="cls-1" points="14.21 22.47 27.29 35.56 26.75 35.56 14.21 23.02 14.21 22.47"></polygon><polygon class="cls-1" points="14.21 21.93 27.84 35.56 27.29 35.56 14.21 22.47 14.21 21.93"></polygon><polygon class="cls-1" points="14.21 21.38 28.38 35.56 27.84 35.56 14.21 21.93 14.21 21.38"></polygon><polygon class="cls-1" points="14.21 20.84 28.93 35.56 28.38 35.56 14.21 21.38 14.21 20.84"></polygon><polygon class="cls-1" points="14.21 20.29 29.47 35.56 28.93 35.56 14.21 20.84 14.21 20.29"></polygon><polygon class="cls-1" points="14.21 19.75 30.02 35.56 29.47 35.56 14.21 20.29 14.21 19.75"></polygon><polygon class="cls-1" points="14.21 19.2 30.56 35.56 30.02 35.56 14.21 19.75 14.21 19.2"></polygon><polygon class="cls-1" points="14.21 18.66 31.11 35.56 30.56 35.56 14.21 19.2 14.21 18.66"></polygon><polygon class="cls-1" points="14.21 18.11 31.65 35.56 31.11 35.56 14.21 18.66 14.21 18.11"></polygon><polygon class="cls-1" points="14.21 17.57 32.2 35.56 31.65 35.56 14.21 18.11 14.21 17.57"></polygon><polygon class="cls-1" points="14.5 17.32 32.74 35.56 32.2 35.56 14.21 17.57 14.21 17.32 14.5 17.32"></polygon><polygon class="cls-1" points="15.05 17.32 33.29 35.56 32.74 35.56 14.5 17.32 15.05 17.32"></polygon><polygon class="cls-1" points="15.59 17.32 33.84 35.56 33.29 35.56 15.05 17.32 15.59 17.32"></polygon><polygon class="cls-1" points="16.14 17.32 34.38 35.56 33.84 35.56 15.59 17.32 16.14 17.32"></polygon><polygon class="cls-1" points="16.68 17.32 34.93 35.56 34.38 35.56 16.14 17.32 16.68 17.32"></polygon><polygon class="cls-1" points="17.23 17.32 35.47 35.56 34.93 35.56 16.68 17.32 17.23 17.32"></polygon><polygon class="cls-1" points="17.77 17.32 36.02 35.56 35.47 35.56 17.23 17.32 17.77 17.32"></polygon><polygon class="cls-1" points="18.32 17.32 36.56 35.56 36.02 35.56 17.77 17.32 18.32 17.32"></polygon><polygon class="cls-1" points="18.86 17.32 37.11 35.56 36.56 35.56 18.32 17.32 18.86 17.32"></polygon><polygon class="cls-1" points="19.41 17.32 37.65 35.56 37.11 35.56 18.86 17.32 19.41 17.32"></polygon><polygon class="cls-1" points="19.95 17.32 38.2 35.56 37.65 35.56 19.41 17.32 19.95 17.32"></polygon><polygon class="cls-1" points="20.5 17.32 38.74 35.56 38.2 35.56 19.95 17.32 20.5 17.32"></polygon><polygon class="cls-1" points="21.05 17.32 39.29 35.56 38.74 35.56 20.5 17.32 21.05 17.32"></polygon><polygon class="cls-1" points="21.59 17.32 39.83 35.56 39.29 35.56 21.05 17.32 21.59 17.32"></polygon><polygon class="cls-1" points="22.14 17.32 40.38 35.56 39.83 35.56 21.59 17.32 22.14 17.32"></polygon><polygon class="cls-1" points="22.68 17.32 40.67 35.31 40.67 35.56 40.38 35.56 22.14 17.32 22.68 17.32"></polygon><polygon class="cls-1" points="23.23 17.32 40.67 34.77 40.67 35.31 22.68 17.32 23.23 17.32"></polygon><polygon class="cls-1" points="23.77 17.32 40.67 34.22 40.67 34.77 23.23 17.32 23.77 17.32"></polygon><polygon class="cls-1" points="24.32 17.32 40.67 33.67 40.67 34.22 23.77 17.32 24.32 17.32"></polygon><polygon class="cls-1" points="24.86 17.32 40.67 33.13 40.67 33.67 24.32 17.32 24.86 17.32"></polygon><polygon class="cls-1" points="25.41 17.32 40.67 32.58 40.67 33.13 24.86 17.32 25.41 17.32"></polygon><polygon class="cls-1" points="25.95 17.32 40.67 32.04 40.67 32.58 25.41 17.32 25.95 17.32"></polygon><polygon class="cls-1" points="26.5 17.32 40.67 31.49 40.67 32.04 25.95 17.32 26.5 17.32"></polygon><polygon class="cls-1" points="27.04 17.32 40.67 30.95 40.67 31.49 26.5 17.32 27.04 17.32"></polygon><polygon class="cls-1" points="27.59 17.32 40.67 30.4 40.67 30.95 27.04 17.32 27.59 17.32"></polygon><polygon class="cls-1" points="28.13 17.32 40.67 29.86 40.67 30.4 27.59 17.32 28.13 17.32"></polygon><polygon class="cls-1" points="28.68 17.32 40.67 29.31 40.67 29.86 28.13 17.32 28.68 17.32"></polygon><polygon class="cls-1" points="29.22 17.32 40.67 28.77 40.67 29.31 28.68 17.32 29.22 17.32"></polygon><polygon class="cls-1" points="29.77 17.32 40.67 28.22 40.67 28.77 29.22 17.32 29.77 17.32"></polygon><polygon class="cls-1" points="30.31 17.32 40.67 27.68 40.67 28.22 29.77 17.32 30.31 17.32"></polygon><polygon class="cls-1" points="30.86 17.32 40.67 27.13 40.67 27.68 30.31 17.32 30.86 17.32"></polygon><polygon class="cls-1" points="31.41 17.32 40.67 26.59 40.67 27.13 30.86 17.32 31.41 17.32"></polygon><polygon class="cls-1" points="31.95 17.32 40.67 26.04 40.67 26.59 31.41 17.32 31.95 17.32"></polygon><polygon class="cls-1" points="32.49 17.32 40.67 25.5 40.67 26.04 31.95 17.32 32.49 17.32"></polygon></g><path class="cls-1" d="M29.29,24h1.48a0,0,0,0,1,0,0v2.11a0,0,0,0,1,0,0H27.18a0,0,0,0,1,0,0v0A2.11,2.11,0,0,1,29.29,24Z"></path><g class="cls-9"><polygon class="cls-1" points="27.18 26.07 27.18 26.07 27.18 23.96 30.76 23.96 30.76 26.07 27.18 26.07"></polygon><path class="cls-1" d="M27.18,25.93l.14.14Z"></path><polygon class="cls-1" points="27.18 25.79 27.46 26.07 27.32 26.07 27.18 25.93 27.18 25.79"></polygon><polygon class="cls-1" points="27.18 25.64 27.6 26.07 27.46 26.07 27.18 25.79 27.18 25.64"></polygon><polygon class="cls-1" points="27.18 25.5 27.75 26.07 27.6 26.07 27.18 25.64 27.18 25.5"></polygon><polygon class="cls-1" points="27.18 25.36 27.89 26.07 27.75 26.07 27.18 25.5 27.18 25.36"></polygon><polygon class="cls-1" points="27.18 25.22 28.03 26.07 27.89 26.07 27.18 25.36 27.18 25.22"></polygon><polygon class="cls-1" points="27.18 25.07 28.17 26.07 28.03 26.07 27.18 25.22 27.18 25.07"></polygon><polygon class="cls-1" points="27.18 24.93 28.32 26.07 28.17 26.07 27.18 25.07 27.18 24.93"></polygon><polygon class="cls-1" points="27.18 24.79 28.46 26.07 28.32 26.07 27.18 24.93 27.18 24.79"></polygon><polygon class="cls-1" points="27.18 24.65 28.6 26.07 28.46 26.07 27.18 24.79 27.18 24.65"></polygon><polygon class="cls-1" points="27.18 24.5 28.74 26.07 28.6 26.07 27.18 24.65 27.18 24.5"></polygon><polygon class="cls-1" points="27.18 24.36 28.89 26.07 28.74 26.07 27.18 24.5 27.18 24.36"></polygon><polygon class="cls-1" points="27.18 24.34 27.24 24.28 29.03 26.07 28.89 26.07 27.18 24.36 27.18 24.34"></polygon><polygon class="cls-1" points="27.24 24.28 27.31 24.21 29.17 26.07 29.03 26.07 27.24 24.28"></polygon><polygon class="cls-1" points="27.31 24.21 27.38 24.14 29.31 26.07 29.17 26.07 27.31 24.21"></polygon><polygon class="cls-1" points="27.38 24.14 27.45 24.07 29.45 26.07 29.31 26.07 27.38 24.14"></polygon><polygon class="cls-1" points="27.45 24.07 27.52 24 29.6 26.07 29.45 26.07 27.45 24.07"></polygon><polygon class="cls-1" points="27.52 24 27.56 23.96 27.63 23.96 29.74 26.07 29.6 26.07 27.52 24"></polygon><polygon class="cls-1" points="27.77 23.96 29.88 26.07 29.74 26.07 27.63 23.96 27.77 23.96"></polygon><polygon class="cls-1" points="27.91 23.96 30.02 26.07 29.88 26.07 27.77 23.96 27.91 23.96"></polygon><polygon class="cls-1" points="28.06 23.96 30.17 26.07 30.02 26.07 27.91 23.96 28.06 23.96"></polygon><polygon class="cls-1" points="28.2 23.96 30.31 26.07 30.17 26.07 28.06 23.96 28.2 23.96"></polygon><polygon class="cls-1" points="28.34 23.96 30.45 26.07 30.31 26.07 28.2 23.96 28.34 23.96"></polygon><polygon class="cls-1" points="28.48 23.96 30.59 26.07 30.45 26.07 28.34 23.96 28.48 23.96"></polygon><polygon class="cls-1" points="28.63 23.96 30.74 26.07 30.59 26.07 28.48 23.96 28.63 23.96"></polygon><polygon class="cls-1" points="28.77 23.96 30.76 25.95 30.76 26.07 30.74 26.07 28.63 23.96 28.77 23.96"></polygon><polygon class="cls-1" points="28.91 23.96 30.76 25.81 30.76 25.95 28.77 23.96 28.91 23.96"></polygon><polygon class="cls-1" points="29.05 23.96 30.76 25.67 30.76 25.81 28.91 23.96 29.05 23.96"></polygon><polygon class="cls-1" points="29.2 23.96 30.76 25.53 30.76 25.67 29.05 23.96 29.2 23.96"></polygon><polygon class="cls-1" points="29.34 23.96 30.76 25.38 30.76 25.53 29.2 23.96 29.34 23.96"></polygon><polygon class="cls-1" points="29.48 23.96 30.76 25.24 30.76 25.38 29.34 23.96 29.48 23.96"></polygon><polygon class="cls-1" points="29.62 23.96 30.76 25.1 30.76 25.24 29.48 23.96 29.62 23.96"></polygon><polygon class="cls-1" points="29.77 23.96 30.76 24.96 30.76 25.1 29.62 23.96 29.77 23.96"></polygon><polygon class="cls-1" points="29.91 23.96 30.76 24.82 30.76 24.96 29.77 23.96 29.91 23.96"></polygon><polygon class="cls-1" points="30.05 23.96 30.76 24.67 30.76 24.82 29.91 23.96 30.05 23.96"></polygon><polygon class="cls-1" points="30.19 23.96 30.76 24.53 30.76 24.67 30.05 23.96 30.19 23.96"></polygon><polygon class="cls-1" points="30.34 23.96 30.76 24.39 30.76 24.53 30.19 23.96 30.34 23.96"></polygon><polygon class="cls-1" points="30.48 23.96 30.76 24.25 30.76 24.39 30.34 23.96 30.48 23.96"></polygon><polygon class="cls-1" points="30.62 23.96 30.76 24.1 30.76 24.25 30.48 23.96 30.62 23.96"></polygon><polygon class="cls-1" points="30.76 23.96 30.76 23.96 30.76 24.1 30.62 23.96 30.76 23.96"></polygon></g><path class="cls-1" d="M31.13,20.9h0A1.11,1.11,0,0,1,32.24,22V24.7a0,0,0,0,1,0,0H30a0,0,0,0,1,0,0V22A1.11,1.11,0,0,1,31.13,20.9Z" transform="translate(-4.42 7.79) rotate(-13.33)"></path><g class="cls-10"><polygon class="cls-1" points="29.73 24.43 30.49 24.9 29.73 24.9 29.73 24.43"></polygon><polygon class="cls-1" points="29.73 24.32 30.67 24.9 30.49 24.9 29.73 24.43 29.73 24.32"></polygon><polygon class="cls-1" points="29.73 24.21 30.85 24.9 30.67 24.9 29.73 24.32 29.73 24.21"></polygon><polygon class="cls-1" points="29.73 24.1 31.03 24.9 30.85 24.9 29.73 24.21 29.73 24.1"></polygon><polygon class="cls-1" points="29.73 23.99 31.21 24.9 31.03 24.9 29.73 24.1 29.73 23.99"></polygon><polygon class="cls-1" points="29.73 23.88 31.39 24.9 31.21 24.9 29.73 23.99 29.73 23.88"></polygon><polygon class="cls-1" points="29.73 23.76 31.58 24.9 31.39 24.9 29.73 23.88 29.73 23.76"></polygon><polygon class="cls-1" points="29.73 23.65 31.76 24.9 31.58 24.9 29.73 23.76 29.73 23.65"></polygon><polygon class="cls-1" points="29.73 23.54 31.94 24.9 31.76 24.9 29.73 23.65 29.73 23.54"></polygon><polygon class="cls-1" points="29.73 23.43 32.12 24.9 31.94 24.9 29.73 23.54 29.73 23.43"></polygon><polygon class="cls-1" points="29.73 23.32 32.3 24.9 32.12 24.9 29.73 23.43 29.73 23.32"></polygon><polygon class="cls-1" points="29.73 23.21 32.48 24.9 32.3 24.9 29.73 23.32 29.73 23.21"></polygon><polygon class="cls-1" points="29.73 23.09 32.6 24.87 32.58 24.9 32.48 24.9 29.73 23.21 29.73 23.09"></polygon><polygon class="cls-1" points="29.73 22.98 32.65 24.78 32.65 24.79 32.6 24.87 29.73 23.09 29.73 22.98"></polygon><polygon class="cls-1" points="29.73 22.87 32.65 24.67 32.65 24.78 29.73 22.98 29.73 22.87"></polygon><polygon class="cls-1" points="29.73 22.76 32.65 24.56 32.65 24.67 29.73 22.87 29.73 22.76"></polygon><polygon class="cls-1" points="29.73 22.65 32.65 24.45 32.65 24.56 29.73 22.76 29.73 22.65"></polygon><polygon class="cls-1" points="29.73 22.54 32.65 24.34 32.65 24.45 29.73 22.65 29.73 22.54"></polygon><polygon class="cls-1" points="29.73 22.43 32.65 24.23 32.65 24.34 29.73 22.54 29.73 22.43"></polygon><polygon class="cls-1" points="29.73 22.31 32.65 24.11 32.65 24.23 29.73 22.43 29.73 22.31"></polygon><polygon class="cls-1" points="29.73 22.2 32.65 24 32.65 24.11 29.73 22.31 29.73 22.2"></polygon><polygon class="cls-1" points="29.73 22.09 32.65 23.89 32.65 24 29.73 22.2 29.73 22.09"></polygon><polygon class="cls-1" points="29.73 21.98 32.65 23.78 32.65 23.89 29.73 22.09 29.73 21.98"></polygon><polygon class="cls-1" points="29.73 21.87 32.65 23.67 32.65 23.78 29.73 21.98 29.73 21.87"></polygon><polygon class="cls-1" points="29.73 21.76 32.65 23.56 32.65 23.67 29.73 21.87 29.73 21.76"></polygon><polygon class="cls-1" points="29.73 21.64 32.65 23.45 32.65 23.56 29.73 21.76 29.73 21.64"></polygon><polygon class="cls-1" points="29.73 21.53 32.65 23.33 32.65 23.45 29.73 21.64 29.73 21.53"></polygon><polygon class="cls-1" points="29.73 21.42 32.65 23.22 32.65 23.33 29.73 21.53 29.73 21.42"></polygon><polygon class="cls-1" points="29.73 21.31 32.65 23.11 32.65 23.22 29.73 21.42 29.73 21.31"></polygon><polygon class="cls-1" points="29.73 21.29 29.77 21.22 32.65 23 32.65 23.11 29.73 21.31 29.73 21.29"></polygon><polygon class="cls-1" points="29.77 21.22 29.82 21.14 32.65 22.89 32.65 23 29.77 21.22"></polygon><polygon class="cls-1" points="29.82 21.14 29.87 21.06 32.65 22.78 32.65 22.89 29.82 21.14"></polygon><polygon class="cls-1" points="29.87 21.06 29.92 20.98 32.65 22.66 32.65 22.78 29.87 21.06"></polygon><polygon class="cls-1" points="29.92 20.98 29.97 20.9 32.65 22.55 32.65 22.66 29.92 20.98"></polygon><polygon class="cls-1" points="29.97 20.9 30.02 20.82 32.65 22.44 32.65 22.55 29.97 20.9"></polygon><polygon class="cls-1" points="30.02 20.82 30.02 20.81 30.19 20.81 32.65 22.33 32.65 22.44 30.02 20.82"></polygon><polygon class="cls-1" points="30.37 20.81 32.65 22.22 32.65 22.33 30.19 20.81 30.37 20.81"></polygon><polygon class="cls-1" points="30.55 20.81 32.65 22.11 32.65 22.22 30.37 20.81 30.55 20.81"></polygon><polygon class="cls-1" points="30.73 20.81 32.65 22 32.65 22.11 30.55 20.81 30.73 20.81"></polygon><polygon class="cls-1" points="30.91 20.81 32.65 21.88 32.65 22 30.73 20.81 30.91 20.81"></polygon><polygon class="cls-1" points="31.09 20.81 32.65 21.77 32.65 21.88 30.91 20.81 31.09 20.81"></polygon><polygon class="cls-1" points="32.65 21.77 31.09 20.81 32.65 20.81 32.65 21.77"></polygon></g><rect class="cls-57" x="8.86" y="11.96" width="26.43" height="18.27"></rect><path class="cls-2" d="M29.19,23.6h0a1.11,1.11,0,0,1,1.11,1.11V26.4a1,1,0,0,1-1,1h-.2a1,1,0,0,1-1-1V24.71A1.11,1.11,0,0,1,29.19,23.6Z" transform="matrix(-0.06, 1, -1, -0.06, 56.54, -1.98)"></path><g class="cls-58"><polygon class="cls-59" points="28.42 23.36 27.37 24.27 27.95 23.12 28.42 23.36"></polygon><polygon class="cls-60" points="28.51 23.4 27.26 24.5 27.37 24.27 28.42 23.36 28.51 23.4"></polygon><polygon class="cls-61" points="28.6 23.45 27.14 24.73 27.26 24.5 28.51 23.4 28.6 23.45"></polygon><polygon class="cls-62" points="28.69 23.5 27.03 24.95 27.14 24.73 28.6 23.45 28.69 23.5"></polygon><polygon class="cls-63" points="28.78 23.54 26.92 25.18 27.03 24.95 28.69 23.5 28.78 23.54"></polygon><polygon class="cls-64" points="28.87 23.59 26.8 25.4 26.92 25.18 28.78 23.54 28.87 23.59"></polygon><polygon class="cls-65" points="28.97 23.63 26.69 25.63 26.8 25.4 28.87 23.59 28.97 23.63"></polygon><polygon class="cls-66" points="29.06 23.68 26.58 25.86 26.69 25.63 28.97 23.63 29.06 23.68"></polygon><polygon class="cls-67" points="29.15 23.73 26.54 26.02 26.51 25.99 26.58 25.86 29.06 23.68 29.15 23.73"></polygon><polygon class="cls-68" points="29.24 23.77 26.6 26.09 26.54 26.02 29.15 23.73 29.24 23.77"></polygon><polygon class="cls-69" points="29.33 23.82 26.66 26.16 26.6 26.09 29.24 23.77 29.33 23.82"></polygon><polygon class="cls-70" points="29.42 23.86 26.73 26.23 26.66 26.16 29.33 23.82 29.42 23.86"></polygon><polygon class="cls-71" points="29.52 23.91 26.82 26.28 26.73 26.23 26.73 26.23 29.42 23.86 29.52 23.91"></polygon><polygon class="cls-72" points="29.61 23.95 26.91 26.32 26.82 26.28 29.52 23.91 29.61 23.95"></polygon><polygon class="cls-73" points="29.7 24 27 26.37 26.91 26.32 29.61 23.95 29.7 24"></polygon><polygon class="cls-74" points="29.79 24.05 27.09 26.41 27 26.37 29.7 24 29.79 24.05"></polygon><polygon class="cls-75" points="29.88 24.09 27.18 26.46 27.09 26.41 29.79 24.05 29.88 24.09"></polygon><polygon class="cls-76" points="29.97 24.14 27.27 26.51 27.18 26.46 29.88 24.09 29.97 24.14"></polygon><polygon class="cls-77" points="30.06 24.18 27.37 26.55 27.27 26.51 29.97 24.14 30.06 24.18"></polygon><polygon class="cls-78" points="30.16 24.23 27.46 26.6 27.37 26.55 30.06 24.18 30.16 24.23"></polygon><polygon class="cls-79" points="30.25 24.28 27.55 26.64 27.46 26.6 30.16 24.23 30.25 24.28"></polygon><polygon class="cls-80" points="30.34 24.32 27.64 26.69 27.55 26.64 30.25 24.28 30.34 24.32"></polygon><polygon class="cls-81" points="30.43 24.37 27.73 26.74 27.64 26.69 30.34 24.32 30.43 24.37"></polygon><polygon class="cls-82" points="30.52 24.41 27.82 26.78 27.73 26.74 30.43 24.37 30.52 24.41"></polygon><polygon class="cls-83" points="30.61 24.46 27.91 26.83 27.82 26.78 30.52 24.41 30.61 24.46"></polygon><polygon class="cls-84" points="30.7 24.51 28.01 26.88 27.91 26.83 30.61 24.46 30.7 24.51"></polygon><polygon class="cls-85" points="30.8 24.55 28.1 26.92 28.01 26.88 30.7 24.51 30.8 24.55"></polygon><polygon class="cls-86" points="30.89 24.6 28.19 26.97 28.1 26.92 30.8 24.55 30.89 24.6"></polygon><polygon class="cls-87" points="30.98 24.64 28.28 27.01 28.19 26.97 30.89 24.6 30.98 24.64"></polygon><polygon class="cls-88" points="31.07 24.69 28.37 27.06 28.28 27.01 30.98 24.64 31.07 24.69"></polygon><polygon class="cls-89" points="31.16 24.74 28.46 27.11 28.37 27.06 31.07 24.69 31.16 24.74"></polygon><polygon class="cls-90" points="31.17 24.74 31.23 24.8 28.55 27.15 28.46 27.11 31.16 24.74 31.17 24.74"></polygon><polygon class="cls-91" points="31.23 24.8 31.29 24.88 28.65 27.2 28.55 27.15 31.23 24.8"></polygon><polygon class="cls-92" points="31.29 24.88 31.35 24.95 28.74 27.24 28.65 27.2 31.29 24.88"></polygon><polygon class="cls-93" points="31.35 24.95 31.42 25.02 28.83 27.29 28.74 27.24 31.35 24.95"></polygon><polygon class="cls-94" points="31.42 25.02 31.48 25.09 28.92 27.33 28.83 27.29 31.42 25.02"></polygon><polygon class="cls-95" points="31.48 25.09 31.54 25.16 29.01 27.38 28.92 27.33 31.48 25.09"></polygon><polygon class="cls-96" points="31.54 25.16 31.57 25.2 31.52 25.31 29.1 27.43 29.01 27.38 31.54 25.16"></polygon><polygon class="cls-97" points="31.4 25.54 29.2 27.47 29.1 27.43 31.52 25.31 31.4 25.54"></polygon><polygon class="cls-98" points="31.29 25.76 29.29 27.52 29.2 27.47 31.4 25.54 31.29 25.76"></polygon><polygon class="cls-99" points="31.18 25.99 29.38 27.56 29.29 27.52 31.29 25.76 31.18 25.99"></polygon><polygon class="cls-100" points="29.38 27.56 31.18 25.99 30.18 27.97 29.38 27.56"></polygon></g><path class="cls-3" d="M30.55,22.64h0a1.11,1.11,0,0,1,1.11,1.11v1.68a1,1,0,0,1-1,1h-.2a1,1,0,0,1-1-1V23.74A1.11,1.11,0,0,1,30.55,22.64Z" transform="translate(-7.62 15.68) rotate(-25.71)"></path><g class="cls-101"><polygon class="cls-102" points="29.06 26.27 30.37 26.72 29.09 26.79 29.06 26.27"></polygon><polygon class="cls-103" points="29.06 26.16 30.63 26.71 30.37 26.72 29.06 26.27 29.06 26.16"></polygon><polygon class="cls-104" points="29.05 26.06 30.88 26.7 30.63 26.71 29.06 26.16 29.05 26.06"></polygon><polygon class="cls-105" points="29.05 25.96 31.13 26.69 30.88 26.7 29.05 26.06 29.05 25.96"></polygon><polygon class="cls-106" points="29.04 25.86 31.38 26.68 31.13 26.69 29.05 25.96 29.04 25.86"></polygon><polygon class="cls-107" points="29.04 25.75 31.64 26.66 31.38 26.68 29.04 25.86 29.04 25.75"></polygon><polygon class="cls-108" points="29.03 25.65 31.89 26.65 31.64 26.66 29.04 25.75 29.03 25.65"></polygon><polygon class="cls-109" points="29.03 25.55 32.14 26.64 31.89 26.65 29.03 25.65 29.03 25.55"></polygon><polygon class="cls-110" points="29.02 25.45 32.3 26.59 32.29 26.63 32.14 26.64 29.03 25.55 29.02 25.45"></polygon><polygon class="cls-111" points="29.02 25.34 32.33 26.5 32.3 26.59 29.02 25.45 29.02 25.34"></polygon><polygon class="cls-112" points="29.01 25.24 32.37 26.41 32.33 26.5 29.02 25.34 29.01 25.24"></polygon><polygon class="cls-113" points="29.01 25.14 32.4 26.33 32.37 26.41 29.01 25.24 29.01 25.14"></polygon><polygon class="cls-114" points="29 25.04 32.39 26.22 32.4 26.32 32.4 26.33 29.01 25.14 29 25.04"></polygon><polygon class="cls-115" points="29 24.93 32.39 26.12 32.39 26.22 29 25.04 29 24.93"></polygon><polygon class="cls-116" points="28.99 24.83 32.38 26.02 32.39 26.12 29 24.93 28.99 24.83"></polygon><polygon class="cls-117" points="28.99 24.73 32.38 25.92 32.38 26.02 28.99 24.83 28.99 24.73"></polygon><polygon class="cls-118" points="28.98 24.63 32.37 25.82 32.38 25.92 28.99 24.73 28.98 24.63"></polygon><polygon class="cls-119" points="28.98 24.53 32.37 25.71 32.37 25.82 28.98 24.63 28.98 24.53"></polygon><polygon class="cls-120" points="28.97 24.42 32.36 25.61 32.37 25.71 28.98 24.53 28.97 24.42"></polygon><polygon class="cls-121" points="28.97 24.32 32.36 25.51 32.36 25.61 28.97 24.42 28.97 24.32"></polygon><polygon class="cls-122" points="28.96 24.22 32.35 25.41 32.36 25.51 28.97 24.32 28.96 24.22"></polygon><polygon class="cls-123" points="28.96 24.12 32.35 25.3 32.35 25.41 28.96 24.22 28.96 24.12"></polygon><polygon class="cls-124" points="28.95 24.02 32.34 25.2 32.35 25.3 28.96 24.12 28.95 24.02"></polygon><polygon class="cls-125" points="28.95 23.91 32.34 25.1 32.34 25.2 28.95 24.02 28.95 23.91"></polygon><polygon class="cls-126" points="28.94 23.81 32.33 25 32.34 25.1 28.95 23.91 28.94 23.81"></polygon><polygon class="cls-127" points="28.94 23.71 32.33 24.89 32.33 25 28.94 23.81 28.94 23.71"></polygon><polygon class="cls-128" points="28.93 23.61 32.32 24.79 32.33 24.89 28.94 23.71 28.93 23.61"></polygon><polygon class="cls-129" points="28.93 23.5 32.32 24.69 32.32 24.79 28.93 23.61 28.93 23.5"></polygon><polygon class="cls-130" points="28.92 23.4 32.31 24.59 32.32 24.69 28.93 23.5 28.92 23.4"></polygon><polygon class="cls-131" points="28.92 23.3 32.31 24.48 32.31 24.59 28.92 23.4 28.92 23.3"></polygon><polygon class="cls-132" points="28.91 23.2 32.3 24.38 32.31 24.48 28.92 23.3 28.91 23.2"></polygon><polygon class="cls-133" points="28.91 23.18 28.94 23.11 32.3 24.28 32.3 24.38 28.91 23.2 28.91 23.18"></polygon><polygon class="cls-134" points="28.94 23.11 28.97 23.02 32.29 24.18 32.3 24.28 28.94 23.11"></polygon><polygon class="cls-135" points="28.97 23.02 29 22.93 32.29 24.08 32.29 24.18 28.97 23.02"></polygon><polygon class="cls-136" points="29 22.93 29.04 22.84 32.28 23.97 32.29 24.08 29 22.93"></polygon><polygon class="cls-137" points="29.04 22.84 29.07 22.75 32.28 23.87 32.28 23.97 29.04 22.84"></polygon><polygon class="cls-138" points="29.07 22.75 29.1 22.66 32.27 23.77 32.28 23.87 29.07 22.75"></polygon><polygon class="cls-139" points="29.1 22.66 29.11 22.61 29.24 22.61 32.27 23.67 32.27 23.77 29.1 22.66"></polygon><polygon class="cls-140" points="29.49 22.59 32.26 23.57 32.27 23.67 29.24 22.61 29.49 22.59"></polygon><polygon class="cls-141" points="29.74 22.58 32.26 23.46 32.26 23.57 29.49 22.59 29.74 22.58"></polygon><polygon class="cls-142" points="30 22.57 32.25 23.36 32.26 23.46 29.74 22.58 30 22.57"></polygon><polygon class="cls-143" points="32.25 23.36 30 22.57 32.21 22.46 32.25 23.36"></polygon></g></g><path class="cls-144" d="M14.39,23.28H10.2v-.74h4.18c3-.23,4.89-3.75,5.91-6.66a.37.37,0,0,1,.35-.25h1.44v.74H20.9c-1.57,4.33-3.81,6.71-6.48,6.9Z"></path></svg>