<svg xmlns="http://www.w3.org/2000/svg" xmlns:xlink="http://www.w3.org/1999/xlink" viewBox="0 0 16 16"><defs><linearGradient id="Degradado_sin_nombre_14" x1="1.87" y1="4.22" x2="2.84" y2="3.25" gradientTransform="translate(3.06 8.11) rotate(-157.05)" gradientUnits="userSpaceOnUse"><stop offset="0" stop-color="#52429e"></stop><stop offset="1" stop-color="#343778"></stop></linearGradient><linearGradient id="Degradado_sin_nombre_14-2" x1="498.23" y1="2727.95" x2="499.2" y2="2726.98" gradientTransform="translate(-589.72 2718.69) rotate(-157.05)" xlink:href="#Degradado_sin_nombre_14"></linearGradient><linearGradient id="Degradado_sin_nombre_14-3" x1="-3909.71" y1="3437.27" x2="-3908.74" y2="3436.3" gradientTransform="translate(-4924.75 1652.89) rotate(-157.05)" xlink:href="#Degradado_sin_nombre_14"></linearGradient><clipPath id="clip-path"><path class="cls-1" d="M-19.1,18.62H-7.19l1.69-4h-9.6A9.15,9.15,0,0,1-19.1,18.62Z"></path></clipPath><clipPath id="clip-path-2"><rect class="cls-1" x="-22.79" y="10.82" width="26.47" height="18.24"></rect></clipPath><clipPath id="clip-path-3"><path class="cls-1" d="M11.16,3.59,8.8,9.2a2.1,2.1,0,0,1-1.93,1.27H5a.72.72,0,1,1-.71-.71.72.72,0,0,1,.47.18L9.43,5.58l.87-2H2.54L1.67,5.53H5.91V5.47a.72.72,0,1,1,.71.72A.7.7,0,0,1,6.13,6l-4,3.72A3.64,3.64,0,0,0,.61,12l-.11.39H6.9a4.06,4.06,0,0,0,3.73-2.47l2.68-6.35Z"></path></clipPath><clipPath id="clip-path-4"><path class="cls-1" d="M2.35,2.83h0a.54.54,0,0,1,.54.54v.81a.49.49,0,0,1-.49.49H2.3a.49.49,0,0,1-.49-.49V3.36a.54.54,0,0,1,.54-.54Z" transform="translate(5.98 6.28) rotate(157.05)"></path></clipPath><clipPath id="clip-path-5"><path class="cls-1" d="M8.92,12.41h5.76l.82-1.94H10.86A4.42,4.42,0,0,1,8.92,12.41Z"></path></clipPath><clipPath id="clip-path-6"><rect class="cls-1" x="7.13" y="8.64" width="12.81" height="8.83"></rect></clipPath><clipPath id="clip-path-7"><path class="cls-1" d="M14.43,11.85h.71a0,0,0,0,1,0,0v1a0,0,0,0,1,0,0H13.41a0,0,0,0,1,0,0v0A1,1,0,0,1,14.43,11.85Z"></path></clipPath><clipPath id="clip-path-8"><path class="cls-1" d="M15.32,10.37h0a.54.54,0,0,1,.54.54v1.3a0,0,0,0,1,0,0H14.79a0,0,0,0,1,0,0v-1.3A.54.54,0,0,1,15.32,10.37Z" transform="translate(-2.19 3.84) rotate(-13.33)"></path></clipPath><clipPath id="clip-path-9"><path class="cls-1" d="M14.38,11.68h0a.54.54,0,0,1,.54.54V13a.49.49,0,0,1-.49.49h-.1a.49.49,0,0,1-.49-.49v-.81a.54.54,0,0,1,.54-.54Z" transform="translate(27.89 -0.94) rotate(93.72)"></path></clipPath><clipPath id="clip-path-10"><path class="cls-1" d="M15,11.21h0a.54.54,0,0,1,.54.54v.81a.49.49,0,0,1-.49.49H15a.49.49,0,0,1-.49-.49v-.81a.54.54,0,0,1,.54-.54Z" transform="translate(-3.77 7.73) rotate(-25.71)"></path></clipPath><linearGradient id="Degradado_sin_nombre_4" x1="1.5" y1="13.41" x2="12.31" y2="2.59" gradientUnits="userSpaceOnUse"><stop offset="0" stop-color="#1c222d"></stop><stop offset="1" stop-color="#343778"></stop></linearGradient><clipPath id="clip-path-14"><path class="cls-2" d="M2.35,2.83h0a.54.54,0,0,1,.54.54v.81a.49.49,0,0,1-.49.49H2.3a.49.49,0,0,1-.49-.49V3.36a.54.54,0,0,1,.54-.54Z" transform="translate(5.98 6.28) rotate(157.05)"></path></clipPath><linearGradient id="Degradado_sin_nombre_14-5" x1="2.71" y1="2.91" x2="3.02" y2="2.6" gradientTransform="matrix(1, 0, 0, 1, 0, 0)" xlink:href="#Degradado_sin_nombre_14"></linearGradient><linearGradient id="Degradado_sin_nombre_14-6" x1="2.63" y1="2.95" x2="2.87" y2="2.71" gradientTransform="matrix(1, 0, 0, 1, 0, 0)" xlink:href="#Degradado_sin_nombre_14"></linearGradient><linearGradient id="Degradado_sin_nombre_14-7" x1="2.55" y1="3" x2="2.83" y2="2.71" gradientTransform="matrix(1, 0, 0, 1, 0, 0)" xlink:href="#Degradado_sin_nombre_14"></linearGradient><linearGradient id="Degradado_sin_nombre_14-8" x1="2.47" y1="3.04" x2="2.79" y2="2.72" gradientTransform="matrix(1, 0, 0, 1, 0, 0)" xlink:href="#Degradado_sin_nombre_14"></linearGradient><linearGradient id="Degradado_sin_nombre_14-9" x1="2.39" y1="3.08" x2="2.74" y2="2.73" gradientTransform="matrix(1, 0, 0, 1, 0, 0)" xlink:href="#Degradado_sin_nombre_14"></linearGradient><linearGradient id="Degradado_sin_nombre_14-10" x1="2.31" y1="3.13" x2="2.7" y2="2.73" gradientTransform="matrix(1, 0, 0, 1, 0, 0)" xlink:href="#Degradado_sin_nombre_14"></linearGradient><linearGradient id="Degradado_sin_nombre_14-11" x1="2.23" y1="3.17" x2="2.66" y2="2.74" gradientTransform="matrix(1, 0, 0, 1, 0, 0)" xlink:href="#Degradado_sin_nombre_14"></linearGradient><linearGradient id="Degradado_sin_nombre_14-12" x1="2.15" y1="3.21" x2="2.62" y2="2.75" gradientTransform="matrix(1, 0, 0, 1, 0, 0)" xlink:href="#Degradado_sin_nombre_14"></linearGradient><linearGradient id="Degradado_sin_nombre_14-13" x1="2.1" y1="3.26" x2="2.59" y2="2.77" gradientTransform="matrix(1, 0, 0, 1, 0, 0)" xlink:href="#Degradado_sin_nombre_14"></linearGradient><linearGradient id="Degradado_sin_nombre_14-14" x1="2.08" y1="3.3" x2="2.58" y2="2.81" gradientTransform="matrix(1, 0, 0, 1, 0, 0)" xlink:href="#Degradado_sin_nombre_14"></linearGradient><linearGradient id="Degradado_sin_nombre_14-15" x1="2.07" y1="3.35" x2="2.57" y2="2.85" gradientTransform="matrix(1, 0, 0, 1, 0, 0)" xlink:href="#Degradado_sin_nombre_14"></linearGradient><linearGradient id="Degradado_sin_nombre_14-16" x1="2.06" y1="3.4" x2="2.56" y2="2.89" gradientTransform="matrix(1, 0, 0, 1, 0, 0)" xlink:href="#Degradado_sin_nombre_14"></linearGradient><linearGradient id="Degradado_sin_nombre_14-17" x1="2.05" y1="3.44" x2="2.56" y2="2.94" gradientTransform="matrix(1, 0, 0, 1, 0, 0)" xlink:href="#Degradado_sin_nombre_14"></linearGradient><linearGradient id="Degradado_sin_nombre_14-18" x1="2.05" y1="3.49" x2="2.56" y2="2.99" gradientTransform="matrix(1, 0, 0, 1, 0, 0)" xlink:href="#Degradado_sin_nombre_14"></linearGradient><linearGradient id="Degradado_sin_nombre_14-19" x1="2.05" y1="3.54" x2="2.56" y2="3.04" gradientTransform="matrix(1, 0, 0, 1, 0, 0)" xlink:href="#Degradado_sin_nombre_14"></linearGradient><linearGradient id="Degradado_sin_nombre_14-20" x1="2.05" y1="3.59" x2="2.56" y2="3.09" gradientTransform="matrix(1, 0, 0, 1, 0, 0)" xlink:href="#Degradado_sin_nombre_14"></linearGradient><linearGradient id="Degradado_sin_nombre_14-21" x1="2.05" y1="3.64" x2="2.56" y2="3.14" gradientTransform="matrix(1, 0, 0, 1, 0, 0)" xlink:href="#Degradado_sin_nombre_14"></linearGradient><linearGradient id="Degradado_sin_nombre_14-22" x1="2.05" y1="3.69" x2="2.56" y2="3.18" gradientTransform="matrix(1, 0, 0, 1, 0, 0)" xlink:href="#Degradado_sin_nombre_14"></linearGradient><linearGradient id="Degradado_sin_nombre_14-23" x1="2.05" y1="3.74" x2="2.56" y2="3.23" gradientTransform="matrix(1, 0, 0, 1, 0, 0)" xlink:href="#Degradado_sin_nombre_14"></linearGradient><linearGradient id="Degradado_sin_nombre_14-24" x1="2.05" y1="3.79" x2="2.56" y2="3.28" gradientTransform="matrix(1, 0, 0, 1, 0, 0)" xlink:href="#Degradado_sin_nombre_14"></linearGradient><linearGradient id="Degradado_sin_nombre_14-25" x1="2.05" y1="3.84" x2="2.56" y2="3.33" gradientTransform="matrix(1, 0, 0, 1, 0, 0)" xlink:href="#Degradado_sin_nombre_14"></linearGradient><linearGradient id="Degradado_sin_nombre_14-26" x1="2.05" y1="3.89" x2="2.56" y2="3.38" gradientTransform="matrix(1, 0, 0, 1, 0, 0)" xlink:href="#Degradado_sin_nombre_14"></linearGradient><linearGradient id="Degradado_sin_nombre_14-27" x1="2.05" y1="3.94" x2="2.56" y2="3.43" gradientTransform="matrix(1, 0, 0, 1, 0, 0)" xlink:href="#Degradado_sin_nombre_14"></linearGradient><linearGradient id="Degradado_sin_nombre_14-28" x1="2.05" y1="3.99" x2="2.56" y2="3.48" gradientTransform="matrix(1, 0, 0, 1, 0, 0)" xlink:href="#Degradado_sin_nombre_14"></linearGradient><linearGradient id="Degradado_sin_nombre_14-29" x1="2.05" y1="4.04" x2="2.56" y2="3.53" gradientTransform="matrix(1, 0, 0, 1, 0, 0)" xlink:href="#Degradado_sin_nombre_14"></linearGradient><linearGradient id="Degradado_sin_nombre_14-30" x1="2.05" y1="4.08" x2="2.56" y2="3.58" gradientTransform="matrix(1, 0, 0, 1, 0, 0)" xlink:href="#Degradado_sin_nombre_14"></linearGradient><linearGradient id="Degradado_sin_nombre_14-31" x1="2.05" y1="4.13" x2="2.56" y2="3.63" gradientTransform="matrix(1, 0, 0, 1, 0, 0)" xlink:href="#Degradado_sin_nombre_14"></linearGradient><linearGradient id="Degradado_sin_nombre_14-32" x1="2.05" y1="4.18" x2="2.56" y2="3.68" gradientTransform="matrix(1, 0, 0, 1, 0, 0)" xlink:href="#Degradado_sin_nombre_14"></linearGradient><linearGradient id="Degradado_sin_nombre_14-33" x1="2.05" y1="4.23" x2="2.56" y2="3.73" gradientTransform="matrix(1, 0, 0, 1, 0, 0)" xlink:href="#Degradado_sin_nombre_14"></linearGradient><linearGradient id="Degradado_sin_nombre_14-34" x1="2.05" y1="4.28" x2="2.56" y2="3.78" gradientTransform="matrix(1, 0, 0, 1, 0, 0)" xlink:href="#Degradado_sin_nombre_14"></linearGradient><linearGradient id="Degradado_sin_nombre_14-35" x1="2.05" y1="4.33" x2="2.56" y2="3.83" gradientTransform="matrix(1, 0, 0, 1, 0, 0)" xlink:href="#Degradado_sin_nombre_14"></linearGradient><linearGradient id="Degradado_sin_nombre_14-36" x1="2.05" y1="4.38" x2="2.55" y2="3.87" gradientTransform="matrix(1, 0, 0, 1, 0, 0)" xlink:href="#Degradado_sin_nombre_14"></linearGradient><linearGradient id="Degradado_sin_nombre_14-37" x1="2.04" y1="4.42" x2="2.54" y2="3.92" gradientTransform="matrix(1, 0, 0, 1, 0, 0)" xlink:href="#Degradado_sin_nombre_14"></linearGradient><linearGradient id="Degradado_sin_nombre_14-38" x1="2.04" y1="4.46" x2="2.53" y2="3.97" gradientTransform="matrix(1, 0, 0, 1, 0, 0)" xlink:href="#Degradado_sin_nombre_14"></linearGradient><linearGradient id="Degradado_sin_nombre_14-39" x1="2.03" y1="4.51" x2="2.52" y2="4.02" gradientTransform="matrix(1, 0, 0, 1, 0, 0)" xlink:href="#Degradado_sin_nombre_14"></linearGradient><linearGradient id="Degradado_sin_nombre_14-40" x1="2.02" y1="4.55" x2="2.51" y2="4.07" gradientTransform="matrix(1, 0, 0, 1, 0, 0)" xlink:href="#Degradado_sin_nombre_14"></linearGradient><linearGradient id="Degradado_sin_nombre_14-41" x1="2.02" y1="4.59" x2="2.5" y2="4.12" gradientTransform="matrix(1, 0, 0, 1, 0, 0)" xlink:href="#Degradado_sin_nombre_14"></linearGradient><linearGradient id="Degradado_sin_nombre_14-42" x1="2.01" y1="4.63" x2="2.48" y2="4.16" gradientTransform="matrix(1, 0, 0, 1, 0, 0)" xlink:href="#Degradado_sin_nombre_14"></linearGradient><linearGradient id="Degradado_sin_nombre_14-43" x1="1.98" y1="4.66" x2="2.43" y2="4.2" gradientTransform="matrix(1, 0, 0, 1, 0, 0)" xlink:href="#Degradado_sin_nombre_14"></linearGradient><linearGradient id="Degradado_sin_nombre_14-44" x1="1.94" y1="4.66" x2="2.35" y2="4.25" gradientTransform="matrix(1, 0, 0, 1, 0, 0)" xlink:href="#Degradado_sin_nombre_14"></linearGradient><linearGradient id="Degradado_sin_nombre_14-45" x1="1.9" y1="4.67" x2="2.28" y2="4.29" gradientTransform="matrix(1, 0, 0, 1, 0, 0)" xlink:href="#Degradado_sin_nombre_14"></linearGradient><linearGradient id="Degradado_sin_nombre_14-46" x1="1.66" y1="4.87" x2="2.2" y2="4.33" gradientTransform="matrix(1, 0, 0, 1, 0, 0)" xlink:href="#Degradado_sin_nombre_14"></linearGradient><linearGradient id="Degradado_sin_nombre_4-2" x1="5.54" y1="15.87" x2="16.35" y2="5.06" xlink:href="#Degradado_sin_nombre_4"></linearGradient><clipPath id="clip-path-19"><path class="cls-3" d="M14.38,11.68h0a.54.54,0,0,1,.54.54V13a.49.49,0,0,1-.49.49h-.1a.49.49,0,0,1-.49-.49v-.81a.54.54,0,0,1,.54-.54Z" transform="translate(27.89 -0.94) rotate(93.72)"></path></clipPath><linearGradient id="Degradado_sin_nombre_14-48" x1="499.07" y1="2726.64" x2="499.38" y2="2726.33" gradientTransform="translate(-2646.84 -765.69) rotate(-63.34)" xlink:href="#Degradado_sin_nombre_14"></linearGradient><linearGradient id="Degradado_sin_nombre_14-49" x1="498.99" y1="2726.69" x2="499.24" y2="2726.44" gradientTransform="translate(-2646.84 -765.69) rotate(-63.34)" xlink:href="#Degradado_sin_nombre_14"></linearGradient><linearGradient id="Degradado_sin_nombre_14-50" x1="498.91" y1="2726.73" x2="499.19" y2="2726.45" gradientTransform="translate(-2646.84 -765.69) rotate(-63.34)" xlink:href="#Degradado_sin_nombre_14"></linearGradient><linearGradient id="Degradado_sin_nombre_14-51" x1="498.83" y1="2726.77" x2="499.15" y2="2726.45" gradientTransform="translate(-2646.84 -765.69) rotate(-63.34)" xlink:href="#Degradado_sin_nombre_14"></linearGradient><linearGradient id="Degradado_sin_nombre_14-52" x1="498.75" y1="2726.81" x2="499.11" y2="2726.46" gradientTransform="translate(-2646.84 -765.69) rotate(-63.34)" xlink:href="#Degradado_sin_nombre_14"></linearGradient><linearGradient id="Degradado_sin_nombre_14-53" x1="498.67" y1="2726.86" x2="499.07" y2="2726.47" gradientTransform="translate(-2646.84 -765.69) rotate(-63.34)" xlink:href="#Degradado_sin_nombre_14"></linearGradient><linearGradient id="Degradado_sin_nombre_14-54" x1="498.59" y1="2726.9" x2="499.02" y2="2726.47" gradientTransform="translate(-2646.84 -765.69) rotate(-63.34)" xlink:href="#Degradado_sin_nombre_14"></linearGradient><linearGradient id="Degradado_sin_nombre_14-55" x1="498.51" y1="2726.94" x2="498.98" y2="2726.48" gradientTransform="translate(-2646.84 -765.69) rotate(-63.34)" xlink:href="#Degradado_sin_nombre_14"></linearGradient><linearGradient id="Degradado_sin_nombre_14-56" x1="498.46" y1="2726.99" x2="498.95" y2="2726.5" gradientTransform="translate(-2646.84 -765.69) rotate(-63.34)" xlink:href="#Degradado_sin_nombre_14"></linearGradient><linearGradient id="Degradado_sin_nombre_14-57" x1="498.45" y1="2727.03" x2="498.94" y2="2726.54" gradientTransform="translate(-2646.84 -765.69) rotate(-63.34)" xlink:href="#Degradado_sin_nombre_14"></linearGradient><linearGradient id="Degradado_sin_nombre_14-58" x1="498.43" y1="2727.08" x2="498.93" y2="2726.58" gradientTransform="translate(-2646.84 -765.69) rotate(-63.34)" xlink:href="#Degradado_sin_nombre_14"></linearGradient><linearGradient id="Degradado_sin_nombre_14-59" x1="498.42" y1="2727.13" x2="498.93" y2="2726.62" gradientTransform="translate(-2646.84 -765.69) rotate(-63.34)" xlink:href="#Degradado_sin_nombre_14"></linearGradient><linearGradient id="Degradado_sin_nombre_14-60" x1="498.42" y1="2727.17" x2="498.92" y2="2726.67" gradientTransform="translate(-2646.84 -765.69) rotate(-63.34)" xlink:href="#Degradado_sin_nombre_14"></linearGradient><linearGradient id="Degradado_sin_nombre_14-61" x1="498.42" y1="2727.22" x2="498.92" y2="2726.72" gradientTransform="translate(-2646.84 -765.69) rotate(-63.34)" xlink:href="#Degradado_sin_nombre_14"></linearGradient><linearGradient id="Degradado_sin_nombre_14-62" x1="498.42" y1="2727.27" x2="498.92" y2="2726.77" gradientTransform="translate(-2646.84 -765.69) rotate(-63.34)" xlink:href="#Degradado_sin_nombre_14"></linearGradient><linearGradient id="Degradado_sin_nombre_14-63" x1="498.42" y1="2727.32" x2="498.92" y2="2726.82" gradientTransform="translate(-2646.84 -765.69) rotate(-63.34)" xlink:href="#Degradado_sin_nombre_14"></linearGradient><linearGradient id="Degradado_sin_nombre_14-64" x1="498.42" y1="2727.37" x2="498.92" y2="2726.87" gradientTransform="translate(-2646.84 -765.69) rotate(-63.34)" xlink:href="#Degradado_sin_nombre_14"></linearGradient><linearGradient id="Degradado_sin_nombre_14-65" x1="498.42" y1="2727.42" x2="498.92" y2="2726.92" gradientTransform="translate(-2646.84 -765.69) rotate(-63.34)" xlink:href="#Degradado_sin_nombre_14"></linearGradient><linearGradient id="Degradado_sin_nombre_14-66" x1="498.42" y1="2727.47" x2="498.92" y2="2726.97" gradientTransform="translate(-2646.84 -765.69) rotate(-63.34)" xlink:href="#Degradado_sin_nombre_14"></linearGradient><linearGradient id="Degradado_sin_nombre_14-67" x1="498.42" y1="2727.52" x2="498.92" y2="2727.02" gradientTransform="translate(-2646.84 -765.69) rotate(-63.34)" xlink:href="#Degradado_sin_nombre_14"></linearGradient><linearGradient id="Degradado_sin_nombre_14-68" x1="498.42" y1="2727.57" x2="498.92" y2="2727.06" gradientTransform="translate(-2646.84 -765.69) rotate(-63.34)" xlink:href="#Degradado_sin_nombre_14"></linearGradient><linearGradient id="Degradado_sin_nombre_14-69" x1="498.42" y1="2727.62" x2="498.92" y2="2727.11" gradientTransform="translate(-2646.84 -765.69) rotate(-63.34)" xlink:href="#Degradado_sin_nombre_14"></linearGradient><linearGradient id="Degradado_sin_nombre_14-70" x1="498.42" y1="2727.67" x2="498.92" y2="2727.16" gradientTransform="translate(-2646.84 -765.69) rotate(-63.34)" xlink:href="#Degradado_sin_nombre_14"></linearGradient><linearGradient id="Degradado_sin_nombre_14-71" x1="498.42" y1="2727.72" x2="498.92" y2="2727.21" gradientTransform="translate(-2646.84 -765.69) rotate(-63.34)" xlink:href="#Degradado_sin_nombre_14"></linearGradient><linearGradient id="Degradado_sin_nombre_14-72" x1="498.42" y1="2727.77" x2="498.92" y2="2727.26" gradientTransform="translate(-2646.84 -765.69) rotate(-63.34)" xlink:href="#Degradado_sin_nombre_14"></linearGradient><linearGradient id="Degradado_sin_nombre_14-73" x1="498.42" y1="2727.82" x2="498.92" y2="2727.31" gradientTransform="translate(-2646.84 -765.69) rotate(-63.34)" xlink:href="#Degradado_sin_nombre_14"></linearGradient><linearGradient id="Degradado_sin_nombre_14-74" x1="498.42" y1="2727.87" x2="498.92" y2="2727.36" gradientTransform="translate(-2646.84 -765.69) rotate(-63.34)" xlink:href="#Degradado_sin_nombre_14"></linearGradient><linearGradient id="Degradado_sin_nombre_14-75" x1="498.42" y1="2727.92" x2="498.92" y2="2727.41" gradientTransform="translate(-2646.84 -765.69) rotate(-63.34)" xlink:href="#Degradado_sin_nombre_14"></linearGradient><linearGradient id="Degradado_sin_nombre_14-76" x1="498.42" y1="2727.96" x2="498.92" y2="2727.46" gradientTransform="translate(-2646.84 -765.69) rotate(-63.34)" xlink:href="#Degradado_sin_nombre_14"></linearGradient><linearGradient id="Degradado_sin_nombre_14-77" x1="498.42" y1="2728.01" x2="498.92" y2="2727.51" gradientTransform="translate(-2646.84 -765.69) rotate(-63.34)" xlink:href="#Degradado_sin_nombre_14"></linearGradient><linearGradient id="Degradado_sin_nombre_14-78" x1="498.42" y1="2728.06" x2="498.92" y2="2727.56" gradientTransform="translate(-2646.84 -765.69) rotate(-63.34)" xlink:href="#Degradado_sin_nombre_14"></linearGradient><linearGradient id="Degradado_sin_nombre_14-79" x1="498.41" y1="2728.11" x2="498.92" y2="2727.6" gradientTransform="translate(-2646.84 -765.69) rotate(-63.34)" xlink:href="#Degradado_sin_nombre_14"></linearGradient><linearGradient id="Degradado_sin_nombre_14-80" x1="498.41" y1="2728.15" x2="498.9" y2="2727.65" gradientTransform="translate(-2646.84 -765.69) rotate(-63.34)" xlink:href="#Degradado_sin_nombre_14"></linearGradient><linearGradient id="Degradado_sin_nombre_14-81" x1="498.4" y1="2728.2" x2="498.89" y2="2727.7" gradientTransform="translate(-2646.84 -765.69) rotate(-63.34)" xlink:href="#Degradado_sin_nombre_14"></linearGradient><linearGradient id="Degradado_sin_nombre_14-82" x1="498.39" y1="2728.24" x2="498.88" y2="2727.75" gradientTransform="translate(-2646.84 -765.69) rotate(-63.34)" xlink:href="#Degradado_sin_nombre_14"></linearGradient><linearGradient id="Degradado_sin_nombre_14-83" x1="498.39" y1="2728.28" x2="498.87" y2="2727.8" gradientTransform="translate(-2646.84 -765.69) rotate(-63.34)" xlink:href="#Degradado_sin_nombre_14"></linearGradient><linearGradient id="Degradado_sin_nombre_14-84" x1="498.38" y1="2728.33" x2="498.86" y2="2727.85" gradientTransform="translate(-2646.84 -765.69) rotate(-63.34)" xlink:href="#Degradado_sin_nombre_14"></linearGradient><linearGradient id="Degradado_sin_nombre_14-85" x1="498.37" y1="2728.37" x2="498.85" y2="2727.89" gradientTransform="translate(-2646.84 -765.69) rotate(-63.34)" xlink:href="#Degradado_sin_nombre_14"></linearGradient><linearGradient id="Degradado_sin_nombre_14-86" x1="498.34" y1="2728.39" x2="498.8" y2="2727.93" gradientTransform="translate(-2646.84 -765.69) rotate(-63.34)" xlink:href="#Degradado_sin_nombre_14"></linearGradient><linearGradient id="Degradado_sin_nombre_14-87" x1="498.3" y1="2728.39" x2="498.72" y2="2727.98" gradientTransform="translate(-2646.84 -765.69) rotate(-63.34)" xlink:href="#Degradado_sin_nombre_14"></linearGradient><linearGradient id="Degradado_sin_nombre_14-88" x1="498.26" y1="2728.4" x2="498.64" y2="2728.02" gradientTransform="translate(-2646.84 -765.69) rotate(-63.34)" xlink:href="#Degradado_sin_nombre_14"></linearGradient><linearGradient id="Degradado_sin_nombre_14-89" x1="498.02" y1="2728.6" x2="498.56" y2="2728.06" gradientTransform="translate(-2646.84 -765.69) rotate(-63.34)" xlink:href="#Degradado_sin_nombre_14"></linearGradient><clipPath id="clip-path-20"><path class="cls-4" d="M15,11.21h0a.54.54,0,0,1,.54.54v.81a.49.49,0,0,1-.49.49H15a.49.49,0,0,1-.49-.49v-.81a.54.54,0,0,1,.54-.54Z" transform="translate(-3.77 7.73) rotate(-25.71)"></path></clipPath><linearGradient id="Degradado_sin_nombre_14-91" x1="-3908.87" y1="3435.96" x2="-3908.56" y2="3435.65" gradientTransform="translate(-3723.74 3633.62) rotate(177.23)" xlink:href="#Degradado_sin_nombre_14"></linearGradient><linearGradient id="Degradado_sin_nombre_14-92" x1="-3908.95" y1="3436" x2="-3908.71" y2="3435.76" gradientTransform="translate(-3723.74 3633.62) rotate(177.23)" xlink:href="#Degradado_sin_nombre_14"></linearGradient><linearGradient id="Degradado_sin_nombre_14-93" x1="-3909.03" y1="3436.05" x2="-3908.75" y2="3435.76" gradientTransform="translate(-3723.74 3633.62) rotate(177.23)" xlink:href="#Degradado_sin_nombre_14"></linearGradient><linearGradient id="Degradado_sin_nombre_14-94" x1="-3909.11" y1="3436.09" x2="-3908.79" y2="3435.77" gradientTransform="translate(-3723.74 3633.62) rotate(177.23)" xlink:href="#Degradado_sin_nombre_14"></linearGradient><linearGradient id="Degradado_sin_nombre_14-95" x1="-3909.19" y1="3436.13" x2="-3908.84" y2="3435.78" gradientTransform="translate(-3723.74 3633.62) rotate(177.23)" xlink:href="#Degradado_sin_nombre_14"></linearGradient><linearGradient id="Degradado_sin_nombre_14-96" x1="-3909.27" y1="3436.18" x2="-3908.88" y2="3435.78" gradientTransform="translate(-3723.74 3633.62) rotate(177.23)" xlink:href="#Degradado_sin_nombre_14"></linearGradient><linearGradient id="Degradado_sin_nombre_14-97" x1="-3909.35" y1="3436.22" x2="-3908.92" y2="3435.79" gradientTransform="translate(-3723.74 3633.62) rotate(177.23)" xlink:href="#Degradado_sin_nombre_14"></linearGradient><linearGradient id="Degradado_sin_nombre_14-98" x1="-3909.43" y1="3436.26" x2="-3908.96" y2="3435.8" gradientTransform="translate(-3723.74 3633.62) rotate(177.23)" xlink:href="#Degradado_sin_nombre_14"></linearGradient><linearGradient id="Degradado_sin_nombre_14-99" x1="-3909.48" y1="3436.31" x2="-3908.99" y2="3435.82" gradientTransform="translate(-3723.74 3633.62) rotate(177.23)" xlink:href="#Degradado_sin_nombre_14"></linearGradient><linearGradient id="Degradado_sin_nombre_14-100" x1="-3909.5" y1="3436.35" x2="-3909" y2="3435.86" gradientTransform="translate(-3723.74 3633.62) rotate(177.23)" xlink:href="#Degradado_sin_nombre_14"></linearGradient><linearGradient id="Degradado_sin_nombre_14-101" x1="-3909.51" y1="3436.4" x2="-3909.01" y2="3435.9" gradientTransform="translate(-3723.74 3633.62) rotate(177.23)" xlink:href="#Degradado_sin_nombre_14"></linearGradient><linearGradient id="Degradado_sin_nombre_14-102" x1="-3909.52" y1="3436.45" x2="-3909.02" y2="3435.94" gradientTransform="translate(-3723.74 3633.62) rotate(177.23)" xlink:href="#Degradado_sin_nombre_14"></linearGradient><linearGradient id="Degradado_sin_nombre_14-103" x1="-3909.53" y1="3436.49" x2="-3909.02" y2="3435.99" gradientTransform="translate(-3723.74 3633.62) rotate(177.23)" xlink:href="#Degradado_sin_nombre_14"></linearGradient><linearGradient id="Degradado_sin_nombre_14-104" x1="-3909.53" y1="3436.54" x2="-3909.02" y2="3436.04" gradientTransform="translate(-3723.74 3633.62) rotate(177.23)" xlink:href="#Degradado_sin_nombre_14"></linearGradient><linearGradient id="Degradado_sin_nombre_14-105" x1="-3909.53" y1="3436.59" x2="-3909.02" y2="3436.09" gradientTransform="translate(-3723.74 3633.62) rotate(177.23)" xlink:href="#Degradado_sin_nombre_14"></linearGradient><linearGradient id="Degradado_sin_nombre_14-106" x1="-3909.53" y1="3436.64" x2="-3909.02" y2="3436.14" gradientTransform="translate(-3723.74 3633.62) rotate(177.23)" xlink:href="#Degradado_sin_nombre_14"></linearGradient><linearGradient id="Degradado_sin_nombre_14-107" x1="-3909.53" y1="3436.69" x2="-3909.02" y2="3436.19" gradientTransform="translate(-3723.74 3633.62) rotate(177.23)" xlink:href="#Degradado_sin_nombre_14"></linearGradient><linearGradient id="Degradado_sin_nombre_14-108" x1="-3909.53" y1="3436.74" x2="-3909.02" y2="3436.23" gradientTransform="translate(-3723.74 3633.62) rotate(177.23)" xlink:href="#Degradado_sin_nombre_14"></linearGradient><linearGradient id="Degradado_sin_nombre_14-109" x1="-3909.53" y1="3436.79" x2="-3909.02" y2="3436.28" gradientTransform="translate(-3723.74 3633.62) rotate(177.23)" xlink:href="#Degradado_sin_nombre_14"></linearGradient><linearGradient id="Degradado_sin_nombre_14-110" x1="-3909.53" y1="3436.84" x2="-3909.02" y2="3436.33" gradientTransform="translate(-3723.74 3633.62) rotate(177.23)" xlink:href="#Degradado_sin_nombre_14"></linearGradient><linearGradient id="Degradado_sin_nombre_14-111" x1="-3909.53" y1="3436.89" x2="-3909.02" y2="3436.38" gradientTransform="translate(-3723.74 3633.62) rotate(177.23)" xlink:href="#Degradado_sin_nombre_14"></linearGradient><linearGradient id="Degradado_sin_nombre_14-112" x1="-3909.53" y1="3436.94" x2="-3909.02" y2="3436.43" gradientTransform="translate(-3723.74 3633.62) rotate(177.23)" xlink:href="#Degradado_sin_nombre_14"></linearGradient><linearGradient id="Degradado_sin_nombre_14-113" x1="-3909.53" y1="3436.99" x2="-3909.02" y2="3436.48" gradientTransform="translate(-3723.74 3633.62) rotate(177.23)" xlink:href="#Degradado_sin_nombre_14"></linearGradient><linearGradient id="Degradado_sin_nombre_14-114" x1="-3909.53" y1="3437.04" x2="-3909.02" y2="3436.53" gradientTransform="translate(-3723.74 3633.62) rotate(177.23)" xlink:href="#Degradado_sin_nombre_14"></linearGradient><linearGradient id="Degradado_sin_nombre_14-115" x1="-3909.53" y1="3437.09" x2="-3909.02" y2="3436.58" gradientTransform="translate(-3723.74 3633.62) rotate(177.23)" xlink:href="#Degradado_sin_nombre_14"></linearGradient><linearGradient id="Degradado_sin_nombre_14-116" x1="-3909.53" y1="3437.13" x2="-3909.02" y2="3436.63" gradientTransform="translate(-3723.74 3633.62) rotate(177.23)" xlink:href="#Degradado_sin_nombre_14"></linearGradient><linearGradient id="Degradado_sin_nombre_14-117" x1="-3909.53" y1="3437.18" x2="-3909.02" y2="3436.68" gradientTransform="translate(-3723.74 3633.62) rotate(177.23)" xlink:href="#Degradado_sin_nombre_14"></linearGradient><linearGradient id="Degradado_sin_nombre_14-118" x1="-3909.53" y1="3437.23" x2="-3909.02" y2="3436.73" gradientTransform="translate(-3723.74 3633.62) rotate(177.23)" xlink:href="#Degradado_sin_nombre_14"></linearGradient><linearGradient id="Degradado_sin_nombre_14-119" x1="-3909.53" y1="3437.28" x2="-3909.02" y2="3436.78" gradientTransform="translate(-3723.74 3633.62) rotate(177.23)" xlink:href="#Degradado_sin_nombre_14"></linearGradient><linearGradient id="Degradado_sin_nombre_14-120" x1="-3909.53" y1="3437.33" x2="-3909.02" y2="3436.83" gradientTransform="translate(-3723.74 3633.62) rotate(177.23)" xlink:href="#Degradado_sin_nombre_14"></linearGradient><linearGradient id="Degradado_sin_nombre_14-121" x1="-3909.53" y1="3437.38" x2="-3909.02" y2="3436.88" gradientTransform="translate(-3723.74 3633.62) rotate(177.23)" xlink:href="#Degradado_sin_nombre_14"></linearGradient><linearGradient id="Degradado_sin_nombre_14-122" x1="-3909.53" y1="3437.43" x2="-3909.03" y2="3436.92" gradientTransform="translate(-3723.74 3633.62) rotate(177.23)" xlink:href="#Degradado_sin_nombre_14"></linearGradient><linearGradient id="Degradado_sin_nombre_14-123" x1="-3909.54" y1="3437.47" x2="-3909.04" y2="3436.97" gradientTransform="translate(-3723.74 3633.62) rotate(177.23)" xlink:href="#Degradado_sin_nombre_14"></linearGradient><linearGradient id="Degradado_sin_nombre_14-124" x1="-3909.54" y1="3437.51" x2="-3909.05" y2="3437.02" gradientTransform="translate(-3723.74 3633.62) rotate(177.23)" xlink:href="#Degradado_sin_nombre_14"></linearGradient><linearGradient id="Degradado_sin_nombre_14-125" x1="-3909.55" y1="3437.56" x2="-3909.06" y2="3437.07" gradientTransform="translate(-3723.74 3633.62) rotate(177.23)" xlink:href="#Degradado_sin_nombre_14"></linearGradient><linearGradient id="Degradado_sin_nombre_14-126" x1="-3909.56" y1="3437.6" x2="-3909.07" y2="3437.12" gradientTransform="translate(-3723.74 3633.62) rotate(177.23)" xlink:href="#Degradado_sin_nombre_14"></linearGradient><linearGradient id="Degradado_sin_nombre_14-127" x1="-3909.56" y1="3437.64" x2="-3909.08" y2="3437.17" gradientTransform="translate(-3723.74 3633.62) rotate(177.23)" xlink:href="#Degradado_sin_nombre_14"></linearGradient><linearGradient id="Degradado_sin_nombre_14-128" x1="-3909.57" y1="3437.68" x2="-3909.1" y2="3437.21" gradientTransform="translate(-3723.74 3633.62) rotate(177.23)" xlink:href="#Degradado_sin_nombre_14"></linearGradient><linearGradient id="Degradado_sin_nombre_14-129" x1="-3909.6" y1="3437.71" x2="-3909.15" y2="3437.25" gradientTransform="translate(-3723.74 3633.62) rotate(177.23)" xlink:href="#Degradado_sin_nombre_14"></linearGradient><linearGradient id="Degradado_sin_nombre_14-130" x1="-3909.64" y1="3437.71" x2="-3909.23" y2="3437.3" gradientTransform="translate(-3723.74 3633.62) rotate(177.23)" xlink:href="#Degradado_sin_nombre_14"></linearGradient><linearGradient id="Degradado_sin_nombre_14-131" x1="-3909.68" y1="3437.72" x2="-3909.3" y2="3437.34" gradientTransform="translate(-3723.74 3633.62) rotate(177.23)" xlink:href="#Degradado_sin_nombre_14"></linearGradient><linearGradient id="Degradado_sin_nombre_14-132" x1="-3909.92" y1="3437.92" x2="-3909.38" y2="3437.38" gradientTransform="translate(-3723.74 3633.62) rotate(177.23)" xlink:href="#Degradado_sin_nombre_14"></linearGradient><linearGradient id="Degradado_sin_nombre_12" x1="5.83" y1="12.15" x2="10.55" y2="7.43" gradientUnits="userSpaceOnUse"><stop offset="0" stop-color="#4f54b7" stop-opacity="0"></stop><stop offset="0.02" stop-color="#4f54b7" stop-opacity="0.02"></stop><stop offset="0.37" stop-color="#4f54b7" stop-opacity="0.44"></stop><stop offset="0.67" stop-color="#4f54b7" stop-opacity="0.74"></stop><stop offset="0.88" stop-color="#4f54b7" stop-opacity="0.93"></stop><stop offset="1" stop-color="#4f54b7"></stop></linearGradient></defs><g class="cls-5"><g id="Capa_1" data-name="Capa 1"><image class="cls-6" width="1105" height="1105" transform="translate(-1.54 -98.16) scale(0.24)"></image><path class="cls-1" d="M-19.1,18.62H-7.19l1.69-4h-9.6A9.15,9.15,0,0,1-19.1,18.62Z"></path><g class="cls-7"><rect class="cls-1" x="-22.79" y="10.82" width="26.47" height="18.24"></rect><g class="cls-8"><polygon class="cls-1" points="-18.14 10.82 0.11 29.06 -0.44 29.06 -18.68 10.82 -18.14 10.82"></polygon><polygon class="cls-1" points="-17.59 10.82 0.65 29.06 0.11 29.06 -18.14 10.82 -17.59 10.82"></polygon><polygon class="cls-1" points="-17.05 10.82 1.2 29.06 0.65 29.06 -17.59 10.82 -17.05 10.82"></polygon><polygon class="cls-1" points="-16.5 10.82 1.74 29.06 1.2 29.06 -17.05 10.82 -16.5 10.82"></polygon><polygon class="cls-1" points="-15.95 10.82 2.29 29.06 1.74 29.06 -16.5 10.82 -15.95 10.82"></polygon><polygon class="cls-1" points="-15.41 10.82 2.83 29.06 2.29 29.06 -15.95 10.82 -15.41 10.82"></polygon><polygon class="cls-1" points="-14.86 10.82 3.38 29.06 2.83 29.06 -15.41 10.82 -14.86 10.82"></polygon><polygon class="cls-1" points="-14.32 10.82 3.67 28.81 3.67 29.06 3.38 29.06 -14.86 10.82 -14.32 10.82"></polygon><polygon class="cls-1" points="-13.77 10.82 3.67 28.27 3.67 28.81 -14.32 10.82 -13.77 10.82"></polygon><polygon class="cls-1" points="-13.23 10.82 3.67 27.72 3.67 28.27 -13.77 10.82 -13.23 10.82"></polygon><polygon class="cls-1" points="-12.68 10.82 3.67 27.17 3.67 27.72 -13.23 10.82 -12.68 10.82"></polygon><polygon class="cls-1" points="-12.14 10.82 3.67 26.63 3.67 27.17 -12.68 10.82 -12.14 10.82"></polygon><polygon class="cls-1" points="-11.59 10.82 3.67 26.08 3.67 26.63 -12.14 10.82 -11.59 10.82"></polygon><polygon class="cls-1" points="-11.05 10.82 3.67 25.54 3.67 26.08 -11.59 10.82 -11.05 10.82"></polygon><polygon class="cls-1" points="-10.5 10.82 3.67 24.99 3.67 25.54 -11.05 10.82 -10.5 10.82"></polygon><polygon class="cls-1" points="-9.96 10.82 3.67 24.45 3.67 24.99 -10.5 10.82 -9.96 10.82"></polygon><polygon class="cls-1" points="-9.41 10.82 3.67 23.9 3.67 24.45 -9.96 10.82 -9.41 10.82"></polygon><polygon class="cls-1" points="-8.87 10.82 3.67 23.36 3.67 23.9 -9.41 10.82 -8.87 10.82"></polygon><polygon class="cls-1" points="-8.32 10.82 3.67 22.81 3.67 23.36 -8.87 10.82 -8.32 10.82"></polygon><polygon class="cls-1" points="-7.78 10.82 3.67 22.27 3.67 22.81 -8.32 10.82 -7.78 10.82"></polygon><polygon class="cls-1" points="-7.23 10.82 3.67 21.72 3.67 22.27 -7.78 10.82 -7.23 10.82"></polygon><polygon class="cls-1" points="-6.69 10.82 3.67 21.18 3.67 21.72 -7.23 10.82 -6.69 10.82"></polygon><polygon class="cls-1" points="-6.14 10.82 3.67 20.63 3.67 21.18 -6.69 10.82 -6.14 10.82"></polygon><polygon class="cls-1" points="-5.59 10.82 3.67 20.09 3.67 20.63 -6.14 10.82 -5.59 10.82"></polygon><polygon class="cls-1" points="-5.05 10.82 3.67 19.54 3.67 20.09 -5.59 10.82 -5.05 10.82"></polygon><polygon class="cls-1" points="-4.5 10.82 3.67 19 3.67 19.54 -5.05 10.82 -4.5 10.82"></polygon><polygon class="cls-1" points="-3.96 10.82 3.67 18.45 3.67 19 -4.5 10.82 -3.96 10.82"></polygon><polygon class="cls-1" points="-3.41 10.82 3.67 17.91 3.67 18.45 -3.96 10.82 -3.41 10.82"></polygon><polygon class="cls-1" points="-2.87 10.82 3.67 17.36 3.67 17.91 -3.41 10.82 -2.87 10.82"></polygon><polygon class="cls-1" points="-2.32 10.82 3.67 16.82 3.67 17.36 -2.87 10.82 -2.32 10.82"></polygon><polygon class="cls-1" points="-1.78 10.82 3.67 16.27 3.67 16.82 -2.32 10.82 -1.78 10.82"></polygon><polygon class="cls-1" points="-1.23 10.82 3.67 15.72 3.67 16.27 -1.78 10.82 -1.23 10.82"></polygon><polygon class="cls-1" points="-0.69 10.82 3.67 15.18 3.67 15.72 -1.23 10.82 -0.69 10.82"></polygon><polygon class="cls-1" points="-0.14 10.82 3.67 14.63 3.67 15.18 -0.69 10.82 -0.14 10.82"></polygon><polygon class="cls-1" points="0.4 10.82 3.67 14.09 3.67 14.63 -0.14 10.82 0.4 10.82"></polygon><polygon class="cls-1" points="0.95 10.82 3.67 13.54 3.67 14.09 0.4 10.82 0.95 10.82"></polygon><polygon class="cls-1" points="1.49 10.82 3.67 13 3.67 13.54 0.95 10.82 1.49 10.82"></polygon><polygon class="cls-1" points="2.04 10.82 3.67 12.45 3.67 13 1.49 10.82 2.04 10.82"></polygon><polygon class="cls-1" points="2.58 10.82 3.67 11.91 3.67 12.45 2.04 10.82 2.58 10.82"></polygon><polygon class="cls-1" points="3.13 10.82 3.67 11.36 3.67 11.91 2.58 10.82 3.13 10.82"></polygon><polygon class="cls-1" points="3.67 10.82 3.67 10.82 3.67 11.36 3.13 10.82 3.67 10.82"></polygon></g></g><path class="cls-1" d="M11.16,3.59,8.8,9.2a2.1,2.1,0,0,1-1.93,1.27H5a.72.72,0,1,1-.71-.71.72.72,0,0,1,.47.18L9.43,5.58l.87-2H2.54L1.67,5.53H5.91V5.47a.72.72,0,1,1,.71.72A.7.7,0,0,1,6.13,6l-4,3.72A3.64,3.64,0,0,0,.61,12l-.11.39H6.9a4.06,4.06,0,0,0,3.73-2.47l2.68-6.35Z"></path><g class="cls-9"><rect class="cls-1" x="0.51" y="3.58" width="12.79" height="8.84"></rect><path class="cls-1" d="M2.35,2.83h0a.54.54,0,0,1,.54.54v.81a.49.49,0,0,1-.49.49H2.3a.49.49,0,0,1-.49-.49V3.36a.54.54,0,0,1,.54-.54Z" transform="translate(5.98 6.28) rotate(157.05)"></path><g class="cls-10"><polygon class="cls-1" points="3.11 2.94 2.49 2.69 3.11 2.69 3.11 2.94"></polygon><polygon class="cls-1" points="3.11 3 2.37 2.69 2.49 2.69 3.11 2.94 3.11 3"></polygon><polygon class="cls-1" points="3.11 3.04 2.24 2.69 2.37 2.69 3.11 3 3.11 3.04"></polygon><polygon class="cls-1" points="3.11 3.09 2.12 2.69 2.24 2.69 3.11 3.04 3.11 3.09"></polygon><polygon class="cls-1" points="3.11 3.14 2 2.69 2.12 2.69 3.11 3.09 3.11 3.14"></polygon><polygon class="cls-1" points="3.11 3.19 1.88 2.69 2 2.69 3.11 3.14 3.11 3.19"></polygon><polygon class="cls-1" points="3.11 3.24 1.75 2.69 1.88 2.69 3.11 3.19 3.11 3.24"></polygon><polygon class="cls-1" points="3.11 3.29 1.63 2.69 1.75 2.69 3.11 3.24 3.11 3.29"></polygon><polygon class="cls-1" points="3.11 3.34 1.55 2.71 1.56 2.69 1.63 2.69 3.11 3.29 3.11 3.34"></polygon><polygon class="cls-1" points="3.11 3.39 1.53 2.75 1.55 2.71 3.11 3.34 3.11 3.39"></polygon><polygon class="cls-1" points="3.11 3.44 1.52 2.8 1.53 2.75 3.11 3.39 3.11 3.44"></polygon><polygon class="cls-1" points="3.11 3.49 1.5 2.84 1.52 2.8 3.11 3.44 3.11 3.49"></polygon><polygon class="cls-1" points="3.11 3.54 1.5 2.89 1.5 2.84 1.5 2.84 3.11 3.49 3.11 3.54"></polygon><polygon class="cls-1" points="3.11 3.59 1.5 2.94 1.5 2.89 3.11 3.54 3.11 3.59"></polygon><polygon class="cls-1" points="3.11 3.64 1.5 2.99 1.5 2.94 3.11 3.59 3.11 3.64"></polygon><polygon class="cls-1" points="3.11 3.69 1.5 3.04 1.5 2.99 3.11 3.64 3.11 3.69"></polygon><polygon class="cls-1" points="3.11 3.74 1.5 3.09 1.5 3.04 3.11 3.69 3.11 3.74"></polygon><polygon class="cls-1" points="3.11 3.79 1.5 3.13 1.5 3.09 3.11 3.74 3.11 3.79"></polygon><polygon class="cls-1" points="3.11 3.84 1.5 3.19 1.5 3.13 3.11 3.79 3.11 3.84"></polygon><polygon class="cls-1" points="3.11 3.89 1.5 3.23 1.5 3.19 3.11 3.84 3.11 3.89"></polygon><polygon class="cls-1" points="3.11 3.94 1.5 3.28 1.5 3.23 3.11 3.89 3.11 3.94"></polygon><polygon class="cls-1" points="3.11 3.99 1.5 3.33 1.5 3.28 3.11 3.94 3.11 3.99"></polygon><polygon class="cls-1" points="3.11 4.04 1.5 3.38 1.5 3.33 3.11 3.99 3.11 4.04"></polygon><polygon class="cls-1" points="3.11 4.08 1.5 3.43 1.5 3.38 3.11 4.04 3.11 4.08"></polygon><polygon class="cls-1" points="3.11 4.13 1.5 3.48 1.5 3.43 3.11 4.08 3.11 4.13"></polygon><polygon class="cls-1" points="3.11 4.18 1.5 3.53 1.5 3.48 3.11 4.13 3.11 4.18"></polygon><polygon class="cls-1" points="3.11 4.23 1.5 3.58 1.5 3.53 3.11 4.18 3.11 4.23"></polygon><polygon class="cls-1" points="3.11 4.28 1.5 3.63 1.5 3.58 3.11 4.23 3.11 4.28"></polygon><polygon class="cls-1" points="3.11 4.33 1.5 3.68 1.5 3.63 3.11 4.28 3.11 4.33"></polygon><polygon class="cls-1" points="3.11 4.38 1.5 3.73 1.5 3.68 3.11 4.33 3.11 4.38"></polygon><polygon class="cls-1" points="3.11 4.43 1.5 3.78 1.5 3.73 3.11 4.38 3.11 4.43"></polygon><polygon class="cls-1" points="3.11 4.44 3.1 4.47 1.5 3.83 1.5 3.78 3.11 4.43 3.11 4.44"></polygon><polygon class="cls-1" points="3.1 4.47 3.08 4.52 1.5 3.88 1.5 3.83 3.1 4.47"></polygon><polygon class="cls-1" points="3.08 4.52 3.06 4.56 1.5 3.93 1.5 3.88 3.08 4.52"></polygon><polygon class="cls-1" points="3.06 4.56 3.04 4.6 1.5 3.98 1.5 3.93 3.06 4.56"></polygon><polygon class="cls-1" points="3.04 4.6 3.03 4.64 1.5 4.03 1.5 3.98 3.04 4.6"></polygon><polygon class="cls-1" points="3.03 4.64 3.01 4.69 1.5 4.08 1.5 4.03 3.03 4.64"></polygon><polygon class="cls-1" points="3.01 4.69 3 4.71 2.94 4.71 1.5 4.13 1.5 4.08 3.01 4.69"></polygon><polygon class="cls-1" points="2.82 4.71 1.5 4.18 1.5 4.13 2.94 4.71 2.82 4.71"></polygon><polygon class="cls-1" points="2.69 4.71 1.5 4.22 1.5 4.18 2.82 4.71 2.69 4.71"></polygon><polygon class="cls-1" points="2.57 4.71 1.5 4.28 1.5 4.22 2.69 4.71 2.57 4.71"></polygon><polygon class="cls-1" points="1.5 4.28 2.57 4.71 1.5 4.71 1.5 4.28"></polygon></g></g><path class="cls-1" d="M8.92,12.41h5.76l.82-1.94H10.86A4.42,4.42,0,0,1,8.92,12.41Z"></path><g class="cls-11"><rect class="cls-1" x="7.13" y="8.64" width="12.81" height="8.83"></rect><g class="cls-12"><polygon class="cls-1" points="7.13 15.88 8.72 17.46 8.45 17.46 7.13 16.14 7.13 15.88"></polygon><polygon class="cls-1" points="7.13 15.62 8.98 17.46 8.72 17.46 7.13 15.88 7.13 15.62"></polygon><polygon class="cls-1" points="7.13 15.35 9.24 17.46 8.98 17.46 7.13 15.62 7.13 15.35"></polygon><polygon class="cls-1" points="7.13 15.09 9.51 17.46 9.24 17.46 7.13 15.35 7.13 15.09"></polygon><polygon class="cls-1" points="7.13 14.83 9.77 17.46 9.51 17.46 7.13 15.09 7.13 14.83"></polygon><polygon class="cls-1" points="7.13 14.56 10.04 17.46 9.77 17.46 7.13 14.83 7.13 14.56"></polygon><polygon class="cls-1" points="7.13 14.3 10.3 17.46 10.04 17.46 7.13 14.56 7.13 14.3"></polygon><polygon class="cls-1" points="7.13 14.04 10.56 17.46 10.3 17.46 7.13 14.3 7.13 14.04"></polygon><polygon class="cls-1" points="7.13 13.77 10.83 17.46 10.56 17.46 7.13 14.04 7.13 13.77"></polygon><polygon class="cls-1" points="7.13 13.51 11.09 17.46 10.83 17.46 7.13 13.77 7.13 13.51"></polygon><polygon class="cls-1" points="7.13 13.24 11.35 17.46 11.09 17.46 7.13 13.51 7.13 13.24"></polygon><polygon class="cls-1" points="7.13 12.98 11.62 17.46 11.35 17.46 7.13 13.24 7.13 12.98"></polygon><polygon class="cls-1" points="7.13 12.72 11.88 17.46 11.62 17.46 7.13 12.98 7.13 12.72"></polygon><polygon class="cls-1" points="7.13 12.45 12.14 17.46 11.88 17.46 7.13 12.72 7.13 12.45"></polygon><polygon class="cls-1" points="7.13 12.19 12.41 17.46 12.14 17.46 7.13 12.45 7.13 12.19"></polygon><polygon class="cls-1" points="7.13 11.92 12.67 17.46 12.41 17.46 7.13 12.19 7.13 11.92"></polygon><polygon class="cls-1" points="7.13 11.66 12.94 17.46 12.67 17.46 7.13 11.92 7.13 11.66"></polygon><polygon class="cls-1" points="7.13 11.4 13.2 17.46 12.94 17.46 7.13 11.66 7.13 11.4"></polygon><polygon class="cls-1" points="7.13 11.13 13.46 17.46 13.2 17.46 7.13 11.4 7.13 11.13"></polygon><polygon class="cls-1" points="7.13 10.87 13.73 17.46 13.46 17.46 7.13 11.13 7.13 10.87"></polygon><polygon class="cls-1" points="7.13 10.61 13.99 17.46 13.73 17.46 7.13 10.87 7.13 10.61"></polygon><polygon class="cls-1" points="7.13 10.34 14.26 17.46 13.99 17.46 7.13 10.61 7.13 10.34"></polygon><polygon class="cls-1" points="7.13 10.08 14.52 17.46 14.26 17.46 7.13 10.34 7.13 10.08"></polygon><polygon class="cls-1" points="7.13 9.81 14.78 17.46 14.52 17.46 7.13 10.08 7.13 9.81"></polygon><polygon class="cls-1" points="7.13 9.55 15.05 17.46 14.78 17.46 7.13 9.81 7.13 9.55"></polygon><polygon class="cls-1" points="7.13 9.29 15.31 17.46 15.05 17.46 7.13 9.55 7.13 9.29"></polygon><polygon class="cls-1" points="7.13 9.02 15.57 17.46 15.31 17.46 7.13 9.29 7.13 9.02"></polygon><polygon class="cls-1" points="7.13 8.76 15.84 17.46 15.57 17.46 7.13 9.02 7.13 8.76"></polygon><polygon class="cls-1" points="7.28 8.64 16.1 17.46 15.84 17.46 7.13 8.76 7.13 8.64 7.28 8.64"></polygon><polygon class="cls-1" points="7.54 8.64 16.37 17.46 16.1 17.46 7.28 8.64 7.54 8.64"></polygon><polygon class="cls-1" points="7.8 8.64 16.63 17.46 16.37 17.46 7.54 8.64 7.8 8.64"></polygon><polygon class="cls-1" points="8.07 8.64 16.89 17.46 16.63 17.46 7.8 8.64 8.07 8.64"></polygon><polygon class="cls-1" points="8.33 8.64 17.16 17.46 16.89 17.46 8.07 8.64 8.33 8.64"></polygon><polygon class="cls-1" points="8.6 8.64 17.42 17.46 17.16 17.46 8.33 8.64 8.6 8.64"></polygon><polygon class="cls-1" points="8.86 8.64 17.68 17.46 17.42 17.46 8.6 8.64 8.86 8.64"></polygon><polygon class="cls-1" points="9.12 8.64 17.95 17.46 17.68 17.46 8.86 8.64 9.12 8.64"></polygon><polygon class="cls-1" points="9.39 8.64 18.21 17.46 17.95 17.46 9.12 8.64 9.39 8.64"></polygon><polygon class="cls-1" points="9.65 8.64 18.48 17.46 18.21 17.46 9.39 8.64 9.65 8.64"></polygon><polygon class="cls-1" points="9.91 8.64 18.74 17.46 18.48 17.46 9.65 8.64 9.91 8.64"></polygon><polygon class="cls-1" points="10.18 8.64 19 17.46 18.74 17.46 9.91 8.64 10.18 8.64"></polygon><polygon class="cls-1" points="10.44 8.64 19.27 17.46 19 17.46 10.18 8.64 10.44 8.64"></polygon><polygon class="cls-1" points="10.71 8.64 19.53 17.46 19.27 17.46 10.44 8.64 10.71 8.64"></polygon><polygon class="cls-1" points="10.97 8.64 19.8 17.46 19.53 17.46 10.71 8.64 10.97 8.64"></polygon><polygon class="cls-1" points="11.23 8.64 19.94 17.34 19.94 17.46 19.8 17.46 10.97 8.64 11.23 8.64"></polygon><polygon class="cls-1" points="11.5 8.64 19.94 17.08 19.94 17.34 11.23 8.64 11.5 8.64"></polygon><polygon class="cls-1" points="11.76 8.64 19.94 16.82 19.94 17.08 11.5 8.64 11.76 8.64"></polygon><polygon class="cls-1" points="12.02 8.64 19.94 16.55 19.94 16.82 11.76 8.64 12.02 8.64"></polygon><polygon class="cls-1" points="12.29 8.64 19.94 16.29 19.94 16.55 12.02 8.64 12.29 8.64"></polygon><polygon class="cls-1" points="12.55 8.64 19.94 16.02 19.94 16.29 12.29 8.64 12.55 8.64"></polygon><polygon class="cls-1" points="12.82 8.64 19.94 15.76 19.94 16.02 12.55 8.64 12.82 8.64"></polygon><polygon class="cls-1" points="13.08 8.64 19.94 15.5 19.94 15.76 12.82 8.64 13.08 8.64"></polygon><polygon class="cls-1" points="13.34 8.64 19.94 15.23 19.94 15.5 13.08 8.64 13.34 8.64"></polygon><polygon class="cls-1" points="13.61 8.64 19.94 14.97 19.94 15.23 13.34 8.64 13.61 8.64"></polygon><polygon class="cls-1" points="13.87 8.64 19.94 14.71 19.94 14.97 13.61 8.64 13.87 8.64"></polygon><polygon class="cls-1" points="14.13 8.64 19.94 14.44 19.94 14.71 13.87 8.64 14.13 8.64"></polygon><polygon class="cls-1" points="14.4 8.64 19.94 14.18 19.94 14.44 14.13 8.64 14.4 8.64"></polygon><polygon class="cls-1" points="14.66 8.64 19.94 13.91 19.94 14.18 14.4 8.64 14.66 8.64"></polygon><polygon class="cls-1" points="14.93 8.64 19.94 13.65 19.94 13.91 14.66 8.64 14.93 8.64"></polygon><polygon class="cls-1" points="15.19 8.64 19.94 13.39 19.94 13.65 14.93 8.64 15.19 8.64"></polygon><polygon class="cls-1" points="15.45 8.64 19.94 13.12 19.94 13.39 15.19 8.64 15.45 8.64"></polygon><polygon class="cls-1" points="15.72 8.64 19.94 12.86 19.94 13.12 15.45 8.64 15.72 8.64"></polygon><polygon class="cls-1" points="15.98 8.64 19.94 12.6 19.94 12.86 15.72 8.64 15.98 8.64"></polygon><polygon class="cls-1" points="16.25 8.64 19.94 12.33 19.94 12.6 15.98 8.64 16.25 8.64"></polygon></g><path class="cls-1" d="M14.43,11.85h.71a0,0,0,0,1,0,0v1a0,0,0,0,1,0,0H13.41a0,0,0,0,1,0,0v0A1,1,0,0,1,14.43,11.85Z"></path><g class="cls-13"><polygon class="cls-1" points="13.41 12.87 13.41 12.87 13.41 11.85 15.14 11.85 15.14 12.87 13.41 12.87"></polygon><path class="cls-1" d="M13.41,12.8l.07.07Z"></path><polygon class="cls-1" points="13.41 12.73 13.55 12.87 13.48 12.87 13.41 12.8 13.41 12.73"></polygon><polygon class="cls-1" points="13.41 12.67 13.62 12.87 13.55 12.87 13.41 12.73 13.41 12.67"></polygon><polygon class="cls-1" points="13.41 12.6 13.68 12.87 13.62 12.87 13.41 12.67 13.41 12.6"></polygon><polygon class="cls-1" points="13.41 12.53 13.75 12.87 13.68 12.87 13.41 12.6 13.41 12.53"></polygon><polygon class="cls-1" points="13.41 12.46 13.82 12.87 13.75 12.87 13.41 12.53 13.41 12.46"></polygon><polygon class="cls-1" points="13.41 12.39 13.89 12.87 13.82 12.87 13.41 12.46 13.41 12.39"></polygon><polygon class="cls-1" points="13.41 12.32 13.96 12.87 13.89 12.87 13.41 12.39 13.41 12.32"></polygon><polygon class="cls-1" points="13.41 12.25 14.03 12.87 13.96 12.87 13.41 12.32 13.41 12.25"></polygon><polygon class="cls-1" points="13.41 12.18 14.1 12.87 14.03 12.87 13.41 12.25 13.41 12.18"></polygon><polygon class="cls-1" points="13.41 12.12 14.17 12.87 14.1 12.87 13.41 12.18 13.41 12.12"></polygon><polygon class="cls-1" points="13.41 12.05 14.23 12.87 14.17 12.87 13.41 12.12 13.41 12.05"></polygon><polygon class="cls-1" points="13.41 12.04 13.44 12.01 14.3 12.87 14.23 12.87 13.41 12.05 13.41 12.04"></polygon><polygon class="cls-1" points="13.44 12.01 13.47 11.97 14.37 12.87 14.3 12.87 13.44 12.01"></polygon><polygon class="cls-1" points="13.47 11.97 13.51 11.94 14.44 12.87 14.37 12.87 13.47 11.97"></polygon><polygon class="cls-1" points="13.51 11.94 13.54 11.9 14.51 12.87 14.44 12.87 13.51 11.94"></polygon><polygon class="cls-1" points="13.54 11.9 13.58 11.87 14.58 12.87 14.51 12.87 13.54 11.9"></polygon><polygon class="cls-1" points="13.58 11.87 13.59 11.85 13.63 11.85 14.65 12.87 14.58 12.87 13.58 11.87"></polygon><polygon class="cls-1" points="13.7 11.85 14.72 12.87 14.65 12.87 13.63 11.85 13.7 11.85"></polygon><polygon class="cls-1" points="13.77 11.85 14.79 12.87 14.72 12.87 13.7 11.85 13.77 11.85"></polygon><polygon class="cls-1" points="13.83 11.85 14.86 12.87 14.79 12.87 13.77 11.85 13.83 11.85"></polygon><polygon class="cls-1" points="13.9 11.85 14.92 12.87 14.86 12.87 13.83 11.85 13.9 11.85"></polygon><polygon class="cls-1" points="13.97 11.85 14.99 12.87 14.92 12.87 13.9 11.85 13.97 11.85"></polygon><polygon class="cls-1" points="14.04 11.85 15.06 12.87 14.99 12.87 13.97 11.85 14.04 11.85"></polygon><polygon class="cls-1" points="14.11 11.85 15.13 12.87 15.06 12.87 14.04 11.85 14.11 11.85"></polygon><polygon class="cls-1" points="14.18 11.85 15.14 12.82 15.14 12.87 15.13 12.87 14.11 11.85 14.18 11.85"></polygon><polygon class="cls-1" points="14.25 11.85 15.14 12.75 15.14 12.82 14.18 11.85 14.25 11.85"></polygon><polygon class="cls-1" points="14.32 11.85 15.14 12.68 15.14 12.75 14.25 11.85 14.32 11.85"></polygon><polygon class="cls-1" points="14.38 11.85 15.14 12.61 15.14 12.68 14.32 11.85 14.38 11.85"></polygon><polygon class="cls-1" points="14.45 11.85 15.14 12.54 15.14 12.61 14.38 11.85 14.45 11.85"></polygon><polygon class="cls-1" points="14.52 11.85 15.14 12.47 15.14 12.54 14.45 11.85 14.52 11.85"></polygon><polygon class="cls-1" points="14.59 11.85 15.14 12.4 15.14 12.47 14.52 11.85 14.59 11.85"></polygon><polygon class="cls-1" points="14.66 11.85 15.14 12.33 15.14 12.4 14.59 11.85 14.66 11.85"></polygon><polygon class="cls-1" points="14.73 11.85 15.14 12.27 15.14 12.33 14.66 11.85 14.73 11.85"></polygon><polygon class="cls-1" points="14.8 11.85 15.14 12.2 15.14 12.27 14.73 11.85 14.8 11.85"></polygon><polygon class="cls-1" points="14.87 11.85 15.14 12.13 15.14 12.2 14.8 11.85 14.87 11.85"></polygon><polygon class="cls-1" points="14.94 11.85 15.14 12.06 15.14 12.13 14.87 11.85 14.94 11.85"></polygon><polygon class="cls-1" points="15.01 11.85 15.14 11.99 15.14 12.06 14.94 11.85 15.01 11.85"></polygon><polygon class="cls-1" points="15.07 11.85 15.14 11.92 15.14 11.99 15.01 11.85 15.07 11.85"></polygon><polygon class="cls-1" points="15.14 11.85 15.14 11.85 15.14 11.92 15.07 11.85 15.14 11.85"></polygon></g><path class="cls-1" d="M15.32,10.37h0a.54.54,0,0,1,.54.54v1.3a0,0,0,0,1,0,0H14.79a0,0,0,0,1,0,0v-1.3A.54.54,0,0,1,15.32,10.37Z" transform="translate(-2.19 3.84) rotate(-13.33)"></path><g class="cls-14"><polygon class="cls-1" points="14.64 12.08 15.01 12.31 14.64 12.31 14.64 12.08"></polygon><polygon class="cls-1" points="14.64 12.03 15.1 12.31 15.01 12.31 14.64 12.08 14.64 12.03"></polygon><polygon class="cls-1" points="14.64 11.97 15.19 12.31 15.1 12.31 14.64 12.03 14.64 11.97"></polygon><polygon class="cls-1" points="14.64 11.92 15.27 12.31 15.19 12.31 14.64 11.97 14.64 11.92"></polygon><polygon class="cls-1" points="14.64 11.87 15.36 12.31 15.27 12.31 14.64 11.92 14.64 11.87"></polygon><polygon class="cls-1" points="14.64 11.81 15.45 12.31 15.36 12.31 14.64 11.87 14.64 11.81"></polygon><polygon class="cls-1" points="14.64 11.76 15.54 12.31 15.45 12.31 14.64 11.81 14.64 11.76"></polygon><polygon class="cls-1" points="14.64 11.7 15.62 12.31 15.54 12.31 14.64 11.76 14.64 11.7"></polygon><polygon class="cls-1" points="14.64 11.65 15.71 12.31 15.62 12.31 14.64 11.7 14.64 11.65"></polygon><polygon class="cls-1" points="14.64 11.6 15.8 12.31 15.71 12.31 14.64 11.65 14.64 11.6"></polygon><polygon class="cls-1" points="14.64 11.54 15.89 12.31 15.8 12.31 14.64 11.6 14.64 11.54"></polygon><polygon class="cls-1" points="14.64 11.49 15.97 12.31 15.89 12.31 14.64 11.54 14.64 11.49"></polygon><polygon class="cls-1" points="14.64 11.43 16.03 12.29 16.02 12.31 15.97 12.31 14.64 11.49 14.64 11.43"></polygon><polygon class="cls-1" points="14.64 11.38 16.05 12.25 16.05 12.26 16.03 12.29 14.64 11.43 14.64 11.38"></polygon><polygon class="cls-1" points="14.64 11.32 16.05 12.2 16.05 12.25 14.64 11.38 14.64 11.32"></polygon><polygon class="cls-1" points="14.64 11.27 16.05 12.14 16.05 12.2 14.64 11.32 14.64 11.27"></polygon><polygon class="cls-1" points="14.64 11.22 16.05 12.09 16.05 12.14 14.64 11.27 14.64 11.22"></polygon><polygon class="cls-1" points="14.64 11.16 16.05 12.03 16.05 12.09 14.64 11.22 14.64 11.16"></polygon><polygon class="cls-1" points="14.64 11.11 16.05 11.98 16.05 12.03 14.64 11.16 14.64 11.11"></polygon><polygon class="cls-1" points="14.64 11.05 16.05 11.93 16.05 11.98 14.64 11.11 14.64 11.05"></polygon><polygon class="cls-1" points="14.64 11 16.05 11.87 16.05 11.93 14.64 11.05 14.64 11"></polygon><polygon class="cls-1" points="14.64 10.95 16.05 11.82 16.05 11.87 14.64 11 14.64 10.95"></polygon><polygon class="cls-1" points="14.64 10.89 16.05 11.76 16.05 11.82 14.64 10.95 14.64 10.89"></polygon><polygon class="cls-1" points="14.64 10.84 16.05 11.71 16.05 11.76 14.64 10.89 14.64 10.84"></polygon><polygon class="cls-1" points="14.64 10.79 16.05 11.66 16.05 11.71 14.64 10.84 14.64 10.79"></polygon><polygon class="cls-1" points="14.64 10.73 16.05 11.6 16.05 11.66 14.64 10.79 14.64 10.73"></polygon><polygon class="cls-1" points="14.64 10.68 16.05 11.55 16.05 11.6 14.64 10.73 14.64 10.68"></polygon><polygon class="cls-1" points="14.64 10.62 16.05 11.49 16.05 11.55 14.64 10.68 14.64 10.62"></polygon><polygon class="cls-1" points="14.64 10.57 16.05 11.44 16.05 11.49 14.64 10.62 14.64 10.57"></polygon><polygon class="cls-1" points="14.64 10.56 14.66 10.53 16.05 11.39 16.05 11.44 14.64 10.57 14.64 10.56"></polygon><polygon class="cls-1" points="14.66 10.53 14.69 10.49 16.05 11.33 16.05 11.39 14.66 10.53"></polygon><polygon class="cls-1" points="14.69 10.49 14.71 10.45 16.05 11.28 16.05 11.33 14.69 10.49"></polygon><polygon class="cls-1" points="14.71 10.45 14.73 10.41 16.05 11.22 16.05 11.28 14.71 10.45"></polygon><polygon class="cls-1" points="14.73 10.41 14.76 10.37 16.05 11.17 16.05 11.22 14.73 10.41"></polygon><polygon class="cls-1" points="14.76 10.37 14.78 10.33 16.05 11.12 16.05 11.17 14.76 10.37"></polygon><polygon class="cls-1" points="14.78 10.33 14.78 10.33 14.86 10.33 16.05 11.06 16.05 11.12 14.78 10.33"></polygon><polygon class="cls-1" points="14.95 10.33 16.05 11.01 16.05 11.06 14.86 10.33 14.95 10.33"></polygon><polygon class="cls-1" points="15.04 10.33 16.05 10.96 16.05 11.01 14.95 10.33 15.04 10.33"></polygon><polygon class="cls-1" points="15.13 10.33 16.05 10.9 16.05 10.96 15.04 10.33 15.13 10.33"></polygon><polygon class="cls-1" points="15.21 10.33 16.05 10.85 16.05 10.9 15.13 10.33 15.21 10.33"></polygon><polygon class="cls-1" points="15.3 10.33 16.05 10.79 16.05 10.85 15.21 10.33 15.3 10.33"></polygon><polygon class="cls-1" points="16.05 10.79 15.3 10.33 16.05 10.33 16.05 10.79"></polygon></g><rect class="cls-1" x="4.55" y="6.05" width="12.79" height="8.84"></rect><path class="cls-1" d="M14.38,11.68h0a.54.54,0,0,1,.54.54V13a.49.49,0,0,1-.49.49h-.1a.49.49,0,0,1-.49-.49v-.81a.54.54,0,0,1,.54-.54Z" transform="translate(27.89 -0.94) rotate(93.72)"></path><g class="cls-15"><polygon class="cls-1" points="14.01 11.56 13.5 12 13.78 11.45 14.01 11.56"></polygon><polygon class="cls-1" points="14.05 11.58 13.45 12.11 13.5 12 14.01 11.56 14.05 11.58"></polygon><polygon class="cls-1" points="14.1 11.6 13.39 12.22 13.45 12.11 14.05 11.58 14.1 11.6"></polygon><polygon class="cls-1" points="14.14 11.63 13.34 12.33 13.39 12.22 14.1 11.6 14.14 11.63"></polygon><polygon class="cls-1" points="14.19 11.65 13.28 12.44 13.34 12.33 14.14 11.63 14.19 11.65"></polygon><polygon class="cls-1" points="14.23 11.67 13.23 12.55 13.28 12.44 14.19 11.65 14.23 11.67"></polygon><polygon class="cls-1" points="14.27 11.69 13.17 12.66 13.23 12.55 14.23 11.67 14.27 11.69"></polygon><polygon class="cls-1" points="14.32 11.72 13.12 12.77 13.17 12.66 14.27 11.69 14.32 11.72"></polygon><polygon class="cls-1" points="14.36 11.74 13.1 12.85 13.09 12.83 13.12 12.77 14.32 11.72 14.36 11.74"></polygon><polygon class="cls-1" points="14.41 11.76 13.13 12.88 13.1 12.85 14.36 11.74 14.41 11.76"></polygon><polygon class="cls-1" points="14.45 11.78 13.16 12.92 13.13 12.88 14.41 11.76 14.45 11.78"></polygon><polygon class="cls-1" points="14.49 11.8 13.19 12.95 13.16 12.92 14.45 11.78 14.49 11.8"></polygon><polygon class="cls-1" points="14.54 11.83 13.23 12.97 13.19 12.95 13.19 12.95 14.49 11.8 14.54 11.83"></polygon><polygon class="cls-1" points="14.58 11.85 13.28 12.99 13.23 12.97 14.54 11.83 14.58 11.85"></polygon><polygon class="cls-1" points="14.63 11.87 13.32 13.02 13.28 12.99 14.58 11.85 14.63 11.87"></polygon><polygon class="cls-1" points="14.67 11.89 13.37 13.04 13.32 13.02 14.63 11.87 14.67 11.89"></polygon><polygon class="cls-1" points="14.72 11.92 13.41 13.06 13.37 13.04 14.67 11.89 14.72 11.92"></polygon><polygon class="cls-1" points="14.76 11.94 13.46 13.08 13.41 13.06 14.72 11.92 14.76 11.94"></polygon><polygon class="cls-1" points="14.8 11.96 13.5 13.11 13.46 13.08 14.76 11.94 14.8 11.96"></polygon><polygon class="cls-1" points="14.85 11.98 13.54 13.13 13.5 13.11 14.8 11.96 14.85 11.98"></polygon><polygon class="cls-1" points="14.89 12.01 13.59 13.15 13.54 13.13 14.85 11.98 14.89 12.01"></polygon><polygon class="cls-1" points="14.94 12.03 13.63 13.17 13.59 13.15 14.89 12.01 14.94 12.03"></polygon><polygon class="cls-1" points="14.98 12.05 13.68 13.2 13.63 13.17 14.94 12.03 14.98 12.05"></polygon><polygon class="cls-1" points="15.03 12.07 13.72 13.22 13.68 13.2 14.98 12.05 15.03 12.07"></polygon><polygon class="cls-1" points="15.07 12.09 13.77 13.24 13.72 13.22 15.03 12.07 15.07 12.09"></polygon><polygon class="cls-1" points="15.12 12.12 13.81 13.26 13.77 13.24 15.07 12.09 15.12 12.12"></polygon><polygon class="cls-1" points="15.16 12.14 13.85 13.28 13.81 13.26 15.12 12.12 15.16 12.14"></polygon><polygon class="cls-1" points="15.2 12.16 13.9 13.31 13.85 13.28 15.16 12.14 15.2 12.16"></polygon><polygon class="cls-1" points="15.25 12.18 13.94 13.33 13.9 13.31 15.2 12.16 15.25 12.18"></polygon><polygon class="cls-1" points="15.29 12.21 13.99 13.35 13.94 13.33 15.25 12.18 15.29 12.21"></polygon><polygon class="cls-1" points="15.34 12.23 14.03 13.37 13.99 13.35 15.29 12.21 15.34 12.23"></polygon><polygon class="cls-1" points="15.34 12.23 15.37 12.26 14.07 13.39 14.03 13.37 15.34 12.23 15.34 12.23"></polygon><polygon class="cls-1" points="15.37 12.26 15.4 12.29 14.12 13.42 14.07 13.39 15.37 12.26"></polygon><polygon class="cls-1" points="15.4 12.29 15.43 12.33 14.16 13.44 14.12 13.42 15.4 12.29"></polygon><polygon class="cls-1" points="15.43 12.33 15.46 12.36 14.21 13.46 14.16 13.44 15.43 12.33"></polygon><polygon class="cls-1" points="15.46 12.36 15.49 12.4 14.25 13.48 14.21 13.46 15.46 12.36"></polygon><polygon class="cls-1" points="15.49 12.4 15.52 12.43 14.3 13.51 14.25 13.48 15.49 12.4"></polygon><polygon class="cls-1" points="15.52 12.43 15.54 12.45 15.51 12.5 14.34 13.53 14.3 13.51 15.52 12.43"></polygon><polygon class="cls-1" points="15.45 12.61 14.38 13.55 14.34 13.53 15.51 12.5 15.45 12.61"></polygon><polygon class="cls-1" points="15.4 12.72 14.43 13.57 14.38 13.55 15.45 12.61 15.4 12.72"></polygon><polygon class="cls-1" points="15.34 12.83 14.47 13.6 14.43 13.57 15.4 12.72 15.34 12.83"></polygon><polygon class="cls-1" points="14.47 13.6 15.34 12.83 14.86 13.79 14.47 13.6"></polygon></g><path class="cls-1" d="M15,11.21h0a.54.54,0,0,1,.54.54v.81a.49.49,0,0,1-.49.49H15a.49.49,0,0,1-.49-.49v-.81a.54.54,0,0,1,.54-.54Z" transform="translate(-3.77 7.73) rotate(-25.71)"></path><g class="cls-16"><polygon class="cls-1" points="14.32 12.97 14.96 13.19 14.33 13.22 14.32 12.97"></polygon><polygon class="cls-1" points="14.32 12.92 15.08 13.18 14.96 13.19 14.32 12.97 14.32 12.92"></polygon><polygon class="cls-1" points="14.32 12.87 15.2 13.18 15.08 13.18 14.32 12.92 14.32 12.87"></polygon><polygon class="cls-1" points="14.31 12.82 15.32 13.17 15.2 13.18 14.32 12.87 14.31 12.82"></polygon><polygon class="cls-1" points="14.31 12.77 15.44 13.17 15.32 13.17 14.31 12.82 14.31 12.77"></polygon><polygon class="cls-1" points="14.31 12.72 15.57 13.16 15.44 13.17 14.31 12.77 14.31 12.72"></polygon><polygon class="cls-1" points="14.31 12.67 15.69 13.15 15.57 13.16 14.31 12.72 14.31 12.67"></polygon><polygon class="cls-1" points="14.3 12.62 15.81 13.15 15.69 13.15 14.31 12.67 14.3 12.62"></polygon><polygon class="cls-1" points="14.3 12.57 15.89 13.13 15.88 13.14 15.81 13.15 14.3 12.62 14.3 12.57"></polygon><polygon class="cls-1" points="14.3 12.52 15.9 13.08 15.89 13.13 14.3 12.57 14.3 12.52"></polygon><polygon class="cls-1" points="14.3 12.47 15.92 13.04 15.9 13.08 14.3 12.52 14.3 12.47"></polygon><polygon class="cls-1" points="14.29 12.42 15.93 13 15.92 13.04 14.3 12.47 14.29 12.42"></polygon><polygon class="cls-1" points="14.29 12.37 15.93 12.95 15.93 13 15.93 13 14.29 12.42 14.29 12.37"></polygon><polygon class="cls-1" points="14.29 12.32 15.93 12.9 15.93 12.95 14.29 12.37 14.29 12.32"></polygon><polygon class="cls-1" points="14.29 12.27 15.93 12.85 15.93 12.9 14.29 12.32 14.29 12.27"></polygon><polygon class="cls-1" points="14.28 12.22 15.92 12.8 15.93 12.85 14.29 12.27 14.28 12.22"></polygon><polygon class="cls-1" points="14.28 12.18 15.92 12.75 15.92 12.8 14.28 12.22 14.28 12.18"></polygon><polygon class="cls-1" points="14.28 12.13 15.92 12.7 15.92 12.75 14.28 12.18 14.28 12.13"></polygon><polygon class="cls-1" points="14.28 12.08 15.92 12.65 15.92 12.7 14.28 12.13 14.28 12.08"></polygon><polygon class="cls-1" points="14.28 12.03 15.91 12.6 15.92 12.65 14.28 12.08 14.28 12.03"></polygon><polygon class="cls-1" points="14.27 11.98 15.91 12.55 15.91 12.6 14.28 12.03 14.27 11.98"></polygon><polygon class="cls-1" points="14.27 11.93 15.91 12.5 15.91 12.55 14.27 11.98 14.27 11.93"></polygon><polygon class="cls-1" points="14.27 11.88 15.91 12.45 15.91 12.5 14.27 11.93 14.27 11.88"></polygon><polygon class="cls-1" points="14.27 11.83 15.9 12.4 15.91 12.45 14.27 11.88 14.27 11.83"></polygon><polygon class="cls-1" points="14.26 11.78 15.9 12.35 15.9 12.4 14.27 11.83 14.26 11.78"></polygon><polygon class="cls-1" points="14.26 11.73 15.9 12.3 15.9 12.35 14.26 11.78 14.26 11.73"></polygon><polygon class="cls-1" points="14.26 11.68 15.9 12.25 15.9 12.3 14.26 11.73 14.26 11.68"></polygon><polygon class="cls-1" points="14.26 11.63 15.9 12.21 15.9 12.25 14.26 11.68 14.26 11.63"></polygon><polygon class="cls-1" points="14.25 11.58 15.89 12.15 15.9 12.21 14.26 11.63 14.25 11.58"></polygon><polygon class="cls-1" points="14.25 11.53 15.89 12.11 15.89 12.15 14.25 11.58 14.25 11.53"></polygon><polygon class="cls-1" points="14.25 11.48 15.89 12.06 15.89 12.11 14.25 11.53 14.25 11.48"></polygon><polygon class="cls-1" points="14.25 11.48 14.26 11.44 15.89 12.01 15.89 12.06 14.25 11.48 14.25 11.48"></polygon><polygon class="cls-1" points="14.26 11.44 14.28 11.39 15.88 11.96 15.89 12.01 14.26 11.44"></polygon><polygon class="cls-1" points="14.28 11.39 14.29 11.35 15.88 11.91 15.88 11.96 14.28 11.39"></polygon><polygon class="cls-1" points="14.29 11.35 14.31 11.31 15.88 11.86 15.88 11.91 14.29 11.35"></polygon><polygon class="cls-1" points="14.31 11.31 14.32 11.27 15.88 11.81 15.88 11.86 14.31 11.31"></polygon><polygon class="cls-1" points="14.32 11.27 14.34 11.22 15.87 11.76 15.88 11.81 14.32 11.27"></polygon><polygon class="cls-1" points="14.34 11.22 14.35 11.2 14.41 11.2 15.87 11.71 15.87 11.76 14.34 11.22"></polygon><polygon class="cls-1" points="14.53 11.19 15.87 11.66 15.87 11.71 14.41 11.2 14.53 11.19"></polygon><polygon class="cls-1" points="14.65 11.19 15.87 11.61 15.87 11.66 14.53 11.19 14.65 11.19"></polygon><polygon class="cls-1" points="14.77 11.18 15.86 11.56 15.87 11.61 14.65 11.19 14.77 11.18"></polygon><polygon class="cls-1" points="15.86 11.56 14.77 11.18 15.84 11.13 15.86 11.56"></polygon></g></g><path class="cls-1" d="M7.22,11.52h-2v-.36h2c1.47-.11,2.37-1.81,2.87-3.22a.17.17,0,0,1,.16-.12h.7v.36h-.57c-.76,2.09-1.84,3.25-3.14,3.34Z"></path><path class="cls-1" d="M-19.1,18.62H-7.19l1.69-4h-9.6A9.15,9.15,0,0,1-19.1,18.62Z"></path><g class="cls-7"><rect class="cls-1" x="-22.79" y="10.82" width="26.47" height="18.24"></rect><g class="cls-8"><polygon class="cls-1" points="-18.14 10.82 0.11 29.06 -0.44 29.06 -18.68 10.82 -18.14 10.82"></polygon><polygon class="cls-1" points="-17.59 10.82 0.65 29.06 0.11 29.06 -18.14 10.82 -17.59 10.82"></polygon><polygon class="cls-1" points="-17.05 10.82 1.2 29.06 0.65 29.06 -17.59 10.82 -17.05 10.82"></polygon><polygon class="cls-1" points="-16.5 10.82 1.74 29.06 1.2 29.06 -17.05 10.82 -16.5 10.82"></polygon><polygon class="cls-1" points="-15.95 10.82 2.29 29.06 1.74 29.06 -16.5 10.82 -15.95 10.82"></polygon><polygon class="cls-1" points="-15.41 10.82 2.83 29.06 2.29 29.06 -15.95 10.82 -15.41 10.82"></polygon><polygon class="cls-1" points="-14.86 10.82 3.38 29.06 2.83 29.06 -15.41 10.82 -14.86 10.82"></polygon><polygon class="cls-1" points="-14.32 10.82 3.67 28.81 3.67 29.06 3.38 29.06 -14.86 10.82 -14.32 10.82"></polygon><polygon class="cls-1" points="-13.77 10.82 3.67 28.27 3.67 28.81 -14.32 10.82 -13.77 10.82"></polygon><polygon class="cls-1" points="-13.23 10.82 3.67 27.72 3.67 28.27 -13.77 10.82 -13.23 10.82"></polygon><polygon class="cls-1" points="-12.68 10.82 3.67 27.17 3.67 27.72 -13.23 10.82 -12.68 10.82"></polygon><polygon class="cls-1" points="-12.14 10.82 3.67 26.63 3.67 27.17 -12.68 10.82 -12.14 10.82"></polygon><polygon class="cls-1" points="-11.59 10.82 3.67 26.08 3.67 26.63 -12.14 10.82 -11.59 10.82"></polygon><polygon class="cls-1" points="-11.05 10.82 3.67 25.54 3.67 26.08 -11.59 10.82 -11.05 10.82"></polygon><polygon class="cls-1" points="-10.5 10.82 3.67 24.99 3.67 25.54 -11.05 10.82 -10.5 10.82"></polygon><polygon class="cls-1" points="-9.96 10.82 3.67 24.45 3.67 24.99 -10.5 10.82 -9.96 10.82"></polygon><polygon class="cls-1" points="-9.41 10.82 3.67 23.9 3.67 24.45 -9.96 10.82 -9.41 10.82"></polygon><polygon class="cls-1" points="-8.87 10.82 3.67 23.36 3.67 23.9 -9.41 10.82 -8.87 10.82"></polygon><polygon class="cls-1" points="-8.32 10.82 3.67 22.81 3.67 23.36 -8.87 10.82 -8.32 10.82"></polygon><polygon class="cls-1" points="-7.78 10.82 3.67 22.27 3.67 22.81 -8.32 10.82 -7.78 10.82"></polygon><polygon class="cls-1" points="-7.23 10.82 3.67 21.72 3.67 22.27 -7.78 10.82 -7.23 10.82"></polygon><polygon class="cls-1" points="-6.69 10.82 3.67 21.18 3.67 21.72 -7.23 10.82 -6.69 10.82"></polygon><polygon class="cls-1" points="-6.14 10.82 3.67 20.63 3.67 21.18 -6.69 10.82 -6.14 10.82"></polygon><polygon class="cls-1" points="-5.59 10.82 3.67 20.09 3.67 20.63 -6.14 10.82 -5.59 10.82"></polygon><polygon class="cls-1" points="-5.05 10.82 3.67 19.54 3.67 20.09 -5.59 10.82 -5.05 10.82"></polygon><polygon class="cls-1" points="-4.5 10.82 3.67 19 3.67 19.54 -5.05 10.82 -4.5 10.82"></polygon><polygon class="cls-1" points="-3.96 10.82 3.67 18.45 3.67 19 -4.5 10.82 -3.96 10.82"></polygon><polygon class="cls-1" points="-3.41 10.82 3.67 17.91 3.67 18.45 -3.96 10.82 -3.41 10.82"></polygon><polygon class="cls-1" points="-2.87 10.82 3.67 17.36 3.67 17.91 -3.41 10.82 -2.87 10.82"></polygon><polygon class="cls-1" points="-2.32 10.82 3.67 16.82 3.67 17.36 -2.87 10.82 -2.32 10.82"></polygon><polygon class="cls-1" points="-1.78 10.82 3.67 16.27 3.67 16.82 -2.32 10.82 -1.78 10.82"></polygon><polygon class="cls-1" points="-1.23 10.82 3.67 15.72 3.67 16.27 -1.78 10.82 -1.23 10.82"></polygon><polygon class="cls-1" points="-0.69 10.82 3.67 15.18 3.67 15.72 -1.23 10.82 -0.69 10.82"></polygon><polygon class="cls-1" points="-0.14 10.82 3.67 14.63 3.67 15.18 -0.69 10.82 -0.14 10.82"></polygon><polygon class="cls-1" points="0.4 10.82 3.67 14.09 3.67 14.63 -0.14 10.82 0.4 10.82"></polygon><polygon class="cls-1" points="0.95 10.82 3.67 13.54 3.67 14.09 0.4 10.82 0.95 10.82"></polygon><polygon class="cls-1" points="1.49 10.82 3.67 13 3.67 13.54 0.95 10.82 1.49 10.82"></polygon><polygon class="cls-1" points="2.04 10.82 3.67 12.45 3.67 13 1.49 10.82 2.04 10.82"></polygon><polygon class="cls-1" points="2.58 10.82 3.67 11.91 3.67 12.45 2.04 10.82 2.58 10.82"></polygon><polygon class="cls-1" points="3.13 10.82 3.67 11.36 3.67 11.91 2.58 10.82 3.13 10.82"></polygon><polygon class="cls-1" points="3.67 10.82 3.67 10.82 3.67 11.36 3.13 10.82 3.67 10.82"></polygon></g></g><path class="cls-1" d="M11.16,3.59,8.8,9.2a2.1,2.1,0,0,1-1.93,1.27H5a.72.72,0,1,1-.71-.71.72.72,0,0,1,.47.18L9.43,5.58l.87-2H2.54L1.67,5.53H5.91V5.47a.72.72,0,1,1,.71.72A.7.7,0,0,1,6.13,6l-4,3.72A3.64,3.64,0,0,0,.61,12l-.11.39H6.9a4.06,4.06,0,0,0,3.73-2.47l2.68-6.35Z"></path><g class="cls-9"><rect class="cls-17" x="0.51" y="3.58" width="12.79" height="8.84"></rect><path class="cls-2" d="M2.35,2.83h0a.54.54,0,0,1,.54.54v.81a.49.49,0,0,1-.49.49H2.3a.49.49,0,0,1-.49-.49V3.36a.54.54,0,0,1,.54-.54Z" transform="translate(5.98 6.28) rotate(157.05)"></path><g class="cls-18"><polygon class="cls-19" points="3.11 2.94 2.49 2.69 3.11 2.69 3.11 2.94"></polygon><polygon class="cls-20" points="3.11 3 2.37 2.69 2.49 2.69 3.11 2.94 3.11 3"></polygon><polygon class="cls-21" points="3.11 3.04 2.24 2.69 2.37 2.69 3.11 3 3.11 3.04"></polygon><polygon class="cls-22" points="3.11 3.09 2.12 2.69 2.24 2.69 3.11 3.04 3.11 3.09"></polygon><polygon class="cls-23" points="3.11 3.14 2 2.69 2.12 2.69 3.11 3.09 3.11 3.14"></polygon><polygon class="cls-24" points="3.11 3.19 1.88 2.69 2 2.69 3.11 3.14 3.11 3.19"></polygon><polygon class="cls-25" points="3.11 3.24 1.75 2.69 1.88 2.69 3.11 3.19 3.11 3.24"></polygon><polygon class="cls-26" points="3.11 3.29 1.63 2.69 1.75 2.69 3.11 3.24 3.11 3.29"></polygon><polygon class="cls-27" points="3.11 3.34 1.55 2.71 1.56 2.69 1.63 2.69 3.11 3.29 3.11 3.34"></polygon><polygon class="cls-28" points="3.11 3.39 1.53 2.75 1.55 2.71 3.11 3.34 3.11 3.39"></polygon><polygon class="cls-29" points="3.11 3.44 1.52 2.8 1.53 2.75 3.11 3.39 3.11 3.44"></polygon><polygon class="cls-30" points="3.11 3.49 1.5 2.84 1.52 2.8 3.11 3.44 3.11 3.49"></polygon><polygon class="cls-31" points="3.11 3.54 1.5 2.89 1.5 2.84 1.5 2.84 3.11 3.49 3.11 3.54"></polygon><polygon class="cls-32" points="3.11 3.59 1.5 2.94 1.5 2.89 3.11 3.54 3.11 3.59"></polygon><polygon class="cls-33" points="3.11 3.64 1.5 2.99 1.5 2.94 3.11 3.59 3.11 3.64"></polygon><polygon class="cls-34" points="3.11 3.69 1.5 3.04 1.5 2.99 3.11 3.64 3.11 3.69"></polygon><polygon class="cls-35" points="3.11 3.74 1.5 3.09 1.5 3.04 3.11 3.69 3.11 3.74"></polygon><polygon class="cls-36" points="3.11 3.79 1.5 3.13 1.5 3.09 3.11 3.74 3.11 3.79"></polygon><polygon class="cls-37" points="3.11 3.84 1.5 3.19 1.5 3.13 3.11 3.79 3.11 3.84"></polygon><polygon class="cls-38" points="3.11 3.89 1.5 3.23 1.5 3.19 3.11 3.84 3.11 3.89"></polygon><polygon class="cls-39" points="3.11 3.94 1.5 3.28 1.5 3.23 3.11 3.89 3.11 3.94"></polygon><polygon class="cls-40" points="3.11 3.99 1.5 3.33 1.5 3.28 3.11 3.94 3.11 3.99"></polygon><polygon class="cls-41" points="3.11 4.04 1.5 3.38 1.5 3.33 3.11 3.99 3.11 4.04"></polygon><polygon class="cls-42" points="3.11 4.08 1.5 3.43 1.5 3.38 3.11 4.04 3.11 4.08"></polygon><polygon class="cls-43" points="3.11 4.13 1.5 3.48 1.5 3.43 3.11 4.08 3.11 4.13"></polygon><polygon class="cls-44" points="3.11 4.18 1.5 3.53 1.5 3.48 3.11 4.13 3.11 4.18"></polygon><polygon class="cls-45" points="3.11 4.23 1.5 3.58 1.5 3.53 3.11 4.18 3.11 4.23"></polygon><polygon class="cls-46" points="3.11 4.28 1.5 3.63 1.5 3.58 3.11 4.23 3.11 4.28"></polygon><polygon class="cls-47" points="3.11 4.33 1.5 3.68 1.5 3.63 3.11 4.28 3.11 4.33"></polygon><polygon class="cls-48" points="3.11 4.38 1.5 3.73 1.5 3.68 3.11 4.33 3.11 4.38"></polygon><polygon class="cls-49" points="3.11 4.43 1.5 3.78 1.5 3.73 3.11 4.38 3.11 4.43"></polygon><polygon class="cls-50" points="3.11 4.44 3.1 4.47 1.5 3.83 1.5 3.78 3.11 4.43 3.11 4.44"></polygon><polygon class="cls-51" points="3.1 4.47 3.08 4.52 1.5 3.88 1.5 3.83 3.1 4.47"></polygon><polygon class="cls-52" points="3.08 4.52 3.06 4.56 1.5 3.93 1.5 3.88 3.08 4.52"></polygon><polygon class="cls-53" points="3.06 4.56 3.04 4.6 1.5 3.98 1.5 3.93 3.06 4.56"></polygon><polygon class="cls-54" points="3.04 4.6 3.03 4.64 1.5 4.03 1.5 3.98 3.04 4.6"></polygon><polygon class="cls-55" points="3.03 4.64 3.01 4.69 1.5 4.08 1.5 4.03 3.03 4.64"></polygon><polygon class="cls-56" points="3.01 4.69 3 4.71 2.94 4.71 1.5 4.13 1.5 4.08 3.01 4.69"></polygon><polygon class="cls-57" points="2.82 4.71 1.5 4.18 1.5 4.13 2.94 4.71 2.82 4.71"></polygon><polygon class="cls-58" points="2.69 4.71 1.5 4.22 1.5 4.18 2.82 4.71 2.69 4.71"></polygon><polygon class="cls-59" points="2.57 4.71 1.5 4.28 1.5 4.22 2.69 4.71 2.57 4.71"></polygon><polygon class="cls-60" points="1.5 4.28 2.57 4.71 1.5 4.71 1.5 4.28"></polygon></g></g><path class="cls-1" d="M8.92,12.41h5.76l.82-1.94H10.86A4.42,4.42,0,0,1,8.92,12.41Z"></path><g class="cls-11"><rect class="cls-1" x="7.13" y="8.64" width="12.81" height="8.83"></rect><g class="cls-12"><polygon class="cls-1" points="7.13 15.88 8.72 17.46 8.45 17.46 7.13 16.14 7.13 15.88"></polygon><polygon class="cls-1" points="7.13 15.62 8.98 17.46 8.72 17.46 7.13 15.88 7.13 15.62"></polygon><polygon class="cls-1" points="7.13 15.35 9.24 17.46 8.98 17.46 7.13 15.62 7.13 15.35"></polygon><polygon class="cls-1" points="7.13 15.09 9.51 17.46 9.24 17.46 7.13 15.35 7.13 15.09"></polygon><polygon class="cls-1" points="7.13 14.83 9.77 17.46 9.51 17.46 7.13 15.09 7.13 14.83"></polygon><polygon class="cls-1" points="7.13 14.56 10.04 17.46 9.77 17.46 7.13 14.83 7.13 14.56"></polygon><polygon class="cls-1" points="7.13 14.3 10.3 17.46 10.04 17.46 7.13 14.56 7.13 14.3"></polygon><polygon class="cls-1" points="7.13 14.04 10.56 17.46 10.3 17.46 7.13 14.3 7.13 14.04"></polygon><polygon class="cls-1" points="7.13 13.77 10.83 17.46 10.56 17.46 7.13 14.04 7.13 13.77"></polygon><polygon class="cls-1" points="7.13 13.51 11.09 17.46 10.83 17.46 7.13 13.77 7.13 13.51"></polygon><polygon class="cls-1" points="7.13 13.24 11.35 17.46 11.09 17.46 7.13 13.51 7.13 13.24"></polygon><polygon class="cls-1" points="7.13 12.98 11.62 17.46 11.35 17.46 7.13 13.24 7.13 12.98"></polygon><polygon class="cls-1" points="7.13 12.72 11.88 17.46 11.62 17.46 7.13 12.98 7.13 12.72"></polygon><polygon class="cls-1" points="7.13 12.45 12.14 17.46 11.88 17.46 7.13 12.72 7.13 12.45"></polygon><polygon class="cls-1" points="7.13 12.19 12.41 17.46 12.14 17.46 7.13 12.45 7.13 12.19"></polygon><polygon class="cls-1" points="7.13 11.92 12.67 17.46 12.41 17.46 7.13 12.19 7.13 11.92"></polygon><polygon class="cls-1" points="7.13 11.66 12.94 17.46 12.67 17.46 7.13 11.92 7.13 11.66"></polygon><polygon class="cls-1" points="7.13 11.4 13.2 17.46 12.94 17.46 7.13 11.66 7.13 11.4"></polygon><polygon class="cls-1" points="7.13 11.13 13.46 17.46 13.2 17.46 7.13 11.4 7.13 11.13"></polygon><polygon class="cls-1" points="7.13 10.87 13.73 17.46 13.46 17.46 7.13 11.13 7.13 10.87"></polygon><polygon class="cls-1" points="7.13 10.61 13.99 17.46 13.73 17.46 7.13 10.87 7.13 10.61"></polygon><polygon class="cls-1" points="7.13 10.34 14.26 17.46 13.99 17.46 7.13 10.61 7.13 10.34"></polygon><polygon class="cls-1" points="7.13 10.08 14.52 17.46 14.26 17.46 7.13 10.34 7.13 10.08"></polygon><polygon class="cls-1" points="7.13 9.81 14.78 17.46 14.52 17.46 7.13 10.08 7.13 9.81"></polygon><polygon class="cls-1" points="7.13 9.55 15.05 17.46 14.78 17.46 7.13 9.81 7.13 9.55"></polygon><polygon class="cls-1" points="7.13 9.29 15.31 17.46 15.05 17.46 7.13 9.55 7.13 9.29"></polygon><polygon class="cls-1" points="7.13 9.02 15.57 17.46 15.31 17.46 7.13 9.29 7.13 9.02"></polygon><polygon class="cls-1" points="7.13 8.76 15.84 17.46 15.57 17.46 7.13 9.02 7.13 8.76"></polygon><polygon class="cls-1" points="7.28 8.64 16.1 17.46 15.84 17.46 7.13 8.76 7.13 8.64 7.28 8.64"></polygon><polygon class="cls-1" points="7.54 8.64 16.37 17.46 16.1 17.46 7.28 8.64 7.54 8.64"></polygon><polygon class="cls-1" points="7.8 8.64 16.63 17.46 16.37 17.46 7.54 8.64 7.8 8.64"></polygon><polygon class="cls-1" points="8.07 8.64 16.89 17.46 16.63 17.46 7.8 8.64 8.07 8.64"></polygon><polygon class="cls-1" points="8.33 8.64 17.16 17.46 16.89 17.46 8.07 8.64 8.33 8.64"></polygon><polygon class="cls-1" points="8.6 8.64 17.42 17.46 17.16 17.46 8.33 8.64 8.6 8.64"></polygon><polygon class="cls-1" points="8.86 8.64 17.68 17.46 17.42 17.46 8.6 8.64 8.86 8.64"></polygon><polygon class="cls-1" points="9.12 8.64 17.95 17.46 17.68 17.46 8.86 8.64 9.12 8.64"></polygon><polygon class="cls-1" points="9.39 8.64 18.21 17.46 17.95 17.46 9.12 8.64 9.39 8.64"></polygon><polygon class="cls-1" points="9.65 8.64 18.48 17.46 18.21 17.46 9.39 8.64 9.65 8.64"></polygon><polygon class="cls-1" points="9.91 8.64 18.74 17.46 18.48 17.46 9.65 8.64 9.91 8.64"></polygon><polygon class="cls-1" points="10.18 8.64 19 17.46 18.74 17.46 9.91 8.64 10.18 8.64"></polygon><polygon class="cls-1" points="10.44 8.64 19.27 17.46 19 17.46 10.18 8.64 10.44 8.64"></polygon><polygon class="cls-1" points="10.71 8.64 19.53 17.46 19.27 17.46 10.44 8.64 10.71 8.64"></polygon><polygon class="cls-1" points="10.97 8.64 19.8 17.46 19.53 17.46 10.71 8.64 10.97 8.64"></polygon><polygon class="cls-1" points="11.23 8.64 19.94 17.34 19.94 17.46 19.8 17.46 10.97 8.64 11.23 8.64"></polygon><polygon class="cls-1" points="11.5 8.64 19.94 17.08 19.94 17.34 11.23 8.64 11.5 8.64"></polygon><polygon class="cls-1" points="11.76 8.64 19.94 16.82 19.94 17.08 11.5 8.64 11.76 8.64"></polygon><polygon class="cls-1" points="12.02 8.64 19.94 16.55 19.94 16.82 11.76 8.64 12.02 8.64"></polygon><polygon class="cls-1" points="12.29 8.64 19.94 16.29 19.94 16.55 12.02 8.64 12.29 8.64"></polygon><polygon class="cls-1" points="12.55 8.64 19.94 16.02 19.94 16.29 12.29 8.64 12.55 8.64"></polygon><polygon class="cls-1" points="12.82 8.64 19.94 15.76 19.94 16.02 12.55 8.64 12.82 8.64"></polygon><polygon class="cls-1" points="13.08 8.64 19.94 15.5 19.94 15.76 12.82 8.64 13.08 8.64"></polygon><polygon class="cls-1" points="13.34 8.64 19.94 15.23 19.94 15.5 13.08 8.64 13.34 8.64"></polygon><polygon class="cls-1" points="13.61 8.64 19.94 14.97 19.94 15.23 13.34 8.64 13.61 8.64"></polygon><polygon class="cls-1" points="13.87 8.64 19.94 14.71 19.94 14.97 13.61 8.64 13.87 8.64"></polygon><polygon class="cls-1" points="14.13 8.64 19.94 14.44 19.94 14.71 13.87 8.64 14.13 8.64"></polygon><polygon class="cls-1" points="14.4 8.64 19.94 14.18 19.94 14.44 14.13 8.64 14.4 8.64"></polygon><polygon class="cls-1" points="14.66 8.64 19.94 13.91 19.94 14.18 14.4 8.64 14.66 8.64"></polygon><polygon class="cls-1" points="14.93 8.64 19.94 13.65 19.94 13.91 14.66 8.64 14.93 8.64"></polygon><polygon class="cls-1" points="15.19 8.64 19.94 13.39 19.94 13.65 14.93 8.64 15.19 8.64"></polygon><polygon class="cls-1" points="15.45 8.64 19.94 13.12 19.94 13.39 15.19 8.64 15.45 8.64"></polygon><polygon class="cls-1" points="15.72 8.64 19.94 12.86 19.94 13.12 15.45 8.64 15.72 8.64"></polygon><polygon class="cls-1" points="15.98 8.64 19.94 12.6 19.94 12.86 15.72 8.64 15.98 8.64"></polygon><polygon class="cls-1" points="16.25 8.64 19.94 12.33 19.94 12.6 15.98 8.64 16.25 8.64"></polygon></g><path class="cls-1" d="M14.43,11.85h.71a0,0,0,0,1,0,0v1a0,0,0,0,1,0,0H13.41a0,0,0,0,1,0,0v0A1,1,0,0,1,14.43,11.85Z"></path><g class="cls-13"><polygon class="cls-1" points="13.41 12.87 13.41 12.87 13.41 11.85 15.14 11.85 15.14 12.87 13.41 12.87"></polygon><path class="cls-1" d="M13.41,12.8l.07.07Z"></path><polygon class="cls-1" points="13.41 12.73 13.55 12.87 13.48 12.87 13.41 12.8 13.41 12.73"></polygon><polygon class="cls-1" points="13.41 12.67 13.62 12.87 13.55 12.87 13.41 12.73 13.41 12.67"></polygon><polygon class="cls-1" points="13.41 12.6 13.68 12.87 13.62 12.87 13.41 12.67 13.41 12.6"></polygon><polygon class="cls-1" points="13.41 12.53 13.75 12.87 13.68 12.87 13.41 12.6 13.41 12.53"></polygon><polygon class="cls-1" points="13.41 12.46 13.82 12.87 13.75 12.87 13.41 12.53 13.41 12.46"></polygon><polygon class="cls-1" points="13.41 12.39 13.89 12.87 13.82 12.87 13.41 12.46 13.41 12.39"></polygon><polygon class="cls-1" points="13.41 12.32 13.96 12.87 13.89 12.87 13.41 12.39 13.41 12.32"></polygon><polygon class="cls-1" points="13.41 12.25 14.03 12.87 13.96 12.87 13.41 12.32 13.41 12.25"></polygon><polygon class="cls-1" points="13.41 12.18 14.1 12.87 14.03 12.87 13.41 12.25 13.41 12.18"></polygon><polygon class="cls-1" points="13.41 12.12 14.17 12.87 14.1 12.87 13.41 12.18 13.41 12.12"></polygon><polygon class="cls-1" points="13.41 12.05 14.23 12.87 14.17 12.87 13.41 12.12 13.41 12.05"></polygon><polygon class="cls-1" points="13.41 12.04 13.44 12.01 14.3 12.87 14.23 12.87 13.41 12.05 13.41 12.04"></polygon><polygon class="cls-1" points="13.44 12.01 13.47 11.97 14.37 12.87 14.3 12.87 13.44 12.01"></polygon><polygon class="cls-1" points="13.47 11.97 13.51 11.94 14.44 12.87 14.37 12.87 13.47 11.97"></polygon><polygon class="cls-1" points="13.51 11.94 13.54 11.9 14.51 12.87 14.44 12.87 13.51 11.94"></polygon><polygon class="cls-1" points="13.54 11.9 13.58 11.87 14.58 12.87 14.51 12.87 13.54 11.9"></polygon><polygon class="cls-1" points="13.58 11.87 13.59 11.85 13.63 11.85 14.65 12.87 14.58 12.87 13.58 11.87"></polygon><polygon class="cls-1" points="13.7 11.85 14.72 12.87 14.65 12.87 13.63 11.85 13.7 11.85"></polygon><polygon class="cls-1" points="13.77 11.85 14.79 12.87 14.72 12.87 13.7 11.85 13.77 11.85"></polygon><polygon class="cls-1" points="13.83 11.85 14.86 12.87 14.79 12.87 13.77 11.85 13.83 11.85"></polygon><polygon class="cls-1" points="13.9 11.85 14.92 12.87 14.86 12.87 13.83 11.85 13.9 11.85"></polygon><polygon class="cls-1" points="13.97 11.85 14.99 12.87 14.92 12.87 13.9 11.85 13.97 11.85"></polygon><polygon class="cls-1" points="14.04 11.85 15.06 12.87 14.99 12.87 13.97 11.85 14.04 11.85"></polygon><polygon class="cls-1" points="14.11 11.85 15.13 12.87 15.06 12.87 14.04 11.85 14.11 11.85"></polygon><polygon class="cls-1" points="14.18 11.85 15.14 12.82 15.14 12.87 15.13 12.87 14.11 11.85 14.18 11.85"></polygon><polygon class="cls-1" points="14.25 11.85 15.14 12.75 15.14 12.82 14.18 11.85 14.25 11.85"></polygon><polygon class="cls-1" points="14.32 11.85 15.14 12.68 15.14 12.75 14.25 11.85 14.32 11.85"></polygon><polygon class="cls-1" points="14.38 11.85 15.14 12.61 15.14 12.68 14.32 11.85 14.38 11.85"></polygon><polygon class="cls-1" points="14.45 11.85 15.14 12.54 15.14 12.61 14.38 11.85 14.45 11.85"></polygon><polygon class="cls-1" points="14.52 11.85 15.14 12.47 15.14 12.54 14.45 11.85 14.52 11.85"></polygon><polygon class="cls-1" points="14.59 11.85 15.14 12.4 15.14 12.47 14.52 11.85 14.59 11.85"></polygon><polygon class="cls-1" points="14.66 11.85 15.14 12.33 15.14 12.4 14.59 11.85 14.66 11.85"></polygon><polygon class="cls-1" points="14.73 11.85 15.14 12.27 15.14 12.33 14.66 11.85 14.73 11.85"></polygon><polygon class="cls-1" points="14.8 11.85 15.14 12.2 15.14 12.27 14.73 11.85 14.8 11.85"></polygon><polygon class="cls-1" points="14.87 11.85 15.14 12.13 15.14 12.2 14.8 11.85 14.87 11.85"></polygon><polygon class="cls-1" points="14.94 11.85 15.14 12.06 15.14 12.13 14.87 11.85 14.94 11.85"></polygon><polygon class="cls-1" points="15.01 11.85 15.14 11.99 15.14 12.06 14.94 11.85 15.01 11.85"></polygon><polygon class="cls-1" points="15.07 11.85 15.14 11.92 15.14 11.99 15.01 11.85 15.07 11.85"></polygon><polygon class="cls-1" points="15.14 11.85 15.14 11.85 15.14 11.92 15.07 11.85 15.14 11.85"></polygon></g><path class="cls-1" d="M15.32,10.37h0a.54.54,0,0,1,.54.54v1.3a0,0,0,0,1,0,0H14.79a0,0,0,0,1,0,0v-1.3A.54.54,0,0,1,15.32,10.37Z" transform="translate(-2.19 3.84) rotate(-13.33)"></path><g class="cls-14"><polygon class="cls-1" points="14.64 12.08 15.01 12.31 14.64 12.31 14.64 12.08"></polygon><polygon class="cls-1" points="14.64 12.03 15.1 12.31 15.01 12.31 14.64 12.08 14.64 12.03"></polygon><polygon class="cls-1" points="14.64 11.97 15.19 12.31 15.1 12.31 14.64 12.03 14.64 11.97"></polygon><polygon class="cls-1" points="14.64 11.92 15.27 12.31 15.19 12.31 14.64 11.97 14.64 11.92"></polygon><polygon class="cls-1" points="14.64 11.87 15.36 12.31 15.27 12.31 14.64 11.92 14.64 11.87"></polygon><polygon class="cls-1" points="14.64 11.81 15.45 12.31 15.36 12.31 14.64 11.87 14.64 11.81"></polygon><polygon class="cls-1" points="14.64 11.76 15.54 12.31 15.45 12.31 14.64 11.81 14.64 11.76"></polygon><polygon class="cls-1" points="14.64 11.7 15.62 12.31 15.54 12.31 14.64 11.76 14.64 11.7"></polygon><polygon class="cls-1" points="14.64 11.65 15.71 12.31 15.62 12.31 14.64 11.7 14.64 11.65"></polygon><polygon class="cls-1" points="14.64 11.6 15.8 12.31 15.71 12.31 14.64 11.65 14.64 11.6"></polygon><polygon class="cls-1" points="14.64 11.54 15.89 12.31 15.8 12.31 14.64 11.6 14.64 11.54"></polygon><polygon class="cls-1" points="14.64 11.49 15.97 12.31 15.89 12.31 14.64 11.54 14.64 11.49"></polygon><polygon class="cls-1" points="14.64 11.43 16.03 12.29 16.02 12.31 15.97 12.31 14.64 11.49 14.64 11.43"></polygon><polygon class="cls-1" points="14.64 11.38 16.05 12.25 16.05 12.26 16.03 12.29 14.64 11.43 14.64 11.38"></polygon><polygon class="cls-1" points="14.64 11.32 16.05 12.2 16.05 12.25 14.64 11.38 14.64 11.32"></polygon><polygon class="cls-1" points="14.64 11.27 16.05 12.14 16.05 12.2 14.64 11.32 14.64 11.27"></polygon><polygon class="cls-1" points="14.64 11.22 16.05 12.09 16.05 12.14 14.64 11.27 14.64 11.22"></polygon><polygon class="cls-1" points="14.64 11.16 16.05 12.03 16.05 12.09 14.64 11.22 14.64 11.16"></polygon><polygon class="cls-1" points="14.64 11.11 16.05 11.98 16.05 12.03 14.64 11.16 14.64 11.11"></polygon><polygon class="cls-1" points="14.64 11.05 16.05 11.93 16.05 11.98 14.64 11.11 14.64 11.05"></polygon><polygon class="cls-1" points="14.64 11 16.05 11.87 16.05 11.93 14.64 11.05 14.64 11"></polygon><polygon class="cls-1" points="14.64 10.95 16.05 11.82 16.05 11.87 14.64 11 14.64 10.95"></polygon><polygon class="cls-1" points="14.64 10.89 16.05 11.76 16.05 11.82 14.64 10.95 14.64 10.89"></polygon><polygon class="cls-1" points="14.64 10.84 16.05 11.71 16.05 11.76 14.64 10.89 14.64 10.84"></polygon><polygon class="cls-1" points="14.64 10.79 16.05 11.66 16.05 11.71 14.64 10.84 14.64 10.79"></polygon><polygon class="cls-1" points="14.64 10.73 16.05 11.6 16.05 11.66 14.64 10.79 14.64 10.73"></polygon><polygon class="cls-1" points="14.64 10.68 16.05 11.55 16.05 11.6 14.64 10.73 14.64 10.68"></polygon><polygon class="cls-1" points="14.64 10.62 16.05 11.49 16.05 11.55 14.64 10.68 14.64 10.62"></polygon><polygon class="cls-1" points="14.64 10.57 16.05 11.44 16.05 11.49 14.64 10.62 14.64 10.57"></polygon><polygon class="cls-1" points="14.64 10.56 14.66 10.53 16.05 11.39 16.05 11.44 14.64 10.57 14.64 10.56"></polygon><polygon class="cls-1" points="14.66 10.53 14.69 10.49 16.05 11.33 16.05 11.39 14.66 10.53"></polygon><polygon class="cls-1" points="14.69 10.49 14.71 10.45 16.05 11.28 16.05 11.33 14.69 10.49"></polygon><polygon class="cls-1" points="14.71 10.45 14.73 10.41 16.05 11.22 16.05 11.28 14.71 10.45"></polygon><polygon class="cls-1" points="14.73 10.41 14.76 10.37 16.05 11.17 16.05 11.22 14.73 10.41"></polygon><polygon class="cls-1" points="14.76 10.37 14.78 10.33 16.05 11.12 16.05 11.17 14.76 10.37"></polygon><polygon class="cls-1" points="14.78 10.33 14.78 10.33 14.86 10.33 16.05 11.06 16.05 11.12 14.78 10.33"></polygon><polygon class="cls-1" points="14.95 10.33 16.05 11.01 16.05 11.06 14.86 10.33 14.95 10.33"></polygon><polygon class="cls-1" points="15.04 10.33 16.05 10.96 16.05 11.01 14.95 10.33 15.04 10.33"></polygon><polygon class="cls-1" points="15.13 10.33 16.05 10.9 16.05 10.96 15.04 10.33 15.13 10.33"></polygon><polygon class="cls-1" points="15.21 10.33 16.05 10.85 16.05 10.9 15.13 10.33 15.21 10.33"></polygon><polygon class="cls-1" points="15.3 10.33 16.05 10.79 16.05 10.85 15.21 10.33 15.3 10.33"></polygon><polygon class="cls-1" points="16.05 10.79 15.3 10.33 16.05 10.33 16.05 10.79"></polygon></g><rect class="cls-61" x="4.55" y="6.05" width="12.79" height="8.84"></rect><path class="cls-3" d="M14.38,11.68h0a.54.54,0,0,1,.54.54V13a.49.49,0,0,1-.49.49h-.1a.49.49,0,0,1-.49-.49v-.81a.54.54,0,0,1,.54-.54Z" transform="translate(27.89 -0.94) rotate(93.72)"></path><g class="cls-62"><polygon class="cls-63" points="14.01 11.56 13.5 12 13.78 11.45 14.01 11.56"></polygon><polygon class="cls-64" points="14.05 11.58 13.45 12.11 13.5 12 14.01 11.56 14.05 11.58"></polygon><polygon class="cls-65" points="14.1 11.6 13.39 12.22 13.45 12.11 14.05 11.58 14.1 11.6"></polygon><polygon class="cls-66" points="14.14 11.63 13.34 12.33 13.39 12.22 14.1 11.6 14.14 11.63"></polygon><polygon class="cls-67" points="14.19 11.65 13.28 12.44 13.34 12.33 14.14 11.63 14.19 11.65"></polygon><polygon class="cls-68" points="14.23 11.67 13.23 12.55 13.28 12.44 14.19 11.65 14.23 11.67"></polygon><polygon class="cls-69" points="14.27 11.69 13.17 12.66 13.23 12.55 14.23 11.67 14.27 11.69"></polygon><polygon class="cls-70" points="14.32 11.72 13.12 12.77 13.17 12.66 14.27 11.69 14.32 11.72"></polygon><polygon class="cls-71" points="14.36 11.74 13.1 12.85 13.09 12.83 13.12 12.77 14.32 11.72 14.36 11.74"></polygon><polygon class="cls-72" points="14.41 11.76 13.13 12.88 13.1 12.85 14.36 11.74 14.41 11.76"></polygon><polygon class="cls-73" points="14.45 11.78 13.16 12.92 13.13 12.88 14.41 11.76 14.45 11.78"></polygon><polygon class="cls-74" points="14.49 11.8 13.19 12.95 13.16 12.92 14.45 11.78 14.49 11.8"></polygon><polygon class="cls-75" points="14.54 11.83 13.23 12.97 13.19 12.95 13.19 12.95 14.49 11.8 14.54 11.83"></polygon><polygon class="cls-76" points="14.58 11.85 13.28 12.99 13.23 12.97 14.54 11.83 14.58 11.85"></polygon><polygon class="cls-77" points="14.63 11.87 13.32 13.02 13.28 12.99 14.58 11.85 14.63 11.87"></polygon><polygon class="cls-78" points="14.67 11.89 13.37 13.04 13.32 13.02 14.63 11.87 14.67 11.89"></polygon><polygon class="cls-79" points="14.72 11.92 13.41 13.06 13.37 13.04 14.67 11.89 14.72 11.92"></polygon><polygon class="cls-80" points="14.76 11.94 13.46 13.08 13.41 13.06 14.72 11.92 14.76 11.94"></polygon><polygon class="cls-81" points="14.8 11.96 13.5 13.11 13.46 13.08 14.76 11.94 14.8 11.96"></polygon><polygon class="cls-82" points="14.85 11.98 13.54 13.13 13.5 13.11 14.8 11.96 14.85 11.98"></polygon><polygon class="cls-83" points="14.89 12.01 13.59 13.15 13.54 13.13 14.85 11.98 14.89 12.01"></polygon><polygon class="cls-84" points="14.94 12.03 13.63 13.17 13.59 13.15 14.89 12.01 14.94 12.03"></polygon><polygon class="cls-85" points="14.98 12.05 13.68 13.2 13.63 13.17 14.94 12.03 14.98 12.05"></polygon><polygon class="cls-86" points="15.03 12.07 13.72 13.22 13.68 13.2 14.98 12.05 15.03 12.07"></polygon><polygon class="cls-87" points="15.07 12.09 13.77 13.24 13.72 13.22 15.03 12.07 15.07 12.09"></polygon><polygon class="cls-88" points="15.12 12.12 13.81 13.26 13.77 13.24 15.07 12.09 15.12 12.12"></polygon><polygon class="cls-89" points="15.16 12.14 13.85 13.28 13.81 13.26 15.12 12.12 15.16 12.14"></polygon><polygon class="cls-90" points="15.2 12.16 13.9 13.31 13.85 13.28 15.16 12.14 15.2 12.16"></polygon><polygon class="cls-91" points="15.25 12.18 13.94 13.33 13.9 13.31 15.2 12.16 15.25 12.18"></polygon><polygon class="cls-92" points="15.29 12.21 13.99 13.35 13.94 13.33 15.25 12.18 15.29 12.21"></polygon><polygon class="cls-93" points="15.34 12.23 14.03 13.37 13.99 13.35 15.29 12.21 15.34 12.23"></polygon><polygon class="cls-94" points="15.34 12.23 15.37 12.26 14.07 13.39 14.03 13.37 15.34 12.23 15.34 12.23"></polygon><polygon class="cls-95" points="15.37 12.26 15.4 12.29 14.12 13.42 14.07 13.39 15.37 12.26"></polygon><polygon class="cls-96" points="15.4 12.29 15.43 12.33 14.16 13.44 14.12 13.42 15.4 12.29"></polygon><polygon class="cls-97" points="15.43 12.33 15.46 12.36 14.21 13.46 14.16 13.44 15.43 12.33"></polygon><polygon class="cls-98" points="15.46 12.36 15.49 12.4 14.25 13.48 14.21 13.46 15.46 12.36"></polygon><polygon class="cls-99" points="15.49 12.4 15.52 12.43 14.3 13.51 14.25 13.48 15.49 12.4"></polygon><polygon class="cls-100" points="15.52 12.43 15.54 12.45 15.51 12.5 14.34 13.53 14.3 13.51 15.52 12.43"></polygon><polygon class="cls-101" points="15.45 12.61 14.38 13.55 14.34 13.53 15.51 12.5 15.45 12.61"></polygon><polygon class="cls-102" points="15.4 12.72 14.43 13.57 14.38 13.55 15.45 12.61 15.4 12.72"></polygon><polygon class="cls-103" points="15.34 12.83 14.47 13.6 14.43 13.57 15.4 12.72 15.34 12.83"></polygon><polygon class="cls-104" points="14.47 13.6 15.34 12.83 14.86 13.79 14.47 13.6"></polygon></g><path class="cls-4" d="M15,11.21h0a.54.54,0,0,1,.54.54v.81a.49.49,0,0,1-.49.49H15a.49.49,0,0,1-.49-.49v-.81a.54.54,0,0,1,.54-.54Z" transform="translate(-3.77 7.73) rotate(-25.71)"></path><g class="cls-105"><polygon class="cls-106" points="14.32 12.97 14.96 13.19 14.33 13.22 14.32 12.97"></polygon><polygon class="cls-107" points="14.32 12.92 15.08 13.18 14.96 13.19 14.32 12.97 14.32 12.92"></polygon><polygon class="cls-108" points="14.32 12.87 15.2 13.18 15.08 13.18 14.32 12.92 14.32 12.87"></polygon><polygon class="cls-109" points="14.31 12.82 15.32 13.17 15.2 13.18 14.32 12.87 14.31 12.82"></polygon><polygon class="cls-110" points="14.31 12.77 15.44 13.17 15.32 13.17 14.31 12.82 14.31 12.77"></polygon><polygon class="cls-111" points="14.31 12.72 15.57 13.16 15.44 13.17 14.31 12.77 14.31 12.72"></polygon><polygon class="cls-112" points="14.31 12.67 15.69 13.15 15.57 13.16 14.31 12.72 14.31 12.67"></polygon><polygon class="cls-113" points="14.3 12.62 15.81 13.15 15.69 13.15 14.31 12.67 14.3 12.62"></polygon><polygon class="cls-114" points="14.3 12.57 15.89 13.13 15.88 13.14 15.81 13.15 14.3 12.62 14.3 12.57"></polygon><polygon class="cls-115" points="14.3 12.52 15.9 13.08 15.89 13.13 14.3 12.57 14.3 12.52"></polygon><polygon class="cls-116" points="14.3 12.47 15.92 13.04 15.9 13.08 14.3 12.52 14.3 12.47"></polygon><polygon class="cls-117" points="14.29 12.42 15.93 13 15.92 13.04 14.3 12.47 14.29 12.42"></polygon><polygon class="cls-118" points="14.29 12.37 15.93 12.95 15.93 13 15.93 13 14.29 12.42 14.29 12.37"></polygon><polygon class="cls-119" points="14.29 12.32 15.93 12.9 15.93 12.95 14.29 12.37 14.29 12.32"></polygon><polygon class="cls-120" points="14.29 12.27 15.93 12.85 15.93 12.9 14.29 12.32 14.29 12.27"></polygon><polygon class="cls-121" points="14.28 12.22 15.92 12.8 15.93 12.85 14.29 12.27 14.28 12.22"></polygon><polygon class="cls-122" points="14.28 12.18 15.92 12.75 15.92 12.8 14.28 12.22 14.28 12.18"></polygon><polygon class="cls-123" points="14.28 12.13 15.92 12.7 15.92 12.75 14.28 12.18 14.28 12.13"></polygon><polygon class="cls-124" points="14.28 12.08 15.92 12.65 15.92 12.7 14.28 12.13 14.28 12.08"></polygon><polygon class="cls-125" points="14.28 12.03 15.91 12.6 15.92 12.65 14.28 12.08 14.28 12.03"></polygon><polygon class="cls-126" points="14.27 11.98 15.91 12.55 15.91 12.6 14.28 12.03 14.27 11.98"></polygon><polygon class="cls-127" points="14.27 11.93 15.91 12.5 15.91 12.55 14.27 11.98 14.27 11.93"></polygon><polygon class="cls-128" points="14.27 11.88 15.91 12.45 15.91 12.5 14.27 11.93 14.27 11.88"></polygon><polygon class="cls-129" points="14.27 11.83 15.9 12.4 15.91 12.45 14.27 11.88 14.27 11.83"></polygon><polygon class="cls-130" points="14.26 11.78 15.9 12.35 15.9 12.4 14.27 11.83 14.26 11.78"></polygon><polygon class="cls-131" points="14.26 11.73 15.9 12.3 15.9 12.35 14.26 11.78 14.26 11.73"></polygon><polygon class="cls-132" points="14.26 11.68 15.9 12.25 15.9 12.3 14.26 11.73 14.26 11.68"></polygon><polygon class="cls-133" points="14.26 11.63 15.9 12.21 15.9 12.25 14.26 11.68 14.26 11.63"></polygon><polygon class="cls-134" points="14.25 11.58 15.89 12.15 15.9 12.21 14.26 11.63 14.25 11.58"></polygon><polygon class="cls-135" points="14.25 11.53 15.89 12.11 15.89 12.15 14.25 11.58 14.25 11.53"></polygon><polygon class="cls-136" points="14.25 11.48 15.89 12.06 15.89 12.11 14.25 11.53 14.25 11.48"></polygon><polygon class="cls-137" points="14.25 11.48 14.26 11.44 15.89 12.01 15.89 12.06 14.25 11.48 14.25 11.48"></polygon><polygon class="cls-138" points="14.26 11.44 14.28 11.39 15.88 11.96 15.89 12.01 14.26 11.44"></polygon><polygon class="cls-139" points="14.28 11.39 14.29 11.35 15.88 11.91 15.88 11.96 14.28 11.39"></polygon><polygon class="cls-140" points="14.29 11.35 14.31 11.31 15.88 11.86 15.88 11.91 14.29 11.35"></polygon><polygon class="cls-141" points="14.31 11.31 14.32 11.27 15.88 11.81 15.88 11.86 14.31 11.31"></polygon><polygon class="cls-142" points="14.32 11.27 14.34 11.22 15.87 11.76 15.88 11.81 14.32 11.27"></polygon><polygon class="cls-143" points="14.34 11.22 14.35 11.2 14.41 11.2 15.87 11.71 15.87 11.76 14.34 11.22"></polygon><polygon class="cls-144" points="14.53 11.19 15.87 11.66 15.87 11.71 14.41 11.2 14.53 11.19"></polygon><polygon class="cls-145" points="14.65 11.19 15.87 11.61 15.87 11.66 14.53 11.19 14.65 11.19"></polygon><polygon class="cls-146" points="14.77 11.18 15.86 11.56 15.87 11.61 14.65 11.19 14.77 11.18"></polygon><polygon class="cls-147" points="15.86 11.56 14.77 11.18 15.84 11.13 15.86 11.56"></polygon></g></g><path class="cls-148" d="M7.22,11.52h-2v-.36h2c1.47-.11,2.37-1.81,2.87-3.22a.17.17,0,0,1,.16-.12h.7v.36h-.57c-.76,2.09-1.84,3.25-3.14,3.34Z"></path></g></g></svg>